SplineFontDB: 3.0
FontName: ARFontsV
FullName: ARFontsV
FamilyName: ARFontsV
Weight: Medium
Copyright: Created by Satoshi MITANI,,, with FontForge 2.0 (http://fontforge.sf.net)
UComments: "2014-2-15: Created." 
Version: 001.000
ItalicAngle: 0
UnderlinePosition: -51.2
UnderlineWidth: 25.6
Ascent: 410
Descent: 102
LayerCount: 2
Layer: 0 0 "+gMyXYgAA"  1
Layer: 1 0 "+Uk2XYgAA"  0
NeedsXUIDChange: 1
XUID: [1021 921 582314744 1352119]
FSType: 0
OS2Version: 0
OS2_WeightWidthSlopeOnly: 0
OS2_UseTypoMetrics: 1
CreationTime: 1392449011
ModificationTime: 1392476014
OS2TypoAscent: 0
OS2TypoAOffset: 1
OS2TypoDescent: 0
OS2TypoDOffset: 1
OS2TypoLinegap: 46
OS2WinAscent: 0
OS2WinAOffset: 1
OS2WinDescent: 0
OS2WinDOffset: 1
HheadAscent: 0
HheadAOffset: 1
HheadDescent: 0
HheadDOffset: 1
MarkAttachClasses: 1
DEI: 91125
Encoding: UnicodeBmp
UnicodeInterp: none
NameList: Adobe Glyph List
DisplaySize: -24
AntiAlias: 1
FitToEm: 1
WidthSeparation: 77
WinInfo: 65170 35 11
BeginPrivate: 0
EndPrivate
BeginChars: 65536 190

StartChar: uni3050
Encoding: 12368 12368 0
Width: 589
VWidth: 0
Flags: HW
LayerCount: 2
Back
Fore
SplineSet
39 154 m 1
 39 410 l 1
 295 410 l 1
 551 410 l 1
 551 154 l 1
 551 -102 l 1
 295 -102 l 1
 39 -102 l 1
 39 154 l 1
95.3203 366.48 m 1
 95.3203 377.573 l 1
 83.373 377.573 l 1
 71.4268 377.573 l 1
 71.4268 354.533 l 1
 71.4268 331.493 l 1
 82.5195 331.493 l 1
 93.6133 331.493 l 1
 93.6133 321.253 l 1
 93.6133 311.014 l 1
 82.5195 311.014 l 1
 71.4268 311.014 l 1
 71.4268 298.213 l 1
 71.4268 285.413 l 1
 82.5195 285.413 l 1
 93.6133 285.413 l 1
 93.6133 276.026 l 1
 93.6133 266.64 l 1
 82.5195 266.64 l 1
 71.4268 266.64 l 1
 71.4268 253.84 l 1
 71.4268 241.04 l 1
 82.5195 241.04 l 1
 93.6133 241.04 l 1
 93.6133 231.653 l 1
 93.6133 222.267 l 1
 82.5195 222.267 l 1
 71.4268 222.267 l 1
 71.4268 187.28 l 1
 71.4268 152.293 l 1
 82.5195 152.293 l 1
 93.6133 152.293 l 1
 93.6133 142.906 l 1
 93.6133 133.52 l 1
 82.5195 133.52 l 1
 71.4268 133.52 l 1
 71.4268 98.5332 l 1
 71.4268 63.5469 l 1
 82.5195 63.5469 l 1
 93.6133 63.5469 l 1
 93.6133 54.1602 l 1
 93.6133 44.7734 l 1
 82.5195 44.7734 l 1
 71.4268 44.7734 l 1
 71.4268 31.9736 l 1
 71.4268 19.1738 l 1
 82.5195 19.1738 l 1
 93.6133 19.1738 l 1
 93.6133 8.93359 l 1
 93.6133 -1.30664 l 1
 82.5195 -1.30664 l 1
 71.4268 -1.30664 l 1
 71.4268 -13.2529 l 1
 71.4268 -25.2002 l 1
 82.5195 -25.2002 l 1
 93.6133 -25.2002 l 1
 93.6133 -35.4404 l 1
 93.6133 -45.6797 l 1
 82.5195 -45.6797 l 1
 71.4268 -45.6797 l 1
 71.4268 -57.627 l 1
 71.4268 -69.5732 l 1
 117.678 -69.5732 l 1
 163.928 -69.5732 l 1
 163.331 -58.4805 l 1
 162.733 -47.3867 l 1
 172.547 -47.3867 l 1
 182.36 -47.3867 l 1
 182.36 -58.4805 l 1
 182.36 -69.5732 l 1
 195.16 -69.5732 l 1
 207.96 -69.5732 l 1
 207.96 -58.4805 l 1
 207.96 -47.3867 l 1
 217.347 -47.3867 l 1
 226.733 -47.3867 l 1
 226.733 -58.4805 l 1
 226.733 -69.5732 l 1
 239.533 -69.5732 l 1
 252.333 -69.5732 l 1
 252.333 -58.4805 l 1
 252.333 -47.3867 l 1
 261.72 -47.3867 l 1
 271.106 -47.3867 l 1
 271.106 -58.4805 l 1
 271.106 -69.5732 l 1
 283.906 -69.5732 l 1
 296.707 -69.5732 l 1
 296.707 -58.4805 l 1
 296.707 -47.3867 l 1
 306.094 -47.3867 l 1
 315.48 -47.3867 l 1
 315.48 -58.4805 l 1
 315.48 -69.5732 l 1
 328.28 -69.5732 l 1
 341.08 -69.5732 l 1
 341.08 -58.4805 l 1
 341.08 -47.3867 l 1
 350.467 -47.3867 l 1
 359.854 -47.3867 l 1
 359.854 -58.4805 l 1
 359.854 -69.5732 l 1
 394.84 -69.5732 l 1
 429.827 -69.5732 l 1
 429.827 -58.4805 l 1
 429.827 -47.3867 l 1
 440.066 -47.3867 l 1
 450.307 -47.3867 l 1
 450.307 -58.4805 l 1
 450.307 -69.5732 l 1
 484.44 -69.5732 l 1
 518.573 -69.5732 l 1
 518.573 -46.5332 l 1
 518.573 -23.4932 l 1
 507.48 -23.4932 l 1
 496.387 -23.4932 l 1
 496.387 -13.2529 l 1
 496.387 -3.01367 l 1
 507.48 -3.01367 l 1
 518.573 -3.01367 l 1
 518.573 54.1602 l 1
 518.573 111.333 l 1
 507.48 111.333 l 1
 496.387 111.333 l 1
 496.387 120.72 l 1
 496.387 130.106 l 1
 507.48 130.106 l 1
 518.573 130.106 l 1
 518.573 142.906 l 1
 518.573 155.707 l 1
 507.48 155.707 l 1
 496.387 155.707 l 1
 496.387 165.094 l 1
 496.387 174.48 l 1
 507.48 174.48 l 1
 518.573 174.48 l 1
 518.573 187.28 l 1
 518.573 200.08 l 1
 507.48 200.08 l 1
 496.387 200.08 l 1
 496.387 209.467 l 1
 496.387 218.854 l 1
 507.48 218.854 l 1
 518.573 218.854 l 1
 518.573 231.653 l 1
 518.573 244.453 l 1
 507.48 244.453 l 1
 496.387 244.453 l 1
 496.387 253.84 l 1
 496.387 263.227 l 1
 507.48 263.227 l 1
 518.573 263.227 l 1
 518.573 276.026 l 1
 518.573 288.827 l 1
 507.48 288.827 l 1
 496.387 288.827 l 1
 496.387 299.066 l 1
 496.387 309.307 l 1
 507.48 309.307 l 1
 518.573 309.307 l 1
 518.573 343.44 l 1
 518.573 377.573 l 1
 495.533 377.573 l 1
 472.493 377.573 l 1
 472.493 366.48 l 1
 472.493 355.387 l 1
 462.253 355.387 l 1
 452.014 355.387 l 1
 452.014 366.48 l 1
 452.014 377.573 l 1
 439.043 377.573 l 1
 426.072 377.573 l 1
 426.669 366.48 l 1
 427.267 355.387 l 1
 417.453 355.387 l 1
 407.64 355.387 l 1
 407.64 366.48 l 1
 407.64 377.573 l 1
 372.653 377.573 l 1
 337.667 377.573 l 1
 337.667 366.48 l 1
 337.667 355.387 l 1
 328.28 355.387 l 1
 318.894 355.387 l 1
 318.894 366.48 l 1
 318.894 377.573 l 1
 283.906 377.573 l 1
 248.92 377.573 l 1
 248.92 366.48 l 1
 248.92 355.387 l 1
 239.533 355.387 l 1
 230.146 355.387 l 1
 230.146 366.48 l 1
 230.146 377.573 l 1
 172.974 377.573 l 1
 115.8 377.573 l 1
 115.8 366.48 l 1
 115.8 355.387 l 1
 105.56 355.387 l 1
 95.3203 355.387 l 1
 95.3203 366.48 l 1
EndSplineSet
Validated: 524289
EndChar

StartChar: uni306F
Encoding: 12399 12399 1
Width: 589
VWidth: 0
Flags: HW
LayerCount: 2
Back
Fore
SplineSet
39 154 m 1
 39 410 l 1
 295 410 l 1
 551 410 l 1
 551 154 l 1
 551 -102 l 1
 295 -102 l 1
 39 -102 l 1
 39 154 l 1
95.3203 366.48 m 1
 95.3203 377.573 l 1
 83.373 377.573 l 1
 71.4268 377.573 l 1
 71.4268 331.493 l 1
 71.4268 285.413 l 1
 82.5195 285.413 l 1
 93.6133 285.413 l 1
 93.6133 276.026 l 1
 93.6133 266.64 l 1
 82.5195 266.64 l 1
 71.4268 266.64 l 1
 71.4268 253.84 l 1
 71.4268 241.04 l 1
 82.5195 241.04 l 1
 93.6133 241.04 l 1
 93.6133 231.653 l 1
 93.6133 222.267 l 1
 82.5195 222.267 l 1
 71.4268 222.267 l 1
 71.4268 187.28 l 1
 71.4268 152.293 l 1
 82.5195 152.293 l 1
 93.6133 152.293 l 1
 93.6133 142.906 l 1
 93.6133 133.52 l 1
 82.5195 133.52 l 1
 71.4268 133.52 l 1
 71.4268 120.72 l 1
 71.4268 107.92 l 1
 82.5195 107.92 l 1
 93.6133 107.92 l 1
 93.6133 98.5332 l 1
 93.6133 89.1465 l 1
 82.5195 89.1465 l 1
 71.4268 89.1465 l 1
 71.4268 76.3467 l 1
 71.4268 63.5469 l 1
 82.5195 63.5469 l 1
 93.6133 63.5469 l 1
 93.6133 54.1602 l 1
 93.6133 44.7734 l 1
 82.5195 44.7734 l 1
 71.4268 44.7734 l 1
 71.4268 31.9736 l 1
 71.4268 19.1738 l 1
 82.5195 19.1738 l 1
 93.6133 19.1738 l 1
 93.6133 8.93359 l 1
 93.6133 -1.30664 l 1
 82.5195 -1.30664 l 1
 71.4268 -1.30664 l 1
 71.4268 -13.2529 l 1
 71.4268 -25.2002 l 1
 82.5195 -25.2002 l 1
 93.6133 -25.2002 l 1
 93.6133 -35.4404 l 1
 93.6133 -45.6797 l 1
 82.5195 -45.6797 l 1
 71.4268 -45.6797 l 1
 71.4268 -57.627 l 1
 71.4268 -69.5732 l 1
 94.4668 -69.5732 l 1
 117.507 -69.5732 l 1
 117.507 -58.4805 l 1
 117.507 -47.3867 l 1
 127.747 -47.3867 l 1
 137.986 -47.3867 l 1
 137.986 -58.4805 l 1
 137.986 -69.5732 l 1
 150.957 -69.5732 l 1
 163.928 -69.5732 l 1
 163.331 -58.4805 l 1
 162.733 -47.3867 l 1
 172.547 -47.3867 l 1
 182.36 -47.3867 l 1
 182.36 -58.4805 l 1
 182.36 -69.5732 l 1
 195.16 -69.5732 l 1
 207.96 -69.5732 l 1
 207.96 -58.4805 l 1
 207.96 -47.3867 l 1
 217.347 -47.3867 l 1
 226.733 -47.3867 l 1
 226.733 -58.4805 l 1
 226.733 -69.5732 l 1
 239.533 -69.5732 l 1
 252.333 -69.5732 l 1
 252.333 -58.4805 l 1
 252.333 -47.3867 l 1
 261.72 -47.3867 l 1
 271.106 -47.3867 l 1
 271.106 -58.4805 l 1
 271.106 -69.5732 l 1
 283.906 -69.5732 l 1
 296.707 -69.5732 l 1
 296.707 -58.4805 l 1
 296.707 -47.3867 l 1
 306.094 -47.3867 l 1
 315.48 -47.3867 l 1
 315.48 -58.4805 l 1
 315.48 -69.5732 l 1
 372.653 -69.5732 l 1
 429.827 -69.5732 l 1
 429.827 -58.4805 l 1
 429.827 -47.3867 l 1
 440.066 -47.3867 l 1
 450.307 -47.3867 l 1
 450.307 -58.4805 l 1
 450.307 -69.5732 l 1
 484.44 -69.5732 l 1
 518.573 -69.5732 l 1
 518.573 20.8799 l 1
 518.573 111.333 l 1
 507.48 111.333 l 1
 496.387 111.333 l 1
 496.387 120.72 l 1
 496.387 130.106 l 1
 507.48 130.106 l 1
 518.573 130.106 l 1
 518.573 142.906 l 1
 518.573 155.707 l 1
 507.48 155.707 l 1
 496.387 155.707 l 1
 496.387 165.094 l 1
 496.387 174.48 l 1
 507.48 174.48 l 1
 518.573 174.48 l 1
 518.573 209.467 l 1
 518.573 244.453 l 1
 507.48 244.453 l 1
 496.387 244.453 l 1
 496.387 253.84 l 1
 496.387 263.227 l 1
 507.48 263.227 l 1
 518.573 263.227 l 1
 518.573 276.026 l 1
 518.573 288.827 l 1
 507.48 288.827 l 1
 496.387 288.827 l 1
 496.387 299.066 l 1
 496.387 309.307 l 1
 507.48 309.307 l 1
 518.573 309.307 l 1
 518.573 343.44 l 1
 518.573 377.573 l 1
 472.322 377.573 l 1
 426.072 377.573 l 1
 426.669 366.48 l 1
 427.267 355.387 l 1
 417.453 355.387 l 1
 407.64 355.387 l 1
 407.64 366.48 l 1
 407.64 377.573 l 1
 372.653 377.573 l 1
 337.667 377.573 l 1
 337.667 366.48 l 1
 337.667 355.387 l 1
 328.28 355.387 l 1
 318.894 355.387 l 1
 318.894 366.48 l 1
 318.894 377.573 l 1
 217.347 377.573 l 1
 115.8 377.573 l 1
 115.8 366.48 l 1
 115.8 355.387 l 1
 105.56 355.387 l 1
 95.3203 355.387 l 1
 95.3203 366.48 l 1
EndSplineSet
Validated: 524289
EndChar

StartChar: uni30F1
Encoding: 12529 12529 2
Width: 589
VWidth: 0
Flags: HW
LayerCount: 2
Back
Fore
SplineSet
39 154 m 1
 39 410 l 1
 295 410 l 1
 551 410 l 1
 551 154 l 1
 551 -102 l 1
 295 -102 l 1
 39 -102 l 1
 39 154 l 1
95.3203 366.48 m 1
 95.3203 377.573 l 1
 83.373 377.573 l 1
 71.4268 377.573 l 1
 71.4268 354.533 l 1
 71.4268 331.493 l 1
 82.5195 331.493 l 1
 93.6133 331.493 l 1
 93.6133 321.253 l 1
 93.6133 311.014 l 1
 82.5195 311.014 l 1
 71.4268 311.014 l 1
 71.4268 298.213 l 1
 71.4268 285.413 l 1
 82.5195 285.413 l 1
 93.6133 285.413 l 1
 93.6133 276.026 l 1
 93.6133 266.64 l 1
 82.5195 266.64 l 1
 71.4268 266.64 l 1
 71.4268 231.653 l 1
 71.4268 196.667 l 1
 82.5195 196.667 l 1
 93.6133 196.667 l 1
 93.6133 187.28 l 1
 93.6133 177.894 l 1
 82.5195 177.894 l 1
 71.4268 177.894 l 1
 71.4268 165.094 l 1
 71.4268 152.293 l 1
 82.5195 152.293 l 1
 93.6133 152.293 l 1
 93.6133 142.906 l 1
 93.6133 133.52 l 1
 82.5195 133.52 l 1
 71.4268 133.52 l 1
 71.4268 120.72 l 1
 71.4268 107.92 l 1
 82.5195 107.92 l 1
 93.6133 107.92 l 1
 93.6133 98.5332 l 1
 93.6133 89.1465 l 1
 82.5195 89.1465 l 1
 71.4268 89.1465 l 1
 71.4268 76.3467 l 1
 71.4268 63.5469 l 1
 82.5195 63.5469 l 1
 93.6133 63.5469 l 1
 93.6133 54.1602 l 1
 93.6133 44.7734 l 1
 82.5195 44.7734 l 1
 71.4268 44.7734 l 1
 71.4268 9.78711 l 1
 71.4268 -25.2002 l 1
 82.5195 -25.2002 l 1
 93.6133 -25.2002 l 1
 93.6133 -35.4404 l 1
 93.6133 -45.6797 l 1
 82.5195 -45.6797 l 1
 71.4268 -45.6797 l 1
 71.4268 -57.627 l 1
 71.4268 -69.5732 l 1
 117.678 -69.5732 l 1
 163.928 -69.5732 l 1
 163.331 -58.4805 l 1
 162.733 -47.3867 l 1
 172.547 -47.3867 l 1
 182.36 -47.3867 l 1
 182.36 -58.4805 l 1
 182.36 -69.5732 l 1
 239.533 -69.5732 l 1
 296.707 -69.5732 l 1
 296.707 -58.4805 l 1
 296.707 -47.3867 l 1
 306.094 -47.3867 l 1
 315.48 -47.3867 l 1
 315.48 -58.4805 l 1
 315.48 -69.5732 l 1
 417.026 -69.5732 l 1
 518.573 -69.5732 l 1
 518.573 -46.5332 l 1
 518.573 -23.4932 l 1
 507.48 -23.4932 l 1
 496.387 -23.4932 l 1
 496.387 -13.2529 l 1
 496.387 -3.01367 l 1
 507.48 -3.01367 l 1
 518.573 -3.01367 l 1
 518.573 31.9736 l 1
 518.573 66.96 l 1
 507.48 66.96 l 1
 496.387 66.96 l 1
 496.387 76.3467 l 1
 496.387 85.7334 l 1
 507.48 85.7334 l 1
 518.573 85.7334 l 1
 518.573 120.72 l 1
 518.573 155.707 l 1
 507.48 155.707 l 1
 496.387 155.707 l 1
 496.387 165.094 l 1
 496.387 174.48 l 1
 507.48 174.48 l 1
 518.573 174.48 l 1
 518.573 209.467 l 1
 518.573 244.453 l 1
 507.48 244.453 l 1
 496.387 244.453 l 1
 496.387 253.84 l 1
 496.387 263.227 l 1
 507.48 263.227 l 1
 518.573 263.227 l 1
 518.573 320.4 l 1
 518.573 377.573 l 1
 495.533 377.573 l 1
 472.493 377.573 l 1
 472.493 366.48 l 1
 472.493 355.387 l 1
 462.253 355.387 l 1
 452.014 355.387 l 1
 452.014 366.48 l 1
 452.014 377.573 l 1
 439.043 377.573 l 1
 426.072 377.573 l 1
 426.669 366.48 l 1
 427.267 355.387 l 1
 417.453 355.387 l 1
 407.64 355.387 l 1
 407.64 366.48 l 1
 407.64 377.573 l 1
 394.84 377.573 l 1
 382.04 377.573 l 1
 382.04 366.48 l 1
 382.04 355.387 l 1
 372.653 355.387 l 1
 363.267 355.387 l 1
 363.267 366.48 l 1
 363.267 377.573 l 1
 261.72 377.573 l 1
 160.174 377.573 l 1
 160.174 366.48 l 1
 160.174 355.387 l 1
 149.934 355.387 l 1
 139.693 355.387 l 1
 139.693 366.48 l 1
 139.693 377.573 l 1
 127.747 377.573 l 1
 115.8 377.573 l 1
 115.8 366.48 l 1
 115.8 355.387 l 1
 105.56 355.387 l 1
 95.3203 355.387 l 1
 95.3203 366.48 l 1
EndSplineSet
Validated: 524289
EndChar

StartChar: uni30D3
Encoding: 12499 12499 3
Width: 589
VWidth: 0
Flags: HW
LayerCount: 2
Back
Fore
SplineSet
39 154 m 1
 39 410 l 1
 295 410 l 1
 551 410 l 1
 551 154 l 1
 551 -102 l 1
 295 -102 l 1
 39 -102 l 1
 39 154 l 1
95.3203 366.48 m 1
 95.3203 377.573 l 1
 83.373 377.573 l 1
 71.4268 377.573 l 1
 71.4268 354.533 l 1
 71.4268 331.493 l 1
 82.5195 331.493 l 1
 93.6133 331.493 l 1
 93.6133 321.253 l 1
 93.6133 311.014 l 1
 82.5195 311.014 l 1
 71.4268 311.014 l 1
 71.4268 276.026 l 1
 71.4268 241.04 l 1
 82.5195 241.04 l 1
 93.6133 241.04 l 1
 93.6133 231.653 l 1
 93.6133 222.267 l 1
 82.5195 222.267 l 1
 71.4268 222.267 l 1
 71.4268 209.467 l 1
 71.4268 196.667 l 1
 82.5195 196.667 l 1
 93.6133 196.667 l 1
 93.6133 187.28 l 1
 93.6133 177.894 l 1
 82.5195 177.894 l 1
 71.4268 177.894 l 1
 71.4268 165.094 l 1
 71.4268 152.293 l 1
 82.5195 152.293 l 1
 93.6133 152.293 l 1
 93.6133 142.906 l 1
 93.6133 133.52 l 1
 82.5195 133.52 l 1
 71.4268 133.52 l 1
 71.4268 98.5332 l 1
 71.4268 63.5469 l 1
 82.5195 63.5469 l 1
 93.6133 63.5469 l 1
 93.6133 54.1602 l 1
 93.6133 44.7734 l 1
 82.5195 44.7734 l 1
 71.4268 44.7734 l 1
 71.4268 9.78711 l 1
 71.4268 -25.2002 l 1
 82.5195 -25.2002 l 1
 93.6133 -25.2002 l 1
 93.6133 -35.4404 l 1
 93.6133 -45.6797 l 1
 82.5195 -45.6797 l 1
 71.4268 -45.6797 l 1
 71.4268 -57.627 l 1
 71.4268 -69.5732 l 1
 139.693 -69.5732 l 1
 207.96 -69.5732 l 1
 207.96 -58.4805 l 1
 207.96 -47.3867 l 1
 217.347 -47.3867 l 1
 226.733 -47.3867 l 1
 226.733 -58.4805 l 1
 226.733 -69.5732 l 1
 261.72 -69.5732 l 1
 296.707 -69.5732 l 1
 296.707 -58.4805 l 1
 296.707 -47.3867 l 1
 306.094 -47.3867 l 1
 315.48 -47.3867 l 1
 315.48 -58.4805 l 1
 315.48 -69.5732 l 1
 328.28 -69.5732 l 1
 341.08 -69.5732 l 1
 341.08 -58.4805 l 1
 341.08 -47.3867 l 1
 350.467 -47.3867 l 1
 359.854 -47.3867 l 1
 359.854 -58.4805 l 1
 359.854 -69.5732 l 1
 439.213 -69.5732 l 1
 518.573 -69.5732 l 1
 518.573 -46.5332 l 1
 518.573 -23.4932 l 1
 507.48 -23.4932 l 1
 496.387 -23.4932 l 1
 496.387 -13.2529 l 1
 496.387 -3.01367 l 1
 507.48 -3.01367 l 1
 518.573 -3.01367 l 1
 518.573 9.78711 l 1
 518.573 22.5869 l 1
 507.48 22.5869 l 1
 496.387 22.5869 l 1
 496.387 31.9736 l 1
 496.387 41.3604 l 1
 507.48 41.3604 l 1
 518.573 41.3604 l 1
 518.573 98.5332 l 1
 518.573 155.707 l 1
 507.48 155.707 l 1
 496.387 155.707 l 1
 496.387 165.094 l 1
 496.387 174.48 l 1
 507.48 174.48 l 1
 518.573 174.48 l 1
 518.573 187.28 l 1
 518.573 200.08 l 1
 507.48 200.08 l 1
 496.387 200.08 l 1
 496.387 209.467 l 1
 496.387 218.854 l 1
 507.48 218.854 l 1
 518.573 218.854 l 1
 518.573 231.653 l 1
 518.573 244.453 l 1
 507.48 244.453 l 1
 496.387 244.453 l 1
 496.387 253.84 l 1
 496.387 263.227 l 1
 507.48 263.227 l 1
 518.573 263.227 l 1
 518.573 320.4 l 1
 518.573 377.573 l 1
 495.533 377.573 l 1
 472.493 377.573 l 1
 472.493 366.48 l 1
 472.493 355.387 l 1
 462.253 355.387 l 1
 452.014 355.387 l 1
 452.014 366.48 l 1
 452.014 377.573 l 1
 350.467 377.573 l 1
 248.92 377.573 l 1
 248.92 366.48 l 1
 248.92 355.387 l 1
 239.533 355.387 l 1
 230.146 355.387 l 1
 230.146 366.48 l 1
 230.146 377.573 l 1
 195.16 377.573 l 1
 160.174 377.573 l 1
 160.174 366.48 l 1
 160.174 355.387 l 1
 149.934 355.387 l 1
 139.693 355.387 l 1
 139.693 366.48 l 1
 139.693 377.573 l 1
 127.747 377.573 l 1
 115.8 377.573 l 1
 115.8 366.48 l 1
 115.8 355.387 l 1
 105.56 355.387 l 1
 95.3203 355.387 l 1
 95.3203 366.48 l 1
EndSplineSet
Validated: 524289
EndChar

StartChar: uni30B0
Encoding: 12464 12464 4
Width: 589
VWidth: 0
Flags: HW
LayerCount: 2
Back
Fore
SplineSet
39 154 m 1
 39 410 l 1
 295 410 l 1
 551 410 l 1
 551 154 l 1
 551 -102 l 1
 295 -102 l 1
 39 -102 l 1
 39 154 l 1
95.3203 366.48 m 1
 95.3203 377.573 l 1
 83.373 377.573 l 1
 71.4268 377.573 l 1
 71.4268 331.493 l 1
 71.4268 285.413 l 1
 82.5195 285.413 l 1
 93.6133 285.413 l 1
 93.6133 276.026 l 1
 93.6133 266.64 l 1
 82.5195 266.64 l 1
 71.4268 266.64 l 1
 71.4268 231.653 l 1
 71.4268 196.667 l 1
 82.5195 196.667 l 1
 93.6133 196.667 l 1
 93.6133 187.28 l 1
 93.6133 177.894 l 1
 82.5195 177.894 l 1
 71.4268 177.894 l 1
 71.4268 165.094 l 1
 71.4268 152.293 l 1
 82.5195 152.293 l 1
 93.6133 152.293 l 1
 93.6133 142.906 l 1
 93.6133 133.52 l 1
 82.5195 133.52 l 1
 71.4268 133.52 l 1
 71.4268 120.72 l 1
 71.4268 107.92 l 1
 82.5195 107.92 l 1
 93.6133 107.92 l 1
 93.6133 98.5332 l 1
 93.6133 89.1465 l 1
 82.5195 89.1465 l 1
 71.4268 89.1465 l 1
 71.4268 54.1602 l 1
 71.4268 19.1738 l 1
 82.5195 19.1738 l 1
 93.6133 19.1738 l 1
 93.6133 8.93359 l 1
 93.6133 -1.30664 l 1
 82.5195 -1.30664 l 1
 71.4268 -1.30664 l 1
 71.4268 -13.2529 l 1
 71.4268 -25.2002 l 1
 82.5195 -25.2002 l 1
 93.6133 -25.2002 l 1
 93.6133 -35.4404 l 1
 93.6133 -45.6797 l 1
 82.5195 -45.6797 l 1
 71.4268 -45.6797 l 1
 71.4268 -57.627 l 1
 71.4268 -69.5732 l 1
 94.4668 -69.5732 l 1
 117.507 -69.5732 l 1
 117.507 -58.4805 l 1
 117.507 -47.3867 l 1
 127.747 -47.3867 l 1
 137.986 -47.3867 l 1
 137.986 -58.4805 l 1
 137.986 -69.5732 l 1
 150.957 -69.5732 l 1
 163.928 -69.5732 l 1
 163.331 -58.4805 l 1
 162.733 -47.3867 l 1
 172.547 -47.3867 l 1
 182.36 -47.3867 l 1
 182.36 -58.4805 l 1
 182.36 -69.5732 l 1
 239.533 -69.5732 l 1
 296.707 -69.5732 l 1
 296.707 -58.4805 l 1
 296.707 -47.3867 l 1
 306.094 -47.3867 l 1
 315.48 -47.3867 l 1
 315.48 -58.4805 l 1
 315.48 -69.5732 l 1
 350.467 -69.5732 l 1
 385.453 -69.5732 l 1
 385.453 -58.4805 l 1
 385.453 -47.3867 l 1
 395.267 -47.3867 l 1
 405.08 -47.3867 l 1
 404.482 -58.4805 l 1
 403.886 -69.5732 l 1
 416.856 -69.5732 l 1
 429.827 -69.5732 l 1
 429.827 -58.4805 l 1
 429.827 -47.3867 l 1
 440.066 -47.3867 l 1
 450.307 -47.3867 l 1
 450.307 -58.4805 l 1
 450.307 -69.5732 l 1
 484.44 -69.5732 l 1
 518.573 -69.5732 l 1
 518.573 -1.30664 l 1
 518.573 66.96 l 1
 507.48 66.96 l 1
 496.387 66.96 l 1
 496.387 76.3467 l 1
 496.387 85.7334 l 1
 507.48 85.7334 l 1
 518.573 85.7334 l 1
 518.573 120.72 l 1
 518.573 155.707 l 1
 507.48 155.707 l 1
 496.387 155.707 l 1
 496.387 165.094 l 1
 496.387 174.48 l 1
 507.48 174.48 l 1
 518.573 174.48 l 1
 518.573 231.653 l 1
 518.573 288.827 l 1
 507.48 288.827 l 1
 496.387 288.827 l 1
 496.387 299.066 l 1
 496.387 309.307 l 1
 507.48 309.307 l 1
 518.573 309.307 l 1
 518.573 343.44 l 1
 518.573 377.573 l 1
 472.322 377.573 l 1
 426.072 377.573 l 1
 426.669 366.48 l 1
 427.267 355.387 l 1
 417.453 355.387 l 1
 407.64 355.387 l 1
 407.64 366.48 l 1
 407.64 377.573 l 1
 394.84 377.573 l 1
 382.04 377.573 l 1
 382.04 366.48 l 1
 382.04 355.387 l 1
 372.653 355.387 l 1
 363.267 355.387 l 1
 363.267 366.48 l 1
 363.267 377.573 l 1
 283.906 377.573 l 1
 204.547 377.573 l 1
 204.547 366.48 l 1
 204.547 355.387 l 1
 194.733 355.387 l 1
 184.92 355.387 l 1
 185.518 366.48 l 1
 186.114 377.573 l 1
 150.957 377.573 l 1
 115.8 377.573 l 1
 115.8 366.48 l 1
 115.8 355.387 l 1
 105.56 355.387 l 1
 95.3203 355.387 l 1
 95.3203 366.48 l 1
EndSplineSet
Validated: 524289
EndChar

StartChar: uni3073
Encoding: 12403 12403 5
Width: 589
VWidth: 0
Flags: HW
LayerCount: 2
Back
Fore
SplineSet
39 154 m 1
 39 410 l 1
 295 410 l 1
 551 410 l 1
 551 154 l 1
 551 -102 l 1
 295 -102 l 1
 39 -102 l 1
 39 154 l 1
95.3203 366.48 m 1
 95.3203 377.573 l 1
 83.373 377.573 l 1
 71.4268 377.573 l 1
 71.4268 331.493 l 1
 71.4268 285.413 l 1
 82.5195 285.413 l 1
 93.6133 285.413 l 1
 93.6133 276.026 l 1
 93.6133 266.64 l 1
 82.5195 266.64 l 1
 71.4268 266.64 l 1
 71.4268 231.653 l 1
 71.4268 196.667 l 1
 82.5195 196.667 l 1
 93.6133 196.667 l 1
 93.6133 187.28 l 1
 93.6133 177.894 l 1
 82.5195 177.894 l 1
 71.4268 177.894 l 1
 71.4268 142.906 l 1
 71.4268 107.92 l 1
 82.5195 107.92 l 1
 93.6133 107.92 l 1
 93.6133 98.5332 l 1
 93.6133 89.1465 l 1
 82.5195 89.1465 l 1
 71.4268 89.1465 l 1
 71.4268 76.3467 l 1
 71.4268 63.5469 l 1
 82.5195 63.5469 l 1
 93.6133 63.5469 l 1
 93.6133 54.1602 l 1
 93.6133 44.7734 l 1
 82.5195 44.7734 l 1
 71.4268 44.7734 l 1
 71.4268 31.9736 l 1
 71.4268 19.1738 l 1
 82.5195 19.1738 l 1
 93.6133 19.1738 l 1
 93.6133 8.93359 l 1
 93.6133 -1.30664 l 1
 82.5195 -1.30664 l 1
 71.4268 -1.30664 l 1
 71.4268 -13.2529 l 1
 71.4268 -25.2002 l 1
 82.5195 -25.2002 l 1
 93.6133 -25.2002 l 1
 93.6133 -35.4404 l 1
 93.6133 -45.6797 l 1
 82.5195 -45.6797 l 1
 71.4268 -45.6797 l 1
 71.4268 -57.627 l 1
 71.4268 -69.5732 l 1
 94.4668 -69.5732 l 1
 117.507 -69.5732 l 1
 117.507 -58.4805 l 1
 117.507 -47.3867 l 1
 127.747 -47.3867 l 1
 137.986 -47.3867 l 1
 137.986 -58.4805 l 1
 137.986 -69.5732 l 1
 150.957 -69.5732 l 1
 163.928 -69.5732 l 1
 163.331 -58.4805 l 1
 162.733 -47.3867 l 1
 172.547 -47.3867 l 1
 182.36 -47.3867 l 1
 182.36 -58.4805 l 1
 182.36 -69.5732 l 1
 306.094 -69.5732 l 1
 429.827 -69.5732 l 1
 429.827 -58.4805 l 1
 429.827 -47.3867 l 1
 440.066 -47.3867 l 1
 450.307 -47.3867 l 1
 450.307 -58.4805 l 1
 450.307 -69.5732 l 1
 484.44 -69.5732 l 1
 518.573 -69.5732 l 1
 518.573 -1.30664 l 1
 518.573 66.96 l 1
 507.48 66.96 l 1
 496.387 66.96 l 1
 496.387 76.3467 l 1
 496.387 85.7334 l 1
 507.48 85.7334 l 1
 518.573 85.7334 l 1
 518.573 165.094 l 1
 518.573 244.453 l 1
 507.48 244.453 l 1
 496.387 244.453 l 1
 496.387 253.84 l 1
 496.387 263.227 l 1
 507.48 263.227 l 1
 518.573 263.227 l 1
 518.573 276.026 l 1
 518.573 288.827 l 1
 507.48 288.827 l 1
 496.387 288.827 l 1
 496.387 299.066 l 1
 496.387 309.307 l 1
 507.48 309.307 l 1
 518.573 309.307 l 1
 518.573 343.44 l 1
 518.573 377.573 l 1
 472.322 377.573 l 1
 426.072 377.573 l 1
 426.669 366.48 l 1
 427.267 355.387 l 1
 417.453 355.387 l 1
 407.64 355.387 l 1
 407.64 366.48 l 1
 407.64 377.573 l 1
 394.84 377.573 l 1
 382.04 377.573 l 1
 382.04 366.48 l 1
 382.04 355.387 l 1
 372.653 355.387 l 1
 363.267 355.387 l 1
 363.267 366.48 l 1
 363.267 377.573 l 1
 328.28 377.573 l 1
 293.293 377.573 l 1
 293.293 366.48 l 1
 293.293 355.387 l 1
 283.906 355.387 l 1
 274.52 355.387 l 1
 274.52 366.48 l 1
 274.52 377.573 l 1
 195.16 377.573 l 1
 115.8 377.573 l 1
 115.8 366.48 l 1
 115.8 355.387 l 1
 105.56 355.387 l 1
 95.3203 355.387 l 1
 95.3203 366.48 l 1
EndSplineSet
Validated: 524289
EndChar

StartChar: uni30EF
Encoding: 12527 12527 6
Width: 589
VWidth: 0
Flags: HW
LayerCount: 2
Back
Fore
SplineSet
39 154 m 1
 39 410 l 1
 295 410 l 1
 551 410 l 1
 551 154 l 1
 551 -102 l 1
 295 -102 l 1
 39 -102 l 1
 39 154 l 1
95.3203 366.48 m 1
 95.3203 377.573 l 1
 83.373 377.573 l 1
 71.4268 377.573 l 1
 71.4268 354.533 l 1
 71.4268 331.493 l 1
 82.5195 331.493 l 1
 93.6133 331.493 l 1
 93.6133 321.253 l 1
 93.6133 311.014 l 1
 82.5195 311.014 l 1
 71.4268 311.014 l 1
 71.4268 253.84 l 1
 71.4268 196.667 l 1
 82.5195 196.667 l 1
 93.6133 196.667 l 1
 93.6133 187.28 l 1
 93.6133 177.894 l 1
 82.5195 177.894 l 1
 71.4268 177.894 l 1
 71.4268 165.094 l 1
 71.4268 152.293 l 1
 82.5195 152.293 l 1
 93.6133 152.293 l 1
 93.6133 142.906 l 1
 93.6133 133.52 l 1
 82.5195 133.52 l 1
 71.4268 133.52 l 1
 71.4268 120.72 l 1
 71.4268 107.92 l 1
 82.5195 107.92 l 1
 93.6133 107.92 l 1
 93.6133 98.5332 l 1
 93.6133 89.1465 l 1
 82.5195 89.1465 l 1
 71.4268 89.1465 l 1
 71.4268 76.3467 l 1
 71.4268 63.5469 l 1
 82.5195 63.5469 l 1
 93.6133 63.5469 l 1
 93.6133 54.1602 l 1
 93.6133 44.7734 l 1
 82.5195 44.7734 l 1
 71.4268 44.7734 l 1
 71.4268 9.78711 l 1
 71.4268 -25.2002 l 1
 82.5195 -25.2002 l 1
 93.6133 -25.2002 l 1
 93.6133 -35.4404 l 1
 93.6133 -45.6797 l 1
 82.5195 -45.6797 l 1
 71.4268 -45.6797 l 1
 71.4268 -57.627 l 1
 71.4268 -69.5732 l 1
 184.066 -69.5732 l 1
 296.707 -69.5732 l 1
 296.707 -58.4805 l 1
 296.707 -47.3867 l 1
 306.094 -47.3867 l 1
 315.48 -47.3867 l 1
 315.48 -58.4805 l 1
 315.48 -69.5732 l 1
 417.026 -69.5732 l 1
 518.573 -69.5732 l 1
 518.573 -46.5332 l 1
 518.573 -23.4932 l 1
 507.48 -23.4932 l 1
 496.387 -23.4932 l 1
 496.387 -13.2529 l 1
 496.387 -3.01367 l 1
 507.48 -3.01367 l 1
 518.573 -3.01367 l 1
 518.573 9.78711 l 1
 518.573 22.5869 l 1
 507.48 22.5869 l 1
 496.387 22.5869 l 1
 496.387 31.9736 l 1
 496.387 41.3604 l 1
 507.48 41.3604 l 1
 518.573 41.3604 l 1
 518.573 54.1602 l 1
 518.573 66.96 l 1
 507.48 66.96 l 1
 496.387 66.96 l 1
 496.387 76.3467 l 1
 496.387 85.7334 l 1
 507.48 85.7334 l 1
 518.573 85.7334 l 1
 518.573 120.72 l 1
 518.573 155.707 l 1
 507.48 155.707 l 1
 496.387 155.707 l 1
 496.387 165.094 l 1
 496.387 174.48 l 1
 507.48 174.48 l 1
 518.573 174.48 l 1
 518.573 209.467 l 1
 518.573 244.453 l 1
 507.48 244.453 l 1
 496.387 244.453 l 1
 496.387 253.84 l 1
 496.387 263.227 l 1
 507.48 263.227 l 1
 518.573 263.227 l 1
 518.573 320.4 l 1
 518.573 377.573 l 1
 495.533 377.573 l 1
 472.493 377.573 l 1
 472.493 366.48 l 1
 472.493 355.387 l 1
 462.253 355.387 l 1
 452.014 355.387 l 1
 452.014 366.48 l 1
 452.014 377.573 l 1
 417.026 377.573 l 1
 382.04 377.573 l 1
 382.04 366.48 l 1
 382.04 355.387 l 1
 372.653 355.387 l 1
 363.267 355.387 l 1
 363.267 366.48 l 1
 363.267 377.573 l 1
 261.72 377.573 l 1
 160.174 377.573 l 1
 160.174 366.48 l 1
 160.174 355.387 l 1
 149.934 355.387 l 1
 139.693 355.387 l 1
 139.693 366.48 l 1
 139.693 377.573 l 1
 127.747 377.573 l 1
 115.8 377.573 l 1
 115.8 366.48 l 1
 115.8 355.387 l 1
 105.56 355.387 l 1
 95.3203 355.387 l 1
 95.3203 366.48 l 1
EndSplineSet
Validated: 524289
EndChar

StartChar: uni30DF
Encoding: 12511 12511 7
Width: 589
VWidth: 0
Flags: HW
LayerCount: 2
Back
Fore
SplineSet
39 154 m 1
 39 410 l 1
 295 410 l 1
 551 410 l 1
 551 154 l 1
 551 -102 l 1
 295 -102 l 1
 39 -102 l 1
 39 154 l 1
95.3203 366.48 m 1
 95.3203 377.573 l 1
 83.373 377.573 l 1
 71.4268 377.573 l 1
 71.4268 354.533 l 1
 71.4268 331.493 l 1
 82.5195 331.493 l 1
 93.6133 331.493 l 1
 93.6133 321.253 l 1
 93.6133 311.014 l 1
 82.5195 311.014 l 1
 71.4268 311.014 l 1
 71.4268 253.84 l 1
 71.4268 196.667 l 1
 82.5195 196.667 l 1
 93.6133 196.667 l 1
 93.6133 187.28 l 1
 93.6133 177.894 l 1
 82.5195 177.894 l 1
 71.4268 177.894 l 1
 71.4268 120.72 l 1
 71.4268 63.5469 l 1
 82.5195 63.5469 l 1
 93.6133 63.5469 l 1
 93.6133 54.1602 l 1
 93.6133 44.7734 l 1
 82.5195 44.7734 l 1
 71.4268 44.7734 l 1
 71.4268 9.78711 l 1
 71.4268 -25.2002 l 1
 82.5195 -25.2002 l 1
 93.6133 -25.2002 l 1
 93.6133 -35.4404 l 1
 93.6133 -45.6797 l 1
 82.5195 -45.6797 l 1
 71.4268 -45.6797 l 1
 71.4268 -57.627 l 1
 71.4268 -69.5732 l 1
 206.253 -69.5732 l 1
 341.08 -69.5732 l 1
 341.08 -58.4805 l 1
 341.08 -47.3867 l 1
 350.467 -47.3867 l 1
 359.854 -47.3867 l 1
 359.854 -58.4805 l 1
 359.854 -69.5732 l 1
 439.213 -69.5732 l 1
 518.573 -69.5732 l 1
 518.573 -46.5332 l 1
 518.573 -23.4932 l 1
 507.48 -23.4932 l 1
 496.387 -23.4932 l 1
 496.387 -13.2529 l 1
 496.387 -3.01367 l 1
 507.48 -3.01367 l 1
 518.573 -3.01367 l 1
 518.573 9.78711 l 1
 518.573 22.5869 l 1
 507.48 22.5869 l 1
 496.387 22.5869 l 1
 496.387 31.9736 l 1
 496.387 41.3604 l 1
 507.48 41.3604 l 1
 518.573 41.3604 l 1
 518.573 54.1602 l 1
 518.573 66.96 l 1
 507.48 66.96 l 1
 496.387 66.96 l 1
 496.387 76.3467 l 1
 496.387 85.7334 l 1
 507.48 85.7334 l 1
 518.573 85.7334 l 1
 518.573 142.906 l 1
 518.573 200.08 l 1
 507.48 200.08 l 1
 496.387 200.08 l 1
 496.387 209.467 l 1
 496.387 218.854 l 1
 507.48 218.854 l 1
 518.573 218.854 l 1
 518.573 231.653 l 1
 518.573 244.453 l 1
 507.48 244.453 l 1
 496.387 244.453 l 1
 496.387 253.84 l 1
 496.387 263.227 l 1
 507.48 263.227 l 1
 518.573 263.227 l 1
 518.573 320.4 l 1
 518.573 377.573 l 1
 495.533 377.573 l 1
 472.493 377.573 l 1
 472.493 366.48 l 1
 472.493 355.387 l 1
 462.253 355.387 l 1
 452.014 355.387 l 1
 452.014 366.48 l 1
 452.014 377.573 l 1
 417.026 377.573 l 1
 382.04 377.573 l 1
 382.04 366.48 l 1
 382.04 355.387 l 1
 372.653 355.387 l 1
 363.267 355.387 l 1
 363.267 366.48 l 1
 363.267 377.573 l 1
 328.28 377.573 l 1
 293.293 377.573 l 1
 293.293 366.48 l 1
 293.293 355.387 l 1
 283.906 355.387 l 1
 274.52 355.387 l 1
 274.52 366.48 l 1
 274.52 377.573 l 1
 261.72 377.573 l 1
 248.92 377.573 l 1
 248.92 366.48 l 1
 248.92 355.387 l 1
 239.533 355.387 l 1
 230.146 355.387 l 1
 230.146 366.48 l 1
 230.146 377.573 l 1
 195.16 377.573 l 1
 160.174 377.573 l 1
 160.174 366.48 l 1
 160.174 355.387 l 1
 149.934 355.387 l 1
 139.693 355.387 l 1
 139.693 366.48 l 1
 139.693 377.573 l 1
 127.747 377.573 l 1
 115.8 377.573 l 1
 115.8 366.48 l 1
 115.8 355.387 l 1
 105.56 355.387 l 1
 95.3203 355.387 l 1
 95.3203 366.48 l 1
EndSplineSet
Validated: 524289
EndChar

StartChar: uni3063
Encoding: 12387 12387 8
Width: 589
VWidth: 0
Flags: HW
LayerCount: 2
Back
Fore
SplineSet
39 154 m 1
 39 410 l 1
 295 410 l 1
 551 410 l 1
 551 154 l 1
 551 -102 l 1
 295 -102 l 1
 39 -102 l 1
 39 154 l 1
95.3203 366.48 m 1
 95.3203 377.573 l 1
 83.373 377.573 l 1
 71.4268 377.573 l 1
 71.4268 331.493 l 1
 71.4268 285.413 l 1
 82.5195 285.413 l 1
 93.6133 285.413 l 1
 93.6133 276.026 l 1
 93.6133 266.64 l 1
 82.5195 266.64 l 1
 71.4268 266.64 l 1
 71.4268 231.653 l 1
 71.4268 196.667 l 1
 82.5195 196.667 l 1
 93.6133 196.667 l 1
 93.6133 187.28 l 1
 93.6133 177.894 l 1
 82.5195 177.894 l 1
 71.4268 177.894 l 1
 71.4268 165.094 l 1
 71.4268 152.293 l 1
 82.5195 152.293 l 1
 93.6133 152.293 l 1
 93.6133 142.906 l 1
 93.6133 133.52 l 1
 82.5195 133.52 l 1
 71.4268 133.52 l 1
 71.4268 120.72 l 1
 71.4268 107.92 l 1
 82.5195 107.92 l 1
 93.6133 107.92 l 1
 93.6133 98.5332 l 1
 93.6133 89.1465 l 1
 82.5195 89.1465 l 1
 71.4268 89.1465 l 1
 71.4268 76.3467 l 1
 71.4268 63.5469 l 1
 82.5195 63.5469 l 1
 93.6133 63.5469 l 1
 93.6133 54.1602 l 1
 93.6133 44.7734 l 1
 82.5195 44.7734 l 1
 71.4268 44.7734 l 1
 71.4268 31.9736 l 1
 71.4268 19.1738 l 1
 82.5195 19.1738 l 1
 93.6133 19.1738 l 1
 93.6133 8.93359 l 1
 93.6133 -1.30664 l 1
 82.5195 -1.30664 l 1
 71.4268 -1.30664 l 1
 71.4268 -13.2529 l 1
 71.4268 -25.2002 l 1
 82.5195 -25.2002 l 1
 93.6133 -25.2002 l 1
 93.6133 -35.4404 l 1
 93.6133 -45.6797 l 1
 82.5195 -45.6797 l 1
 71.4268 -45.6797 l 1
 71.4268 -57.627 l 1
 71.4268 -69.5732 l 1
 94.4668 -69.5732 l 1
 117.507 -69.5732 l 1
 117.507 -58.4805 l 1
 117.507 -47.3867 l 1
 127.747 -47.3867 l 1
 137.986 -47.3867 l 1
 137.986 -58.4805 l 1
 137.986 -69.5732 l 1
 150.957 -69.5732 l 1
 163.928 -69.5732 l 1
 163.331 -58.4805 l 1
 162.733 -47.3867 l 1
 172.547 -47.3867 l 1
 182.36 -47.3867 l 1
 182.36 -58.4805 l 1
 182.36 -69.5732 l 1
 239.533 -69.5732 l 1
 296.707 -69.5732 l 1
 296.707 -58.4805 l 1
 296.707 -47.3867 l 1
 306.094 -47.3867 l 1
 315.48 -47.3867 l 1
 315.48 -58.4805 l 1
 315.48 -69.5732 l 1
 372.653 -69.5732 l 1
 429.827 -69.5732 l 1
 429.827 -58.4805 l 1
 429.827 -47.3867 l 1
 440.066 -47.3867 l 1
 450.307 -47.3867 l 1
 450.307 -58.4805 l 1
 450.307 -69.5732 l 1
 484.44 -69.5732 l 1
 518.573 -69.5732 l 1
 518.573 -1.30664 l 1
 518.573 66.96 l 1
 507.48 66.96 l 1
 496.387 66.96 l 1
 496.387 76.3467 l 1
 496.387 85.7334 l 1
 507.48 85.7334 l 1
 518.573 85.7334 l 1
 518.573 120.72 l 1
 518.573 155.707 l 1
 507.48 155.707 l 1
 496.387 155.707 l 1
 496.387 165.094 l 1
 496.387 174.48 l 1
 507.48 174.48 l 1
 518.573 174.48 l 1
 518.573 209.467 l 1
 518.573 244.453 l 1
 507.48 244.453 l 1
 496.387 244.453 l 1
 496.387 253.84 l 1
 496.387 263.227 l 1
 507.48 263.227 l 1
 518.573 263.227 l 1
 518.573 276.026 l 1
 518.573 288.827 l 1
 507.48 288.827 l 1
 496.387 288.827 l 1
 496.387 299.066 l 1
 496.387 309.307 l 1
 507.48 309.307 l 1
 518.573 309.307 l 1
 518.573 343.44 l 1
 518.573 377.573 l 1
 472.322 377.573 l 1
 426.072 377.573 l 1
 426.669 366.48 l 1
 427.267 355.387 l 1
 417.453 355.387 l 1
 407.64 355.387 l 1
 407.64 366.48 l 1
 407.64 377.573 l 1
 394.84 377.573 l 1
 382.04 377.573 l 1
 382.04 366.48 l 1
 382.04 355.387 l 1
 372.653 355.387 l 1
 363.267 355.387 l 1
 363.267 366.48 l 1
 363.267 377.573 l 1
 239.533 377.573 l 1
 115.8 377.573 l 1
 115.8 366.48 l 1
 115.8 355.387 l 1
 105.56 355.387 l 1
 95.3203 355.387 l 1
 95.3203 366.48 l 1
EndSplineSet
Validated: 524289
EndChar

StartChar: uni30E9
Encoding: 12521 12521 9
Width: 589
VWidth: 0
Flags: HW
LayerCount: 2
Back
Fore
SplineSet
39 154 m 1
 39 410 l 1
 295 410 l 1
 551 410 l 1
 551 154 l 1
 551 -102 l 1
 295 -102 l 1
 39 -102 l 1
 39 154 l 1
95.3203 366.48 m 1
 95.3203 377.573 l 1
 83.373 377.573 l 1
 71.4268 377.573 l 1
 71.4268 354.533 l 1
 71.4268 331.493 l 1
 82.5195 331.493 l 1
 93.6133 331.493 l 1
 93.6133 321.253 l 1
 93.6133 311.014 l 1
 82.5195 311.014 l 1
 71.4268 311.014 l 1
 71.4268 298.213 l 1
 71.4268 285.413 l 1
 82.5195 285.413 l 1
 93.6133 285.413 l 1
 93.6133 276.026 l 1
 93.6133 266.64 l 1
 82.5195 266.64 l 1
 71.4268 266.64 l 1
 71.4268 165.094 l 1
 71.4268 63.5469 l 1
 82.5195 63.5469 l 1
 93.6133 63.5469 l 1
 93.6133 54.1602 l 1
 93.6133 44.7734 l 1
 82.5195 44.7734 l 1
 71.4268 44.7734 l 1
 71.4268 9.78711 l 1
 71.4268 -25.2002 l 1
 82.5195 -25.2002 l 1
 93.6133 -25.2002 l 1
 93.6133 -35.4404 l 1
 93.6133 -45.6797 l 1
 82.5195 -45.6797 l 1
 71.4268 -45.6797 l 1
 71.4268 -57.627 l 1
 71.4268 -69.5732 l 1
 117.678 -69.5732 l 1
 163.928 -69.5732 l 1
 163.331 -58.4805 l 1
 162.733 -47.3867 l 1
 172.547 -47.3867 l 1
 182.36 -47.3867 l 1
 182.36 -58.4805 l 1
 182.36 -69.5732 l 1
 217.347 -69.5732 l 1
 252.333 -69.5732 l 1
 252.333 -58.4805 l 1
 252.333 -47.3867 l 1
 261.72 -47.3867 l 1
 271.106 -47.3867 l 1
 271.106 -58.4805 l 1
 271.106 -69.5732 l 1
 306.094 -69.5732 l 1
 341.08 -69.5732 l 1
 341.08 -58.4805 l 1
 341.08 -47.3867 l 1
 350.467 -47.3867 l 1
 359.854 -47.3867 l 1
 359.854 -58.4805 l 1
 359.854 -69.5732 l 1
 439.213 -69.5732 l 1
 518.573 -69.5732 l 1
 518.573 -46.5332 l 1
 518.573 -23.4932 l 1
 507.48 -23.4932 l 1
 496.387 -23.4932 l 1
 496.387 -13.2529 l 1
 496.387 -3.01367 l 1
 507.48 -3.01367 l 1
 518.573 -3.01367 l 1
 518.573 31.9736 l 1
 518.573 66.96 l 1
 507.48 66.96 l 1
 496.387 66.96 l 1
 496.387 76.3467 l 1
 496.387 85.7334 l 1
 507.48 85.7334 l 1
 518.573 85.7334 l 1
 518.573 98.5332 l 1
 518.573 111.333 l 1
 507.48 111.333 l 1
 496.387 111.333 l 1
 496.387 120.72 l 1
 496.387 130.106 l 1
 507.48 130.106 l 1
 518.573 130.106 l 1
 518.573 165.094 l 1
 518.573 200.08 l 1
 507.48 200.08 l 1
 496.387 200.08 l 1
 496.387 209.467 l 1
 496.387 218.854 l 1
 507.48 218.854 l 1
 518.573 218.854 l 1
 518.573 231.653 l 1
 518.573 244.453 l 1
 507.48 244.453 l 1
 496.387 244.453 l 1
 496.387 253.84 l 1
 496.387 263.227 l 1
 507.48 263.227 l 1
 518.573 263.227 l 1
 518.573 320.4 l 1
 518.573 377.573 l 1
 495.533 377.573 l 1
 472.493 377.573 l 1
 472.493 366.48 l 1
 472.493 355.387 l 1
 462.253 355.387 l 1
 452.014 355.387 l 1
 452.014 366.48 l 1
 452.014 377.573 l 1
 439.043 377.573 l 1
 426.072 377.573 l 1
 426.669 366.48 l 1
 427.267 355.387 l 1
 417.453 355.387 l 1
 407.64 355.387 l 1
 407.64 366.48 l 1
 407.64 377.573 l 1
 394.84 377.573 l 1
 382.04 377.573 l 1
 382.04 366.48 l 1
 382.04 355.387 l 1
 372.653 355.387 l 1
 363.267 355.387 l 1
 363.267 366.48 l 1
 363.267 377.573 l 1
 350.467 377.573 l 1
 337.667 377.573 l 1
 337.667 366.48 l 1
 337.667 355.387 l 1
 328.28 355.387 l 1
 318.894 355.387 l 1
 318.894 366.48 l 1
 318.894 377.573 l 1
 306.094 377.573 l 1
 293.293 377.573 l 1
 293.293 366.48 l 1
 293.293 355.387 l 1
 283.906 355.387 l 1
 274.52 355.387 l 1
 274.52 366.48 l 1
 274.52 377.573 l 1
 261.72 377.573 l 1
 248.92 377.573 l 1
 248.92 366.48 l 1
 248.92 355.387 l 1
 239.533 355.387 l 1
 230.146 355.387 l 1
 230.146 366.48 l 1
 230.146 377.573 l 1
 195.16 377.573 l 1
 160.174 377.573 l 1
 160.174 366.48 l 1
 160.174 355.387 l 1
 149.934 355.387 l 1
 139.693 355.387 l 1
 139.693 366.48 l 1
 139.693 377.573 l 1
 127.747 377.573 l 1
 115.8 377.573 l 1
 115.8 366.48 l 1
 115.8 355.387 l 1
 105.56 355.387 l 1
 95.3203 355.387 l 1
 95.3203 366.48 l 1
EndSplineSet
Validated: 524289
EndChar

StartChar: uni30DB
Encoding: 12507 12507 10
Width: 589
VWidth: 0
Flags: HW
LayerCount: 2
Back
Fore
SplineSet
39 154 m 1
 39 410 l 1
 295 410 l 1
 551 410 l 1
 551 154 l 1
 551 -102 l 1
 295 -102 l 1
 39 -102 l 1
 39 154 l 1
95.3203 366.48 m 1
 95.3203 377.573 l 1
 83.373 377.573 l 1
 71.4268 377.573 l 1
 71.4268 354.533 l 1
 71.4268 331.493 l 1
 82.5195 331.493 l 1
 93.6133 331.493 l 1
 93.6133 321.253 l 1
 93.6133 311.014 l 1
 82.5195 311.014 l 1
 71.4268 311.014 l 1
 71.4268 276.026 l 1
 71.4268 241.04 l 1
 82.5195 241.04 l 1
 93.6133 241.04 l 1
 93.6133 231.653 l 1
 93.6133 222.267 l 1
 82.5195 222.267 l 1
 71.4268 222.267 l 1
 71.4268 187.28 l 1
 71.4268 152.293 l 1
 82.5195 152.293 l 1
 93.6133 152.293 l 1
 93.6133 142.906 l 1
 93.6133 133.52 l 1
 82.5195 133.52 l 1
 71.4268 133.52 l 1
 71.4268 98.5332 l 1
 71.4268 63.5469 l 1
 82.5195 63.5469 l 1
 93.6133 63.5469 l 1
 93.6133 54.1602 l 1
 93.6133 44.7734 l 1
 82.5195 44.7734 l 1
 71.4268 44.7734 l 1
 71.4268 9.78711 l 1
 71.4268 -25.2002 l 1
 82.5195 -25.2002 l 1
 93.6133 -25.2002 l 1
 93.6133 -35.4404 l 1
 93.6133 -45.6797 l 1
 82.5195 -45.6797 l 1
 71.4268 -45.6797 l 1
 71.4268 -57.627 l 1
 71.4268 -69.5732 l 1
 139.693 -69.5732 l 1
 207.96 -69.5732 l 1
 207.96 -58.4805 l 1
 207.96 -47.3867 l 1
 217.347 -47.3867 l 1
 226.733 -47.3867 l 1
 226.733 -58.4805 l 1
 226.733 -69.5732 l 1
 239.533 -69.5732 l 1
 252.333 -69.5732 l 1
 252.333 -58.4805 l 1
 252.333 -47.3867 l 1
 261.72 -47.3867 l 1
 271.106 -47.3867 l 1
 271.106 -58.4805 l 1
 271.106 -69.5732 l 1
 283.906 -69.5732 l 1
 296.707 -69.5732 l 1
 296.707 -58.4805 l 1
 296.707 -47.3867 l 1
 306.094 -47.3867 l 1
 315.48 -47.3867 l 1
 315.48 -58.4805 l 1
 315.48 -69.5732 l 1
 328.28 -69.5732 l 1
 341.08 -69.5732 l 1
 341.08 -58.4805 l 1
 341.08 -47.3867 l 1
 350.467 -47.3867 l 1
 359.854 -47.3867 l 1
 359.854 -58.4805 l 1
 359.854 -69.5732 l 1
 439.213 -69.5732 l 1
 518.573 -69.5732 l 1
 518.573 -46.5332 l 1
 518.573 -23.4932 l 1
 507.48 -23.4932 l 1
 496.387 -23.4932 l 1
 496.387 -13.2529 l 1
 496.387 -3.01367 l 1
 507.48 -3.01367 l 1
 518.573 -3.01367 l 1
 518.573 9.78711 l 1
 518.573 22.5869 l 1
 507.48 22.5869 l 1
 496.387 22.5869 l 1
 496.387 31.9736 l 1
 496.387 41.3604 l 1
 507.48 41.3604 l 1
 518.573 41.3604 l 1
 518.573 76.3467 l 1
 518.573 111.333 l 1
 507.48 111.333 l 1
 496.387 111.333 l 1
 496.387 120.72 l 1
 496.387 130.106 l 1
 507.48 130.106 l 1
 518.573 130.106 l 1
 518.573 142.906 l 1
 518.573 155.707 l 1
 507.48 155.707 l 1
 496.387 155.707 l 1
 496.387 165.094 l 1
 496.387 174.48 l 1
 507.48 174.48 l 1
 518.573 174.48 l 1
 518.573 187.28 l 1
 518.573 200.08 l 1
 507.48 200.08 l 1
 496.387 200.08 l 1
 496.387 209.467 l 1
 496.387 218.854 l 1
 507.48 218.854 l 1
 518.573 218.854 l 1
 518.573 231.653 l 1
 518.573 244.453 l 1
 507.48 244.453 l 1
 496.387 244.453 l 1
 496.387 253.84 l 1
 496.387 263.227 l 1
 507.48 263.227 l 1
 518.573 263.227 l 1
 518.573 320.4 l 1
 518.573 377.573 l 1
 495.533 377.573 l 1
 472.493 377.573 l 1
 472.493 366.48 l 1
 472.493 355.387 l 1
 462.253 355.387 l 1
 452.014 355.387 l 1
 452.014 366.48 l 1
 452.014 377.573 l 1
 394.84 377.573 l 1
 337.667 377.573 l 1
 337.667 366.48 l 1
 337.667 355.387 l 1
 328.28 355.387 l 1
 318.894 355.387 l 1
 318.894 366.48 l 1
 318.894 377.573 l 1
 283.906 377.573 l 1
 248.92 377.573 l 1
 248.92 366.48 l 1
 248.92 355.387 l 1
 239.533 355.387 l 1
 230.146 355.387 l 1
 230.146 366.48 l 1
 230.146 377.573 l 1
 195.16 377.573 l 1
 160.174 377.573 l 1
 160.174 366.48 l 1
 160.174 355.387 l 1
 149.934 355.387 l 1
 139.693 355.387 l 1
 139.693 366.48 l 1
 139.693 377.573 l 1
 127.747 377.573 l 1
 115.8 377.573 l 1
 115.8 366.48 l 1
 115.8 355.387 l 1
 105.56 355.387 l 1
 95.3203 355.387 l 1
 95.3203 366.48 l 1
EndSplineSet
Validated: 524289
EndChar

StartChar: uni30BB
Encoding: 12475 12475 11
Width: 589
VWidth: 0
Flags: HW
LayerCount: 2
Back
Fore
SplineSet
39 154 m 1
 39 410 l 1
 295 410 l 1
 551 410 l 1
 551 154 l 1
 551 -102 l 1
 295 -102 l 1
 39 -102 l 1
 39 154 l 1
95.3203 366.48 m 1
 95.3203 377.573 l 1
 83.373 377.573 l 1
 71.4268 377.573 l 1
 71.4268 354.533 l 1
 71.4268 331.493 l 1
 82.5195 331.493 l 1
 93.6133 331.493 l 1
 93.6133 321.253 l 1
 93.6133 311.014 l 1
 82.5195 311.014 l 1
 71.4268 311.014 l 1
 71.4268 276.026 l 1
 71.4268 241.04 l 1
 82.5195 241.04 l 1
 93.6133 241.04 l 1
 93.6133 231.653 l 1
 93.6133 222.267 l 1
 82.5195 222.267 l 1
 71.4268 222.267 l 1
 71.4268 187.28 l 1
 71.4268 152.293 l 1
 82.5195 152.293 l 1
 93.6133 152.293 l 1
 93.6133 142.906 l 1
 93.6133 133.52 l 1
 82.5195 133.52 l 1
 71.4268 133.52 l 1
 71.4268 120.72 l 1
 71.4268 107.92 l 1
 82.5195 107.92 l 1
 93.6133 107.92 l 1
 93.6133 98.5332 l 1
 93.6133 89.1465 l 1
 82.5195 89.1465 l 1
 71.4268 89.1465 l 1
 71.4268 54.1602 l 1
 71.4268 19.1738 l 1
 82.5195 19.1738 l 1
 93.6133 19.1738 l 1
 93.6133 8.93359 l 1
 93.6133 -1.30664 l 1
 82.5195 -1.30664 l 1
 71.4268 -1.30664 l 1
 71.4268 -13.2529 l 1
 71.4268 -25.2002 l 1
 82.5195 -25.2002 l 1
 93.6133 -25.2002 l 1
 93.6133 -35.4404 l 1
 93.6133 -45.6797 l 1
 82.5195 -45.6797 l 1
 71.4268 -45.6797 l 1
 71.4268 -57.627 l 1
 71.4268 -69.5732 l 1
 139.693 -69.5732 l 1
 207.96 -69.5732 l 1
 207.96 -58.4805 l 1
 207.96 -47.3867 l 1
 217.347 -47.3867 l 1
 226.733 -47.3867 l 1
 226.733 -58.4805 l 1
 226.733 -69.5732 l 1
 239.533 -69.5732 l 1
 252.333 -69.5732 l 1
 252.333 -58.4805 l 1
 252.333 -47.3867 l 1
 261.72 -47.3867 l 1
 271.106 -47.3867 l 1
 271.106 -58.4805 l 1
 271.106 -69.5732 l 1
 283.906 -69.5732 l 1
 296.707 -69.5732 l 1
 296.707 -58.4805 l 1
 296.707 -47.3867 l 1
 306.094 -47.3867 l 1
 315.48 -47.3867 l 1
 315.48 -58.4805 l 1
 315.48 -69.5732 l 1
 350.467 -69.5732 l 1
 385.453 -69.5732 l 1
 385.453 -58.4805 l 1
 385.453 -47.3867 l 1
 395.267 -47.3867 l 1
 405.08 -47.3867 l 1
 404.482 -58.4805 l 1
 403.886 -69.5732 l 1
 416.856 -69.5732 l 1
 429.827 -69.5732 l 1
 429.827 -58.4805 l 1
 429.827 -47.3867 l 1
 440.066 -47.3867 l 1
 450.307 -47.3867 l 1
 450.307 -58.4805 l 1
 450.307 -69.5732 l 1
 484.44 -69.5732 l 1
 518.573 -69.5732 l 1
 518.573 -46.5332 l 1
 518.573 -23.4932 l 1
 507.48 -23.4932 l 1
 496.387 -23.4932 l 1
 496.387 -13.2529 l 1
 496.387 -3.01367 l 1
 507.48 -3.01367 l 1
 518.573 -3.01367 l 1
 518.573 9.78711 l 1
 518.573 22.5869 l 1
 507.48 22.5869 l 1
 496.387 22.5869 l 1
 496.387 31.9736 l 1
 496.387 41.3604 l 1
 507.48 41.3604 l 1
 518.573 41.3604 l 1
 518.573 76.3467 l 1
 518.573 111.333 l 1
 507.48 111.333 l 1
 496.387 111.333 l 1
 496.387 120.72 l 1
 496.387 130.106 l 1
 507.48 130.106 l 1
 518.573 130.106 l 1
 518.573 142.906 l 1
 518.573 155.707 l 1
 507.48 155.707 l 1
 496.387 155.707 l 1
 496.387 165.094 l 1
 496.387 174.48 l 1
 507.48 174.48 l 1
 518.573 174.48 l 1
 518.573 231.653 l 1
 518.573 288.827 l 1
 507.48 288.827 l 1
 496.387 288.827 l 1
 496.387 299.066 l 1
 496.387 309.307 l 1
 507.48 309.307 l 1
 518.573 309.307 l 1
 518.573 343.44 l 1
 518.573 377.573 l 1
 495.533 377.573 l 1
 472.493 377.573 l 1
 472.493 366.48 l 1
 472.493 355.387 l 1
 462.253 355.387 l 1
 452.014 355.387 l 1
 452.014 366.48 l 1
 452.014 377.573 l 1
 394.84 377.573 l 1
 337.667 377.573 l 1
 337.667 366.48 l 1
 337.667 355.387 l 1
 328.28 355.387 l 1
 318.894 355.387 l 1
 318.894 366.48 l 1
 318.894 377.573 l 1
 261.72 377.573 l 1
 204.547 377.573 l 1
 204.547 366.48 l 1
 204.547 355.387 l 1
 194.733 355.387 l 1
 184.92 355.387 l 1
 185.518 366.48 l 1
 186.114 377.573 l 1
 150.957 377.573 l 1
 115.8 377.573 l 1
 115.8 366.48 l 1
 115.8 355.387 l 1
 105.56 355.387 l 1
 95.3203 355.387 l 1
 95.3203 366.48 l 1
EndSplineSet
Validated: 524289
EndChar

StartChar: uni30ED
Encoding: 12525 12525 12
Width: 589
VWidth: 0
Flags: HW
LayerCount: 2
Back
Fore
SplineSet
39 154 m 1
 39 410 l 1
 295 410 l 1
 551 410 l 1
 551 154 l 1
 551 -102 l 1
 295 -102 l 1
 39 -102 l 1
 39 154 l 1
95.3203 366.48 m 1
 95.3203 377.573 l 1
 83.373 377.573 l 1
 71.4268 377.573 l 1
 71.4268 354.533 l 1
 71.4268 331.493 l 1
 82.5195 331.493 l 1
 93.6133 331.493 l 1
 93.6133 321.253 l 1
 93.6133 311.014 l 1
 82.5195 311.014 l 1
 71.4268 311.014 l 1
 71.4268 298.213 l 1
 71.4268 285.413 l 1
 82.5195 285.413 l 1
 93.6133 285.413 l 1
 93.6133 276.026 l 1
 93.6133 266.64 l 1
 82.5195 266.64 l 1
 71.4268 266.64 l 1
 71.4268 253.84 l 1
 71.4268 241.04 l 1
 82.5195 241.04 l 1
 93.6133 241.04 l 1
 93.6133 231.653 l 1
 93.6133 222.267 l 1
 82.5195 222.267 l 1
 71.4268 222.267 l 1
 71.4268 142.906 l 1
 71.4268 63.5469 l 1
 82.5195 63.5469 l 1
 93.6133 63.5469 l 1
 93.6133 54.1602 l 1
 93.6133 44.7734 l 1
 82.5195 44.7734 l 1
 71.4268 44.7734 l 1
 71.4268 9.78711 l 1
 71.4268 -25.2002 l 1
 82.5195 -25.2002 l 1
 93.6133 -25.2002 l 1
 93.6133 -35.4404 l 1
 93.6133 -45.6797 l 1
 82.5195 -45.6797 l 1
 71.4268 -45.6797 l 1
 71.4268 -57.627 l 1
 71.4268 -69.5732 l 1
 117.678 -69.5732 l 1
 163.928 -69.5732 l 1
 163.331 -58.4805 l 1
 162.733 -47.3867 l 1
 172.547 -47.3867 l 1
 182.36 -47.3867 l 1
 182.36 -58.4805 l 1
 182.36 -69.5732 l 1
 195.16 -69.5732 l 1
 207.96 -69.5732 l 1
 207.96 -58.4805 l 1
 207.96 -47.3867 l 1
 217.347 -47.3867 l 1
 226.733 -47.3867 l 1
 226.733 -58.4805 l 1
 226.733 -69.5732 l 1
 239.533 -69.5732 l 1
 252.333 -69.5732 l 1
 252.333 -58.4805 l 1
 252.333 -47.3867 l 1
 261.72 -47.3867 l 1
 271.106 -47.3867 l 1
 271.106 -58.4805 l 1
 271.106 -69.5732 l 1
 306.094 -69.5732 l 1
 341.08 -69.5732 l 1
 341.08 -58.4805 l 1
 341.08 -47.3867 l 1
 350.467 -47.3867 l 1
 359.854 -47.3867 l 1
 359.854 -58.4805 l 1
 359.854 -69.5732 l 1
 439.213 -69.5732 l 1
 518.573 -69.5732 l 1
 518.573 -46.5332 l 1
 518.573 -23.4932 l 1
 507.48 -23.4932 l 1
 496.387 -23.4932 l 1
 496.387 -13.2529 l 1
 496.387 -3.01367 l 1
 507.48 -3.01367 l 1
 518.573 -3.01367 l 1
 518.573 54.1602 l 1
 518.573 111.333 l 1
 507.48 111.333 l 1
 496.387 111.333 l 1
 496.387 120.72 l 1
 496.387 130.106 l 1
 507.48 130.106 l 1
 518.573 130.106 l 1
 518.573 165.094 l 1
 518.573 200.08 l 1
 507.48 200.08 l 1
 496.387 200.08 l 1
 496.387 209.467 l 1
 496.387 218.854 l 1
 507.48 218.854 l 1
 518.573 218.854 l 1
 518.573 231.653 l 1
 518.573 244.453 l 1
 507.48 244.453 l 1
 496.387 244.453 l 1
 496.387 253.84 l 1
 496.387 263.227 l 1
 507.48 263.227 l 1
 518.573 263.227 l 1
 518.573 320.4 l 1
 518.573 377.573 l 1
 495.533 377.573 l 1
 472.493 377.573 l 1
 472.493 366.48 l 1
 472.493 355.387 l 1
 462.253 355.387 l 1
 452.014 355.387 l 1
 452.014 366.48 l 1
 452.014 377.573 l 1
 439.043 377.573 l 1
 426.072 377.573 l 1
 426.669 366.48 l 1
 427.267 355.387 l 1
 417.453 355.387 l 1
 407.64 355.387 l 1
 407.64 366.48 l 1
 407.64 377.573 l 1
 372.653 377.573 l 1
 337.667 377.573 l 1
 337.667 366.48 l 1
 337.667 355.387 l 1
 328.28 355.387 l 1
 318.894 355.387 l 1
 318.894 366.48 l 1
 318.894 377.573 l 1
 306.094 377.573 l 1
 293.293 377.573 l 1
 293.293 366.48 l 1
 293.293 355.387 l 1
 283.906 355.387 l 1
 274.52 355.387 l 1
 274.52 366.48 l 1
 274.52 377.573 l 1
 261.72 377.573 l 1
 248.92 377.573 l 1
 248.92 366.48 l 1
 248.92 355.387 l 1
 239.533 355.387 l 1
 230.146 355.387 l 1
 230.146 366.48 l 1
 230.146 377.573 l 1
 195.16 377.573 l 1
 160.174 377.573 l 1
 160.174 366.48 l 1
 160.174 355.387 l 1
 149.934 355.387 l 1
 139.693 355.387 l 1
 139.693 366.48 l 1
 139.693 377.573 l 1
 127.747 377.573 l 1
 115.8 377.573 l 1
 115.8 366.48 l 1
 115.8 355.387 l 1
 105.56 355.387 l 1
 95.3203 355.387 l 1
 95.3203 366.48 l 1
EndSplineSet
Validated: 524289
EndChar

StartChar: uni30A8
Encoding: 12456 12456 13
Width: 589
VWidth: 0
Flags: HW
LayerCount: 2
Back
Fore
SplineSet
39 154 m 1
 39 410 l 1
 295 410 l 1
 551 410 l 1
 551 154 l 1
 551 -102 l 1
 295 -102 l 1
 39 -102 l 1
 39 154 l 1
95.3203 366.48 m 1
 95.3203 377.573 l 1
 83.373 377.573 l 1
 71.4268 377.573 l 1
 71.4268 331.493 l 1
 71.4268 285.413 l 1
 82.5195 285.413 l 1
 93.6133 285.413 l 1
 93.6133 276.026 l 1
 93.6133 266.64 l 1
 82.5195 266.64 l 1
 71.4268 266.64 l 1
 71.4268 142.906 l 1
 71.4268 19.1738 l 1
 82.5195 19.1738 l 1
 93.6133 19.1738 l 1
 93.6133 8.93359 l 1
 93.6133 -1.30664 l 1
 82.5195 -1.30664 l 1
 71.4268 -1.30664 l 1
 71.4268 -13.2529 l 1
 71.4268 -25.2002 l 1
 82.5195 -25.2002 l 1
 93.6133 -25.2002 l 1
 93.6133 -35.4404 l 1
 93.6133 -45.6797 l 1
 82.5195 -45.6797 l 1
 71.4268 -45.6797 l 1
 71.4268 -57.627 l 1
 71.4268 -69.5732 l 1
 94.4668 -69.5732 l 1
 117.507 -69.5732 l 1
 117.507 -58.4805 l 1
 117.507 -47.3867 l 1
 127.747 -47.3867 l 1
 137.986 -47.3867 l 1
 137.986 -58.4805 l 1
 137.986 -69.5732 l 1
 150.957 -69.5732 l 1
 163.928 -69.5732 l 1
 163.331 -58.4805 l 1
 162.733 -47.3867 l 1
 172.547 -47.3867 l 1
 182.36 -47.3867 l 1
 182.36 -58.4805 l 1
 182.36 -69.5732 l 1
 217.347 -69.5732 l 1
 252.333 -69.5732 l 1
 252.333 -58.4805 l 1
 252.333 -47.3867 l 1
 261.72 -47.3867 l 1
 271.106 -47.3867 l 1
 271.106 -58.4805 l 1
 271.106 -69.5732 l 1
 306.094 -69.5732 l 1
 341.08 -69.5732 l 1
 341.08 -58.4805 l 1
 341.08 -47.3867 l 1
 350.467 -47.3867 l 1
 359.854 -47.3867 l 1
 359.854 -58.4805 l 1
 359.854 -69.5732 l 1
 372.653 -69.5732 l 1
 385.453 -69.5732 l 1
 385.453 -58.4805 l 1
 385.453 -47.3867 l 1
 395.267 -47.3867 l 1
 405.08 -47.3867 l 1
 404.482 -58.4805 l 1
 403.886 -69.5732 l 1
 416.856 -69.5732 l 1
 429.827 -69.5732 l 1
 429.827 -58.4805 l 1
 429.827 -47.3867 l 1
 440.066 -47.3867 l 1
 450.307 -47.3867 l 1
 450.307 -58.4805 l 1
 450.307 -69.5732 l 1
 484.44 -69.5732 l 1
 518.573 -69.5732 l 1
 518.573 -1.30664 l 1
 518.573 66.96 l 1
 507.48 66.96 l 1
 496.387 66.96 l 1
 496.387 76.3467 l 1
 496.387 85.7334 l 1
 507.48 85.7334 l 1
 518.573 85.7334 l 1
 518.573 98.5332 l 1
 518.573 111.333 l 1
 507.48 111.333 l 1
 496.387 111.333 l 1
 496.387 120.72 l 1
 496.387 130.106 l 1
 507.48 130.106 l 1
 518.573 130.106 l 1
 518.573 165.094 l 1
 518.573 200.08 l 1
 507.48 200.08 l 1
 496.387 200.08 l 1
 496.387 209.467 l 1
 496.387 218.854 l 1
 507.48 218.854 l 1
 518.573 218.854 l 1
 518.573 253.84 l 1
 518.573 288.827 l 1
 507.48 288.827 l 1
 496.387 288.827 l 1
 496.387 299.066 l 1
 496.387 309.307 l 1
 507.48 309.307 l 1
 518.573 309.307 l 1
 518.573 343.44 l 1
 518.573 377.573 l 1
 472.322 377.573 l 1
 426.072 377.573 l 1
 426.669 366.48 l 1
 427.267 355.387 l 1
 417.453 355.387 l 1
 407.64 355.387 l 1
 407.64 366.48 l 1
 407.64 377.573 l 1
 394.84 377.573 l 1
 382.04 377.573 l 1
 382.04 366.48 l 1
 382.04 355.387 l 1
 372.653 355.387 l 1
 363.267 355.387 l 1
 363.267 366.48 l 1
 363.267 377.573 l 1
 350.467 377.573 l 1
 337.667 377.573 l 1
 337.667 366.48 l 1
 337.667 355.387 l 1
 328.28 355.387 l 1
 318.894 355.387 l 1
 318.894 366.48 l 1
 318.894 377.573 l 1
 306.094 377.573 l 1
 293.293 377.573 l 1
 293.293 366.48 l 1
 293.293 355.387 l 1
 283.906 355.387 l 1
 274.52 355.387 l 1
 274.52 366.48 l 1
 274.52 377.573 l 1
 261.72 377.573 l 1
 248.92 377.573 l 1
 248.92 366.48 l 1
 248.92 355.387 l 1
 239.533 355.387 l 1
 230.146 355.387 l 1
 230.146 366.48 l 1
 230.146 377.573 l 1
 217.347 377.573 l 1
 204.547 377.573 l 1
 204.547 366.48 l 1
 204.547 355.387 l 1
 194.733 355.387 l 1
 184.92 355.387 l 1
 185.518 366.48 l 1
 186.114 377.573 l 1
 150.957 377.573 l 1
 115.8 377.573 l 1
 115.8 366.48 l 1
 115.8 355.387 l 1
 105.56 355.387 l 1
 95.3203 355.387 l 1
 95.3203 366.48 l 1
EndSplineSet
Validated: 524289
EndChar

StartChar: uni3070
Encoding: 12400 12400 14
Width: 589
VWidth: 0
Flags: HW
LayerCount: 2
Back
Fore
SplineSet
39 154 m 1
 39 410 l 1
 295 410 l 1
 551 410 l 1
 551 154 l 1
 551 -102 l 1
 295 -102 l 1
 39 -102 l 1
 39 154 l 1
95.3203 366.48 m 1
 95.3203 377.573 l 1
 83.373 377.573 l 1
 71.4268 377.573 l 1
 71.4268 354.533 l 1
 71.4268 331.493 l 1
 82.5195 331.493 l 1
 93.6133 331.493 l 1
 93.6133 321.253 l 1
 93.6133 311.014 l 1
 82.5195 311.014 l 1
 71.4268 311.014 l 1
 71.4268 298.213 l 1
 71.4268 285.413 l 1
 82.5195 285.413 l 1
 93.6133 285.413 l 1
 93.6133 276.026 l 1
 93.6133 266.64 l 1
 82.5195 266.64 l 1
 71.4268 266.64 l 1
 71.4268 253.84 l 1
 71.4268 241.04 l 1
 82.5195 241.04 l 1
 93.6133 241.04 l 1
 93.6133 231.653 l 1
 93.6133 222.267 l 1
 82.5195 222.267 l 1
 71.4268 222.267 l 1
 71.4268 187.28 l 1
 71.4268 152.293 l 1
 82.5195 152.293 l 1
 93.6133 152.293 l 1
 93.6133 142.906 l 1
 93.6133 133.52 l 1
 82.5195 133.52 l 1
 71.4268 133.52 l 1
 71.4268 120.72 l 1
 71.4268 107.92 l 1
 82.5195 107.92 l 1
 93.6133 107.92 l 1
 93.6133 98.5332 l 1
 93.6133 89.1465 l 1
 82.5195 89.1465 l 1
 71.4268 89.1465 l 1
 71.4268 76.3467 l 1
 71.4268 63.5469 l 1
 82.5195 63.5469 l 1
 93.6133 63.5469 l 1
 93.6133 54.1602 l 1
 93.6133 44.7734 l 1
 82.5195 44.7734 l 1
 71.4268 44.7734 l 1
 71.4268 31.9736 l 1
 71.4268 19.1738 l 1
 82.5195 19.1738 l 1
 93.6133 19.1738 l 1
 93.6133 8.93359 l 1
 93.6133 -1.30664 l 1
 82.5195 -1.30664 l 1
 71.4268 -1.30664 l 1
 71.4268 -13.2529 l 1
 71.4268 -25.2002 l 1
 82.5195 -25.2002 l 1
 93.6133 -25.2002 l 1
 93.6133 -35.4404 l 1
 93.6133 -45.6797 l 1
 82.5195 -45.6797 l 1
 71.4268 -45.6797 l 1
 71.4268 -57.627 l 1
 71.4268 -69.5732 l 1
 117.678 -69.5732 l 1
 163.928 -69.5732 l 1
 163.331 -58.4805 l 1
 162.733 -47.3867 l 1
 172.547 -47.3867 l 1
 182.36 -47.3867 l 1
 182.36 -58.4805 l 1
 182.36 -69.5732 l 1
 195.16 -69.5732 l 1
 207.96 -69.5732 l 1
 207.96 -58.4805 l 1
 207.96 -47.3867 l 1
 217.347 -47.3867 l 1
 226.733 -47.3867 l 1
 226.733 -58.4805 l 1
 226.733 -69.5732 l 1
 239.533 -69.5732 l 1
 252.333 -69.5732 l 1
 252.333 -58.4805 l 1
 252.333 -47.3867 l 1
 261.72 -47.3867 l 1
 271.106 -47.3867 l 1
 271.106 -58.4805 l 1
 271.106 -69.5732 l 1
 283.906 -69.5732 l 1
 296.707 -69.5732 l 1
 296.707 -58.4805 l 1
 296.707 -47.3867 l 1
 306.094 -47.3867 l 1
 315.48 -47.3867 l 1
 315.48 -58.4805 l 1
 315.48 -69.5732 l 1
 372.653 -69.5732 l 1
 429.827 -69.5732 l 1
 429.827 -58.4805 l 1
 429.827 -47.3867 l 1
 440.066 -47.3867 l 1
 450.307 -47.3867 l 1
 450.307 -58.4805 l 1
 450.307 -69.5732 l 1
 484.44 -69.5732 l 1
 518.573 -69.5732 l 1
 518.573 -46.5332 l 1
 518.573 -23.4932 l 1
 507.48 -23.4932 l 1
 496.387 -23.4932 l 1
 496.387 -13.2529 l 1
 496.387 -3.01367 l 1
 507.48 -3.01367 l 1
 518.573 -3.01367 l 1
 518.573 54.1602 l 1
 518.573 111.333 l 1
 507.48 111.333 l 1
 496.387 111.333 l 1
 496.387 120.72 l 1
 496.387 130.106 l 1
 507.48 130.106 l 1
 518.573 130.106 l 1
 518.573 142.906 l 1
 518.573 155.707 l 1
 507.48 155.707 l 1
 496.387 155.707 l 1
 496.387 165.094 l 1
 496.387 174.48 l 1
 507.48 174.48 l 1
 518.573 174.48 l 1
 518.573 209.467 l 1
 518.573 244.453 l 1
 507.48 244.453 l 1
 496.387 244.453 l 1
 496.387 253.84 l 1
 496.387 263.227 l 1
 507.48 263.227 l 1
 518.573 263.227 l 1
 518.573 276.026 l 1
 518.573 288.827 l 1
 507.48 288.827 l 1
 496.387 288.827 l 1
 496.387 299.066 l 1
 496.387 309.307 l 1
 507.48 309.307 l 1
 518.573 309.307 l 1
 518.573 343.44 l 1
 518.573 377.573 l 1
 495.533 377.573 l 1
 472.493 377.573 l 1
 472.493 366.48 l 1
 472.493 355.387 l 1
 462.253 355.387 l 1
 452.014 355.387 l 1
 452.014 366.48 l 1
 452.014 377.573 l 1
 439.043 377.573 l 1
 426.072 377.573 l 1
 426.669 366.48 l 1
 427.267 355.387 l 1
 417.453 355.387 l 1
 407.64 355.387 l 1
 407.64 366.48 l 1
 407.64 377.573 l 1
 372.653 377.573 l 1
 337.667 377.573 l 1
 337.667 366.48 l 1
 337.667 355.387 l 1
 328.28 355.387 l 1
 318.894 355.387 l 1
 318.894 366.48 l 1
 318.894 377.573 l 1
 217.347 377.573 l 1
 115.8 377.573 l 1
 115.8 366.48 l 1
 115.8 355.387 l 1
 105.56 355.387 l 1
 95.3203 355.387 l 1
 95.3203 366.48 l 1
EndSplineSet
Validated: 524289
EndChar

StartChar: uni30EA
Encoding: 12522 12522 15
Width: 589
VWidth: 0
Flags: HW
LayerCount: 2
Back
Fore
SplineSet
39 154 m 1
 39 410 l 1
 295 410 l 1
 551 410 l 1
 551 154 l 1
 551 -102 l 1
 295 -102 l 1
 39 -102 l 1
 39 154 l 1
95.3203 366.48 m 1
 95.3203 377.573 l 1
 83.373 377.573 l 1
 71.4268 377.573 l 1
 71.4268 309.307 l 1
 71.4268 241.04 l 1
 82.5195 241.04 l 1
 93.6133 241.04 l 1
 93.6133 231.653 l 1
 93.6133 222.267 l 1
 82.5195 222.267 l 1
 71.4268 222.267 l 1
 71.4268 142.906 l 1
 71.4268 63.5469 l 1
 82.5195 63.5469 l 1
 93.6133 63.5469 l 1
 93.6133 54.1602 l 1
 93.6133 44.7734 l 1
 82.5195 44.7734 l 1
 71.4268 44.7734 l 1
 71.4268 9.78711 l 1
 71.4268 -25.2002 l 1
 82.5195 -25.2002 l 1
 93.6133 -25.2002 l 1
 93.6133 -35.4404 l 1
 93.6133 -45.6797 l 1
 82.5195 -45.6797 l 1
 71.4268 -45.6797 l 1
 71.4268 -57.627 l 1
 71.4268 -69.5732 l 1
 94.4668 -69.5732 l 1
 117.507 -69.5732 l 1
 117.507 -58.4805 l 1
 117.507 -47.3867 l 1
 127.747 -47.3867 l 1
 137.986 -47.3867 l 1
 137.986 -58.4805 l 1
 137.986 -69.5732 l 1
 172.974 -69.5732 l 1
 207.96 -69.5732 l 1
 207.96 -58.4805 l 1
 207.96 -47.3867 l 1
 217.347 -47.3867 l 1
 226.733 -47.3867 l 1
 226.733 -58.4805 l 1
 226.733 -69.5732 l 1
 239.533 -69.5732 l 1
 252.333 -69.5732 l 1
 252.333 -58.4805 l 1
 252.333 -47.3867 l 1
 261.72 -47.3867 l 1
 271.106 -47.3867 l 1
 271.106 -58.4805 l 1
 271.106 -69.5732 l 1
 306.094 -69.5732 l 1
 341.08 -69.5732 l 1
 341.08 -58.4805 l 1
 341.08 -47.3867 l 1
 350.467 -47.3867 l 1
 359.854 -47.3867 l 1
 359.854 -58.4805 l 1
 359.854 -69.5732 l 1
 439.213 -69.5732 l 1
 518.573 -69.5732 l 1
 518.573 -23.4932 l 1
 518.573 22.5869 l 1
 507.48 22.5869 l 1
 496.387 22.5869 l 1
 496.387 31.9736 l 1
 496.387 41.3604 l 1
 507.48 41.3604 l 1
 518.573 41.3604 l 1
 518.573 76.3467 l 1
 518.573 111.333 l 1
 507.48 111.333 l 1
 496.387 111.333 l 1
 496.387 120.72 l 1
 496.387 130.106 l 1
 507.48 130.106 l 1
 518.573 130.106 l 1
 518.573 165.094 l 1
 518.573 200.08 l 1
 507.48 200.08 l 1
 496.387 200.08 l 1
 496.387 209.467 l 1
 496.387 218.854 l 1
 507.48 218.854 l 1
 518.573 218.854 l 1
 518.573 231.653 l 1
 518.573 244.453 l 1
 507.48 244.453 l 1
 496.387 244.453 l 1
 496.387 253.84 l 1
 496.387 263.227 l 1
 507.48 263.227 l 1
 518.573 263.227 l 1
 518.573 320.4 l 1
 518.573 377.573 l 1
 428.12 377.573 l 1
 337.667 377.573 l 1
 337.667 366.48 l 1
 337.667 355.387 l 1
 328.28 355.387 l 1
 318.894 355.387 l 1
 318.894 366.48 l 1
 318.894 377.573 l 1
 306.094 377.573 l 1
 293.293 377.573 l 1
 293.293 366.48 l 1
 293.293 355.387 l 1
 283.906 355.387 l 1
 274.52 355.387 l 1
 274.52 366.48 l 1
 274.52 377.573 l 1
 261.72 377.573 l 1
 248.92 377.573 l 1
 248.92 366.48 l 1
 248.92 355.387 l 1
 239.533 355.387 l 1
 230.146 355.387 l 1
 230.146 366.48 l 1
 230.146 377.573 l 1
 195.16 377.573 l 1
 160.174 377.573 l 1
 160.174 366.48 l 1
 160.174 355.387 l 1
 149.934 355.387 l 1
 139.693 355.387 l 1
 139.693 366.48 l 1
 139.693 377.573 l 1
 127.747 377.573 l 1
 115.8 377.573 l 1
 115.8 366.48 l 1
 115.8 355.387 l 1
 105.56 355.387 l 1
 95.3203 355.387 l 1
 95.3203 366.48 l 1
EndSplineSet
Validated: 524289
EndChar

StartChar: uni3071
Encoding: 12401 12401 16
Width: 589
VWidth: 0
Flags: HW
LayerCount: 2
Back
Fore
SplineSet
39 154 m 1
 39 410 l 1
 295 410 l 1
 551 410 l 1
 551 154 l 1
 551 -102 l 1
 295 -102 l 1
 39 -102 l 1
 39 154 l 1
95.3203 366.48 m 1
 95.3203 377.573 l 1
 83.373 377.573 l 1
 71.4268 377.573 l 1
 71.4268 287.12 l 1
 71.4268 196.667 l 1
 82.5195 196.667 l 1
 93.6133 196.667 l 1
 93.6133 187.28 l 1
 93.6133 177.894 l 1
 82.5195 177.894 l 1
 71.4268 177.894 l 1
 71.4268 142.906 l 1
 71.4268 107.92 l 1
 82.5195 107.92 l 1
 93.6133 107.92 l 1
 93.6133 98.5332 l 1
 93.6133 89.1465 l 1
 82.5195 89.1465 l 1
 71.4268 89.1465 l 1
 71.4268 76.3467 l 1
 71.4268 63.5469 l 1
 82.5195 63.5469 l 1
 93.6133 63.5469 l 1
 93.6133 54.1602 l 1
 93.6133 44.7734 l 1
 82.5195 44.7734 l 1
 71.4268 44.7734 l 1
 71.4268 31.9736 l 1
 71.4268 19.1738 l 1
 82.5195 19.1738 l 1
 93.6133 19.1738 l 1
 93.6133 8.93359 l 1
 93.6133 -1.30664 l 1
 82.5195 -1.30664 l 1
 71.4268 -1.30664 l 1
 71.4268 -13.2529 l 1
 71.4268 -25.2002 l 1
 82.5195 -25.2002 l 1
 93.6133 -25.2002 l 1
 93.6133 -35.4404 l 1
 93.6133 -45.6797 l 1
 82.5195 -45.6797 l 1
 71.4268 -45.6797 l 1
 71.4268 -57.627 l 1
 71.4268 -69.5732 l 1
 94.4668 -69.5732 l 1
 117.507 -69.5732 l 1
 117.507 -58.4805 l 1
 117.507 -47.3867 l 1
 127.747 -47.3867 l 1
 137.986 -47.3867 l 1
 137.986 -58.4805 l 1
 137.986 -69.5732 l 1
 283.906 -69.5732 l 1
 429.827 -69.5732 l 1
 429.827 -58.4805 l 1
 429.827 -47.3867 l 1
 440.066 -47.3867 l 1
 450.307 -47.3867 l 1
 450.307 -58.4805 l 1
 450.307 -69.5732 l 1
 484.44 -69.5732 l 1
 518.573 -69.5732 l 1
 518.573 -23.4932 l 1
 518.573 22.5869 l 1
 507.48 22.5869 l 1
 496.387 22.5869 l 1
 496.387 31.9736 l 1
 496.387 41.3604 l 1
 507.48 41.3604 l 1
 518.573 41.3604 l 1
 518.573 54.1602 l 1
 518.573 66.96 l 1
 507.48 66.96 l 1
 496.387 66.96 l 1
 496.387 76.3467 l 1
 496.387 85.7334 l 1
 507.48 85.7334 l 1
 518.573 85.7334 l 1
 518.573 165.094 l 1
 518.573 244.453 l 1
 507.48 244.453 l 1
 496.387 244.453 l 1
 496.387 253.84 l 1
 496.387 263.227 l 1
 507.48 263.227 l 1
 518.573 263.227 l 1
 518.573 276.026 l 1
 518.573 288.827 l 1
 507.48 288.827 l 1
 496.387 288.827 l 1
 496.387 299.066 l 1
 496.387 309.307 l 1
 507.48 309.307 l 1
 518.573 309.307 l 1
 518.573 343.44 l 1
 518.573 377.573 l 1
 450.307 377.573 l 1
 382.04 377.573 l 1
 382.04 366.48 l 1
 382.04 355.387 l 1
 372.653 355.387 l 1
 363.267 355.387 l 1
 363.267 366.48 l 1
 363.267 377.573 l 1
 328.28 377.573 l 1
 293.293 377.573 l 1
 293.293 366.48 l 1
 293.293 355.387 l 1
 283.906 355.387 l 1
 274.52 355.387 l 1
 274.52 366.48 l 1
 274.52 377.573 l 1
 195.16 377.573 l 1
 115.8 377.573 l 1
 115.8 366.48 l 1
 115.8 355.387 l 1
 105.56 355.387 l 1
 95.3203 355.387 l 1
 95.3203 366.48 l 1
EndSplineSet
Validated: 524289
EndChar

StartChar: uni3068
Encoding: 12392 12392 17
Width: 589
VWidth: 0
Flags: HW
LayerCount: 2
Back
Fore
SplineSet
39 154 m 1
 39 410 l 1
 295 410 l 1
 551 410 l 1
 551 154 l 1
 551 -102 l 1
 295 -102 l 1
 39 -102 l 1
 39 154 l 1
95.3203 366.48 m 1
 95.3203 377.573 l 1
 83.373 377.573 l 1
 71.4268 377.573 l 1
 71.4268 354.533 l 1
 71.4268 331.493 l 1
 82.5195 331.493 l 1
 93.6133 331.493 l 1
 93.6133 321.253 l 1
 93.6133 311.014 l 1
 82.5195 311.014 l 1
 71.4268 311.014 l 1
 71.4268 298.213 l 1
 71.4268 285.413 l 1
 82.5195 285.413 l 1
 93.6133 285.413 l 1
 93.6133 276.026 l 1
 93.6133 266.64 l 1
 82.5195 266.64 l 1
 71.4268 266.64 l 1
 71.4268 253.84 l 1
 71.4268 241.04 l 1
 82.5195 241.04 l 1
 93.6133 241.04 l 1
 93.6133 231.653 l 1
 93.6133 222.267 l 1
 82.5195 222.267 l 1
 71.4268 222.267 l 1
 71.4268 209.467 l 1
 71.4268 196.667 l 1
 82.5195 196.667 l 1
 93.6133 196.667 l 1
 93.6133 187.28 l 1
 93.6133 177.894 l 1
 82.5195 177.894 l 1
 71.4268 177.894 l 1
 71.4268 165.094 l 1
 71.4268 152.293 l 1
 82.5195 152.293 l 1
 93.6133 152.293 l 1
 93.6133 142.906 l 1
 93.6133 133.52 l 1
 82.5195 133.52 l 1
 71.4268 133.52 l 1
 71.4268 120.72 l 1
 71.4268 107.92 l 1
 82.5195 107.92 l 1
 93.6133 107.92 l 1
 93.6133 98.5332 l 1
 93.6133 89.1465 l 1
 82.5195 89.1465 l 1
 71.4268 89.1465 l 1
 71.4268 76.3467 l 1
 71.4268 63.5469 l 1
 82.5195 63.5469 l 1
 93.6133 63.5469 l 1
 93.6133 54.1602 l 1
 93.6133 44.7734 l 1
 82.5195 44.7734 l 1
 71.4268 44.7734 l 1
 71.4268 31.9736 l 1
 71.4268 19.1738 l 1
 82.5195 19.1738 l 1
 93.6133 19.1738 l 1
 93.6133 8.93359 l 1
 93.6133 -1.30664 l 1
 82.5195 -1.30664 l 1
 71.4268 -1.30664 l 1
 71.4268 -13.2529 l 1
 71.4268 -25.2002 l 1
 82.5195 -25.2002 l 1
 93.6133 -25.2002 l 1
 93.6133 -35.4404 l 1
 93.6133 -45.6797 l 1
 82.5195 -45.6797 l 1
 71.4268 -45.6797 l 1
 71.4268 -57.627 l 1
 71.4268 -69.5732 l 1
 117.678 -69.5732 l 1
 163.928 -69.5732 l 1
 163.331 -58.4805 l 1
 162.733 -47.3867 l 1
 172.547 -47.3867 l 1
 182.36 -47.3867 l 1
 182.36 -58.4805 l 1
 182.36 -69.5732 l 1
 195.16 -69.5732 l 1
 207.96 -69.5732 l 1
 207.96 -58.4805 l 1
 207.96 -47.3867 l 1
 217.347 -47.3867 l 1
 226.733 -47.3867 l 1
 226.733 -58.4805 l 1
 226.733 -69.5732 l 1
 261.72 -69.5732 l 1
 296.707 -69.5732 l 1
 296.707 -58.4805 l 1
 296.707 -47.3867 l 1
 306.094 -47.3867 l 1
 315.48 -47.3867 l 1
 315.48 -58.4805 l 1
 315.48 -69.5732 l 1
 372.653 -69.5732 l 1
 429.827 -69.5732 l 1
 429.827 -58.4805 l 1
 429.827 -47.3867 l 1
 440.066 -47.3867 l 1
 450.307 -47.3867 l 1
 450.307 -58.4805 l 1
 450.307 -69.5732 l 1
 484.44 -69.5732 l 1
 518.573 -69.5732 l 1
 518.573 -46.5332 l 1
 518.573 -23.4932 l 1
 507.48 -23.4932 l 1
 496.387 -23.4932 l 1
 496.387 -13.2529 l 1
 496.387 -3.01367 l 1
 507.48 -3.01367 l 1
 518.573 -3.01367 l 1
 518.573 76.3467 l 1
 518.573 155.707 l 1
 507.48 155.707 l 1
 496.387 155.707 l 1
 496.387 165.094 l 1
 496.387 174.48 l 1
 507.48 174.48 l 1
 518.573 174.48 l 1
 518.573 209.467 l 1
 518.573 244.453 l 1
 507.48 244.453 l 1
 496.387 244.453 l 1
 496.387 253.84 l 1
 496.387 263.227 l 1
 507.48 263.227 l 1
 518.573 263.227 l 1
 518.573 276.026 l 1
 518.573 288.827 l 1
 507.48 288.827 l 1
 496.387 288.827 l 1
 496.387 299.066 l 1
 496.387 309.307 l 1
 507.48 309.307 l 1
 518.573 309.307 l 1
 518.573 343.44 l 1
 518.573 377.573 l 1
 495.533 377.573 l 1
 472.493 377.573 l 1
 472.493 366.48 l 1
 472.493 355.387 l 1
 462.253 355.387 l 1
 452.014 355.387 l 1
 452.014 366.48 l 1
 452.014 377.573 l 1
 439.043 377.573 l 1
 426.072 377.573 l 1
 426.669 366.48 l 1
 427.267 355.387 l 1
 417.453 355.387 l 1
 407.64 355.387 l 1
 407.64 366.48 l 1
 407.64 377.573 l 1
 261.72 377.573 l 1
 115.8 377.573 l 1
 115.8 366.48 l 1
 115.8 355.387 l 1
 105.56 355.387 l 1
 95.3203 355.387 l 1
 95.3203 366.48 l 1
EndSplineSet
Validated: 524289
EndChar

StartChar: uni3080
Encoding: 12416 12416 18
Width: 589
VWidth: 0
Flags: HW
LayerCount: 2
Back
Fore
SplineSet
39 154 m 1
 39 410 l 1
 295 410 l 1
 551 410 l 1
 551 154 l 1
 551 -102 l 1
 295 -102 l 1
 39 -102 l 1
 39 154 l 1
95.3203 366.48 m 1
 95.3203 377.573 l 1
 83.373 377.573 l 1
 71.4268 377.573 l 1
 71.4268 354.533 l 1
 71.4268 331.493 l 1
 82.5195 331.493 l 1
 93.6133 331.493 l 1
 93.6133 321.253 l 1
 93.6133 311.014 l 1
 82.5195 311.014 l 1
 71.4268 311.014 l 1
 71.4268 298.213 l 1
 71.4268 285.413 l 1
 82.5195 285.413 l 1
 93.6133 285.413 l 1
 93.6133 276.026 l 1
 93.6133 266.64 l 1
 82.5195 266.64 l 1
 71.4268 266.64 l 1
 71.4268 253.84 l 1
 71.4268 241.04 l 1
 82.5195 241.04 l 1
 93.6133 241.04 l 1
 93.6133 231.653 l 1
 93.6133 222.267 l 1
 82.5195 222.267 l 1
 71.4268 222.267 l 1
 71.4268 165.094 l 1
 71.4268 107.92 l 1
 82.5195 107.92 l 1
 93.6133 107.92 l 1
 93.6133 98.5332 l 1
 93.6133 89.1465 l 1
 82.5195 89.1465 l 1
 71.4268 89.1465 l 1
 71.4268 76.3467 l 1
 71.4268 63.5469 l 1
 82.5195 63.5469 l 1
 93.6133 63.5469 l 1
 93.6133 54.1602 l 1
 93.6133 44.7734 l 1
 82.5195 44.7734 l 1
 71.4268 44.7734 l 1
 71.4268 31.9736 l 1
 71.4268 19.1738 l 1
 82.5195 19.1738 l 1
 93.6133 19.1738 l 1
 93.6133 8.93359 l 1
 93.6133 -1.30664 l 1
 82.5195 -1.30664 l 1
 71.4268 -1.30664 l 1
 71.4268 -13.2529 l 1
 71.4268 -25.2002 l 1
 82.5195 -25.2002 l 1
 93.6133 -25.2002 l 1
 93.6133 -35.4404 l 1
 93.6133 -45.6797 l 1
 82.5195 -45.6797 l 1
 71.4268 -45.6797 l 1
 71.4268 -57.627 l 1
 71.4268 -69.5732 l 1
 117.678 -69.5732 l 1
 163.928 -69.5732 l 1
 163.331 -58.4805 l 1
 162.733 -47.3867 l 1
 172.547 -47.3867 l 1
 182.36 -47.3867 l 1
 182.36 -58.4805 l 1
 182.36 -69.5732 l 1
 195.16 -69.5732 l 1
 207.96 -69.5732 l 1
 207.96 -58.4805 l 1
 207.96 -47.3867 l 1
 217.347 -47.3867 l 1
 226.733 -47.3867 l 1
 226.733 -58.4805 l 1
 226.733 -69.5732 l 1
 239.533 -69.5732 l 1
 252.333 -69.5732 l 1
 252.333 -58.4805 l 1
 252.333 -47.3867 l 1
 261.72 -47.3867 l 1
 271.106 -47.3867 l 1
 271.106 -58.4805 l 1
 271.106 -69.5732 l 1
 350.467 -69.5732 l 1
 429.827 -69.5732 l 1
 429.827 -58.4805 l 1
 429.827 -47.3867 l 1
 440.066 -47.3867 l 1
 450.307 -47.3867 l 1
 450.307 -58.4805 l 1
 450.307 -69.5732 l 1
 484.44 -69.5732 l 1
 518.573 -69.5732 l 1
 518.573 -46.5332 l 1
 518.573 -23.4932 l 1
 507.48 -23.4932 l 1
 496.387 -23.4932 l 1
 496.387 -13.2529 l 1
 496.387 -3.01367 l 1
 507.48 -3.01367 l 1
 518.573 -3.01367 l 1
 518.573 54.1602 l 1
 518.573 111.333 l 1
 507.48 111.333 l 1
 496.387 111.333 l 1
 496.387 120.72 l 1
 496.387 130.106 l 1
 507.48 130.106 l 1
 518.573 130.106 l 1
 518.573 187.28 l 1
 518.573 244.453 l 1
 507.48 244.453 l 1
 496.387 244.453 l 1
 496.387 253.84 l 1
 496.387 263.227 l 1
 507.48 263.227 l 1
 518.573 263.227 l 1
 518.573 276.026 l 1
 518.573 288.827 l 1
 507.48 288.827 l 1
 496.387 288.827 l 1
 496.387 299.066 l 1
 496.387 309.307 l 1
 507.48 309.307 l 1
 518.573 309.307 l 1
 518.573 343.44 l 1
 518.573 377.573 l 1
 495.533 377.573 l 1
 472.493 377.573 l 1
 472.493 366.48 l 1
 472.493 355.387 l 1
 462.253 355.387 l 1
 452.014 355.387 l 1
 452.014 366.48 l 1
 452.014 377.573 l 1
 439.043 377.573 l 1
 426.072 377.573 l 1
 426.669 366.48 l 1
 427.267 355.387 l 1
 417.453 355.387 l 1
 407.64 355.387 l 1
 407.64 366.48 l 1
 407.64 377.573 l 1
 372.653 377.573 l 1
 337.667 377.573 l 1
 337.667 366.48 l 1
 337.667 355.387 l 1
 328.28 355.387 l 1
 318.894 355.387 l 1
 318.894 366.48 l 1
 318.894 377.573 l 1
 306.094 377.573 l 1
 293.293 377.573 l 1
 293.293 366.48 l 1
 293.293 355.387 l 1
 283.906 355.387 l 1
 274.52 355.387 l 1
 274.52 366.48 l 1
 274.52 377.573 l 1
 195.16 377.573 l 1
 115.8 377.573 l 1
 115.8 366.48 l 1
 115.8 355.387 l 1
 105.56 355.387 l 1
 95.3203 355.387 l 1
 95.3203 366.48 l 1
EndSplineSet
Validated: 524289
EndChar

StartChar: uni30B1
Encoding: 12465 12465 19
Width: 589
VWidth: 0
Flags: HW
LayerCount: 2
Back
Fore
SplineSet
39 154 m 1
 39 410 l 1
 295 410 l 1
 551 410 l 1
 551 154 l 1
 551 -102 l 1
 295 -102 l 1
 39 -102 l 1
 39 154 l 1
95.3203 366.48 m 1
 95.3203 377.573 l 1
 83.373 377.573 l 1
 71.4268 377.573 l 1
 71.4268 354.533 l 1
 71.4268 331.493 l 1
 82.5195 331.493 l 1
 93.6133 331.493 l 1
 93.6133 321.253 l 1
 93.6133 311.014 l 1
 82.5195 311.014 l 1
 71.4268 311.014 l 1
 71.4268 298.213 l 1
 71.4268 285.413 l 1
 82.5195 285.413 l 1
 93.6133 285.413 l 1
 93.6133 276.026 l 1
 93.6133 266.64 l 1
 82.5195 266.64 l 1
 71.4268 266.64 l 1
 71.4268 231.653 l 1
 71.4268 196.667 l 1
 82.5195 196.667 l 1
 93.6133 196.667 l 1
 93.6133 187.28 l 1
 93.6133 177.894 l 1
 82.5195 177.894 l 1
 71.4268 177.894 l 1
 71.4268 165.094 l 1
 71.4268 152.293 l 1
 82.5195 152.293 l 1
 93.6133 152.293 l 1
 93.6133 142.906 l 1
 93.6133 133.52 l 1
 82.5195 133.52 l 1
 71.4268 133.52 l 1
 71.4268 120.72 l 1
 71.4268 107.92 l 1
 82.5195 107.92 l 1
 93.6133 107.92 l 1
 93.6133 98.5332 l 1
 93.6133 89.1465 l 1
 82.5195 89.1465 l 1
 71.4268 89.1465 l 1
 71.4268 54.1602 l 1
 71.4268 19.1738 l 1
 82.5195 19.1738 l 1
 93.6133 19.1738 l 1
 93.6133 8.93359 l 1
 93.6133 -1.30664 l 1
 82.5195 -1.30664 l 1
 71.4268 -1.30664 l 1
 71.4268 -13.2529 l 1
 71.4268 -25.2002 l 1
 82.5195 -25.2002 l 1
 93.6133 -25.2002 l 1
 93.6133 -35.4404 l 1
 93.6133 -45.6797 l 1
 82.5195 -45.6797 l 1
 71.4268 -45.6797 l 1
 71.4268 -57.627 l 1
 71.4268 -69.5732 l 1
 117.678 -69.5732 l 1
 163.928 -69.5732 l 1
 163.331 -58.4805 l 1
 162.733 -47.3867 l 1
 172.547 -47.3867 l 1
 182.36 -47.3867 l 1
 182.36 -58.4805 l 1
 182.36 -69.5732 l 1
 239.533 -69.5732 l 1
 296.707 -69.5732 l 1
 296.707 -58.4805 l 1
 296.707 -47.3867 l 1
 306.094 -47.3867 l 1
 315.48 -47.3867 l 1
 315.48 -58.4805 l 1
 315.48 -69.5732 l 1
 350.467 -69.5732 l 1
 385.453 -69.5732 l 1
 385.453 -58.4805 l 1
 385.453 -47.3867 l 1
 395.267 -47.3867 l 1
 405.08 -47.3867 l 1
 404.482 -58.4805 l 1
 403.886 -69.5732 l 1
 416.856 -69.5732 l 1
 429.827 -69.5732 l 1
 429.827 -58.4805 l 1
 429.827 -47.3867 l 1
 440.066 -47.3867 l 1
 450.307 -47.3867 l 1
 450.307 -58.4805 l 1
 450.307 -69.5732 l 1
 484.44 -69.5732 l 1
 518.573 -69.5732 l 1
 518.573 -46.5332 l 1
 518.573 -23.4932 l 1
 507.48 -23.4932 l 1
 496.387 -23.4932 l 1
 496.387 -13.2529 l 1
 496.387 -3.01367 l 1
 507.48 -3.01367 l 1
 518.573 -3.01367 l 1
 518.573 31.9736 l 1
 518.573 66.96 l 1
 507.48 66.96 l 1
 496.387 66.96 l 1
 496.387 76.3467 l 1
 496.387 85.7334 l 1
 507.48 85.7334 l 1
 518.573 85.7334 l 1
 518.573 120.72 l 1
 518.573 155.707 l 1
 507.48 155.707 l 1
 496.387 155.707 l 1
 496.387 165.094 l 1
 496.387 174.48 l 1
 507.48 174.48 l 1
 518.573 174.48 l 1
 518.573 231.653 l 1
 518.573 288.827 l 1
 507.48 288.827 l 1
 496.387 288.827 l 1
 496.387 299.066 l 1
 496.387 309.307 l 1
 507.48 309.307 l 1
 518.573 309.307 l 1
 518.573 343.44 l 1
 518.573 377.573 l 1
 495.533 377.573 l 1
 472.493 377.573 l 1
 472.493 366.48 l 1
 472.493 355.387 l 1
 462.253 355.387 l 1
 452.014 355.387 l 1
 452.014 366.48 l 1
 452.014 377.573 l 1
 439.043 377.573 l 1
 426.072 377.573 l 1
 426.669 366.48 l 1
 427.267 355.387 l 1
 417.453 355.387 l 1
 407.64 355.387 l 1
 407.64 366.48 l 1
 407.64 377.573 l 1
 394.84 377.573 l 1
 382.04 377.573 l 1
 382.04 366.48 l 1
 382.04 355.387 l 1
 372.653 355.387 l 1
 363.267 355.387 l 1
 363.267 366.48 l 1
 363.267 377.573 l 1
 283.906 377.573 l 1
 204.547 377.573 l 1
 204.547 366.48 l 1
 204.547 355.387 l 1
 194.733 355.387 l 1
 184.92 355.387 l 1
 185.518 366.48 l 1
 186.114 377.573 l 1
 150.957 377.573 l 1
 115.8 377.573 l 1
 115.8 366.48 l 1
 115.8 355.387 l 1
 105.56 355.387 l 1
 95.3203 355.387 l 1
 95.3203 366.48 l 1
EndSplineSet
Validated: 524289
EndChar

StartChar: uni30D4
Encoding: 12500 12500 20
Width: 589
VWidth: 0
Flags: HW
LayerCount: 2
Back
Fore
SplineSet
39 154 m 1
 39 410 l 1
 295 410 l 1
 551 410 l 1
 551 154 l 1
 551 -102 l 1
 295 -102 l 1
 39 -102 l 1
 39 154 l 1
95.3203 366.48 m 1
 95.3203 377.573 l 1
 83.373 377.573 l 1
 71.4268 377.573 l 1
 71.4268 331.493 l 1
 71.4268 285.413 l 1
 82.5195 285.413 l 1
 93.6133 285.413 l 1
 93.6133 276.026 l 1
 93.6133 266.64 l 1
 82.5195 266.64 l 1
 71.4268 266.64 l 1
 71.4268 253.84 l 1
 71.4268 241.04 l 1
 82.5195 241.04 l 1
 93.6133 241.04 l 1
 93.6133 231.653 l 1
 93.6133 222.267 l 1
 82.5195 222.267 l 1
 71.4268 222.267 l 1
 71.4268 209.467 l 1
 71.4268 196.667 l 1
 82.5195 196.667 l 1
 93.6133 196.667 l 1
 93.6133 187.28 l 1
 93.6133 177.894 l 1
 82.5195 177.894 l 1
 71.4268 177.894 l 1
 71.4268 165.094 l 1
 71.4268 152.293 l 1
 82.5195 152.293 l 1
 93.6133 152.293 l 1
 93.6133 142.906 l 1
 93.6133 133.52 l 1
 82.5195 133.52 l 1
 71.4268 133.52 l 1
 71.4268 98.5332 l 1
 71.4268 63.5469 l 1
 82.5195 63.5469 l 1
 93.6133 63.5469 l 1
 93.6133 54.1602 l 1
 93.6133 44.7734 l 1
 82.5195 44.7734 l 1
 71.4268 44.7734 l 1
 71.4268 9.78711 l 1
 71.4268 -25.2002 l 1
 82.5195 -25.2002 l 1
 93.6133 -25.2002 l 1
 93.6133 -35.4404 l 1
 93.6133 -45.6797 l 1
 82.5195 -45.6797 l 1
 71.4268 -45.6797 l 1
 71.4268 -57.627 l 1
 71.4268 -69.5732 l 1
 94.4668 -69.5732 l 1
 117.507 -69.5732 l 1
 117.507 -58.4805 l 1
 117.507 -47.3867 l 1
 127.747 -47.3867 l 1
 137.986 -47.3867 l 1
 137.986 -58.4805 l 1
 137.986 -69.5732 l 1
 150.957 -69.5732 l 1
 163.928 -69.5732 l 1
 163.331 -58.4805 l 1
 162.733 -47.3867 l 1
 172.547 -47.3867 l 1
 182.36 -47.3867 l 1
 182.36 -58.4805 l 1
 182.36 -69.5732 l 1
 195.16 -69.5732 l 1
 207.96 -69.5732 l 1
 207.96 -58.4805 l 1
 207.96 -47.3867 l 1
 217.347 -47.3867 l 1
 226.733 -47.3867 l 1
 226.733 -58.4805 l 1
 226.733 -69.5732 l 1
 261.72 -69.5732 l 1
 296.707 -69.5732 l 1
 296.707 -58.4805 l 1
 296.707 -47.3867 l 1
 306.094 -47.3867 l 1
 315.48 -47.3867 l 1
 315.48 -58.4805 l 1
 315.48 -69.5732 l 1
 328.28 -69.5732 l 1
 341.08 -69.5732 l 1
 341.08 -58.4805 l 1
 341.08 -47.3867 l 1
 350.467 -47.3867 l 1
 359.854 -47.3867 l 1
 359.854 -58.4805 l 1
 359.854 -69.5732 l 1
 439.213 -69.5732 l 1
 518.573 -69.5732 l 1
 518.573 43.0664 l 1
 518.573 155.707 l 1
 507.48 155.707 l 1
 496.387 155.707 l 1
 496.387 165.094 l 1
 496.387 174.48 l 1
 507.48 174.48 l 1
 518.573 174.48 l 1
 518.573 187.28 l 1
 518.573 200.08 l 1
 507.48 200.08 l 1
 496.387 200.08 l 1
 496.387 209.467 l 1
 496.387 218.854 l 1
 507.48 218.854 l 1
 518.573 218.854 l 1
 518.573 231.653 l 1
 518.573 244.453 l 1
 507.48 244.453 l 1
 496.387 244.453 l 1
 496.387 253.84 l 1
 496.387 263.227 l 1
 507.48 263.227 l 1
 518.573 263.227 l 1
 518.573 320.4 l 1
 518.573 377.573 l 1
 472.322 377.573 l 1
 426.072 377.573 l 1
 426.669 366.48 l 1
 427.267 355.387 l 1
 417.453 355.387 l 1
 407.64 355.387 l 1
 407.64 366.48 l 1
 407.64 377.573 l 1
 328.28 377.573 l 1
 248.92 377.573 l 1
 248.92 366.48 l 1
 248.92 355.387 l 1
 239.533 355.387 l 1
 230.146 355.387 l 1
 230.146 366.48 l 1
 230.146 377.573 l 1
 195.16 377.573 l 1
 160.174 377.573 l 1
 160.174 366.48 l 1
 160.174 355.387 l 1
 149.934 355.387 l 1
 139.693 355.387 l 1
 139.693 366.48 l 1
 139.693 377.573 l 1
 127.747 377.573 l 1
 115.8 377.573 l 1
 115.8 366.48 l 1
 115.8 355.387 l 1
 105.56 355.387 l 1
 95.3203 355.387 l 1
 95.3203 366.48 l 1
EndSplineSet
Validated: 524289
EndChar

StartChar: uni30DC
Encoding: 12508 12508 21
Width: 589
VWidth: 0
Flags: HW
LayerCount: 2
Back
Fore
SplineSet
39 154 m 1
 39 410 l 1
 295 410 l 1
 551 410 l 1
 551 154 l 1
 551 -102 l 1
 295 -102 l 1
 39 -102 l 1
 39 154 l 1
95.3203 366.48 m 1
 95.3203 377.573 l 1
 83.373 377.573 l 1
 71.4268 377.573 l 1
 71.4268 331.493 l 1
 71.4268 285.413 l 1
 82.5195 285.413 l 1
 93.6133 285.413 l 1
 93.6133 276.026 l 1
 93.6133 266.64 l 1
 82.5195 266.64 l 1
 71.4268 266.64 l 1
 71.4268 253.84 l 1
 71.4268 241.04 l 1
 82.5195 241.04 l 1
 93.6133 241.04 l 1
 93.6133 231.653 l 1
 93.6133 222.267 l 1
 82.5195 222.267 l 1
 71.4268 222.267 l 1
 71.4268 187.28 l 1
 71.4268 152.293 l 1
 82.5195 152.293 l 1
 93.6133 152.293 l 1
 93.6133 142.906 l 1
 93.6133 133.52 l 1
 82.5195 133.52 l 1
 71.4268 133.52 l 1
 71.4268 98.5332 l 1
 71.4268 63.5469 l 1
 82.5195 63.5469 l 1
 93.6133 63.5469 l 1
 93.6133 54.1602 l 1
 93.6133 44.7734 l 1
 82.5195 44.7734 l 1
 71.4268 44.7734 l 1
 71.4268 9.78711 l 1
 71.4268 -25.2002 l 1
 82.5195 -25.2002 l 1
 93.6133 -25.2002 l 1
 93.6133 -35.4404 l 1
 93.6133 -45.6797 l 1
 82.5195 -45.6797 l 1
 71.4268 -45.6797 l 1
 71.4268 -57.627 l 1
 71.4268 -69.5732 l 1
 94.4668 -69.5732 l 1
 117.507 -69.5732 l 1
 117.507 -58.4805 l 1
 117.507 -47.3867 l 1
 127.747 -47.3867 l 1
 137.986 -47.3867 l 1
 137.986 -58.4805 l 1
 137.986 -69.5732 l 1
 150.957 -69.5732 l 1
 163.928 -69.5732 l 1
 163.331 -58.4805 l 1
 162.733 -47.3867 l 1
 172.547 -47.3867 l 1
 182.36 -47.3867 l 1
 182.36 -58.4805 l 1
 182.36 -69.5732 l 1
 195.16 -69.5732 l 1
 207.96 -69.5732 l 1
 207.96 -58.4805 l 1
 207.96 -47.3867 l 1
 217.347 -47.3867 l 1
 226.733 -47.3867 l 1
 226.733 -58.4805 l 1
 226.733 -69.5732 l 1
 239.533 -69.5732 l 1
 252.333 -69.5732 l 1
 252.333 -58.4805 l 1
 252.333 -47.3867 l 1
 261.72 -47.3867 l 1
 271.106 -47.3867 l 1
 271.106 -58.4805 l 1
 271.106 -69.5732 l 1
 283.906 -69.5732 l 1
 296.707 -69.5732 l 1
 296.707 -58.4805 l 1
 296.707 -47.3867 l 1
 306.094 -47.3867 l 1
 315.48 -47.3867 l 1
 315.48 -58.4805 l 1
 315.48 -69.5732 l 1
 328.28 -69.5732 l 1
 341.08 -69.5732 l 1
 341.08 -58.4805 l 1
 341.08 -47.3867 l 1
 350.467 -47.3867 l 1
 359.854 -47.3867 l 1
 359.854 -58.4805 l 1
 359.854 -69.5732 l 1
 439.213 -69.5732 l 1
 518.573 -69.5732 l 1
 518.573 20.8799 l 1
 518.573 111.333 l 1
 507.48 111.333 l 1
 496.387 111.333 l 1
 496.387 120.72 l 1
 496.387 130.106 l 1
 507.48 130.106 l 1
 518.573 130.106 l 1
 518.573 142.906 l 1
 518.573 155.707 l 1
 507.48 155.707 l 1
 496.387 155.707 l 1
 496.387 165.094 l 1
 496.387 174.48 l 1
 507.48 174.48 l 1
 518.573 174.48 l 1
 518.573 187.28 l 1
 518.573 200.08 l 1
 507.48 200.08 l 1
 496.387 200.08 l 1
 496.387 209.467 l 1
 496.387 218.854 l 1
 507.48 218.854 l 1
 518.573 218.854 l 1
 518.573 231.653 l 1
 518.573 244.453 l 1
 507.48 244.453 l 1
 496.387 244.453 l 1
 496.387 253.84 l 1
 496.387 263.227 l 1
 507.48 263.227 l 1
 518.573 263.227 l 1
 518.573 320.4 l 1
 518.573 377.573 l 1
 472.322 377.573 l 1
 426.072 377.573 l 1
 426.669 366.48 l 1
 427.267 355.387 l 1
 417.453 355.387 l 1
 407.64 355.387 l 1
 407.64 366.48 l 1
 407.64 377.573 l 1
 372.653 377.573 l 1
 337.667 377.573 l 1
 337.667 366.48 l 1
 337.667 355.387 l 1
 328.28 355.387 l 1
 318.894 355.387 l 1
 318.894 366.48 l 1
 318.894 377.573 l 1
 283.906 377.573 l 1
 248.92 377.573 l 1
 248.92 366.48 l 1
 248.92 355.387 l 1
 239.533 355.387 l 1
 230.146 355.387 l 1
 230.146 366.48 l 1
 230.146 377.573 l 1
 195.16 377.573 l 1
 160.174 377.573 l 1
 160.174 366.48 l 1
 160.174 355.387 l 1
 149.934 355.387 l 1
 139.693 355.387 l 1
 139.693 366.48 l 1
 139.693 377.573 l 1
 127.747 377.573 l 1
 115.8 377.573 l 1
 115.8 366.48 l 1
 115.8 355.387 l 1
 105.56 355.387 l 1
 95.3203 355.387 l 1
 95.3203 366.48 l 1
EndSplineSet
Validated: 524289
EndChar

StartChar: uni3052
Encoding: 12370 12370 22
Width: 589
VWidth: 0
Flags: HW
HStem: -102 54.6133<341.08 359.854 429.827 450.307> -102 32.4268<71.4268 341.08 359.854 429.827 450.307 518.573> -45.6797 20.4795<71.4268 93.6133> -23.4932 20.4795<496.387 518.573> -1.30664 20.4805<71.4268 93.6133> 22.5869 18.7734<496.387 518.573> 44.7734 18.7734<71.4268 93.6133> 66.96 18.7734<496.387 518.573> 177.894 18.7734<71.4268 93.6133> 200.08 18.7734<496.387 518.573> 244.453 18.7734<496.387 518.573> 288.827 20.4795<496.387 518.573> 311.014 20.4795<71.4268 93.6133> 355.387 54.6133<95.3203 115.8 230.146 248.92 274.52 293.293 363.267 382.04 452.014 472.493> 377.573 32.4268<71.4268 95.3203 115.8 230.146 248.92 274.52 293.293 363.267 382.04 452.014 472.493 518.573>
VStem: 39 54.6133<-45.6797 -25.2002 -1.30664 19.1738 44.7734 63.5469 177.894 196.667 311.014 331.493> 39 32.4268<-69.5732 -45.6797 -25.2002 -1.30664 19.1738 44.7734 63.5469 177.894 196.667 311.014 331.493 377.573> 95.3203 20.4795<355.387 377.573> 230.146 18.7734<355.387 377.573> 274.52 18.7734<355.387 377.573> 341.08 18.7734<-69.5732 -47.3867> 363.267 18.7734<355.387 377.573> 429.827 20.4795<-69.5732 -47.3867> 452.014 20.4795<355.387 377.573> 496.387 54.6133<-23.4932 -3.01367 22.5869 41.3604 66.96 85.7334 200.08 218.854 244.453 263.227 288.827 309.307> 518.573 32.4268<-69.5732 -23.4932 -3.01367 22.5869 41.3604 66.96 85.7334 200.08 218.854 244.453 263.227 288.827 309.307 377.573>
LayerCount: 2
Back
Fore
SplineSet
39 154 m 1x7ffaff40
 39 410 l 1
 295 410 l 1
 551 410 l 1
 551 154 l 1
 551 -102 l 1
 295 -102 l 1
 39 -102 l 1
 39 154 l 1x7ffaff40
95.3203 366.48 m 1
 95.3203 377.573 l 1
 83.373 377.573 l 1
 71.4268 377.573 l 1
 71.4268 354.533 l 1
 71.4268 331.493 l 1x3ffaff40
 82.5195 331.493 l 1
 93.6133 331.493 l 1
 93.6133 321.253 l 1
 93.6133 311.014 l 1x3ffb7f
 82.5195 311.014 l 1
 71.4268 311.014 l 1
 71.4268 253.84 l 1
 71.4268 196.667 l 1x3ffaff
 82.5195 196.667 l 1
 93.6133 196.667 l 1
 93.6133 187.28 l 1
 93.6133 177.894 l 1x3ffb7f
 82.5195 177.894 l 1
 71.4268 177.894 l 1
 71.4268 120.72 l 1
 71.4268 63.5469 l 1x3ffaff
 82.5195 63.5469 l 1
 93.6133 63.5469 l 1
 93.6133 54.1602 l 1
 93.6133 44.7734 l 1x3ffb7f
 82.5195 44.7734 l 1
 71.4268 44.7734 l 1
 71.4268 31.9736 l 1
 71.4268 19.1738 l 1x3ffaff
 82.5195 19.1738 l 1
 93.6133 19.1738 l 1
 93.6133 8.93359 l 1
 93.6133 -1.30664 l 1x3ffb7f
 82.5195 -1.30664 l 1
 71.4268 -1.30664 l 1
 71.4268 -13.2529 l 1
 71.4268 -25.2002 l 1x3ffaff
 82.5195 -25.2002 l 1
 93.6133 -25.2002 l 1
 93.6133 -35.4404 l 1
 93.6133 -45.6797 l 1x3ffb7f
 82.5195 -45.6797 l 1
 71.4268 -45.6797 l 1
 71.4268 -57.627 l 1
 71.4268 -69.5732 l 1
 206.253 -69.5732 l 1
 341.08 -69.5732 l 1x7ffaff
 341.08 -58.4805 l 1
 341.08 -47.3867 l 1
 350.467 -47.3867 l 1
 359.854 -47.3867 l 1xbff8ff
 359.854 -58.4805 l 1
 359.854 -69.5732 l 1
 394.84 -69.5732 l 1
 429.827 -69.5732 l 1x7ff8ff
 429.827 -58.4805 l 1
 429.827 -47.3867 l 1
 440.066 -47.3867 l 1
 450.307 -47.3867 l 1xbff8ff
 450.307 -58.4805 l 1
 450.307 -69.5732 l 1
 484.44 -69.5732 l 1
 518.573 -69.5732 l 1
 518.573 -46.5332 l 1
 518.573 -23.4932 l 1x7ff8ff40
 507.48 -23.4932 l 1
 496.387 -23.4932 l 1
 496.387 -13.2529 l 1
 496.387 -3.01367 l 1x7ff87f80
 507.48 -3.01367 l 1
 518.573 -3.01367 l 1
 518.573 9.78711 l 1
 518.573 22.5869 l 1x7ff87f40
 507.48 22.5869 l 1
 496.387 22.5869 l 1
 496.387 31.9736 l 1
 496.387 41.3604 l 1x7ff87f80
 507.48 41.3604 l 1
 518.573 41.3604 l 1
 518.573 54.1602 l 1
 518.573 66.96 l 1x7ff87f40
 507.48 66.96 l 1
 496.387 66.96 l 1
 496.387 76.3467 l 1
 496.387 85.7334 l 1x7ff87f80
 507.48 85.7334 l 1
 518.573 85.7334 l 1
 518.573 142.906 l 1
 518.573 200.08 l 1x7ff87f40
 507.48 200.08 l 1
 496.387 200.08 l 1
 496.387 209.467 l 1
 496.387 218.854 l 1x7ff87f80
 507.48 218.854 l 1
 518.573 218.854 l 1
 518.573 231.653 l 1
 518.573 244.453 l 1x7ff87f40
 507.48 244.453 l 1
 496.387 244.453 l 1
 496.387 253.84 l 1
 496.387 263.227 l 1x7ff87f80
 507.48 263.227 l 1
 518.573 263.227 l 1
 518.573 276.026 l 1
 518.573 288.827 l 1x7ff87f40
 507.48 288.827 l 1
 496.387 288.827 l 1
 496.387 299.066 l 1
 496.387 309.307 l 1x7ff87f80
 507.48 309.307 l 1
 518.573 309.307 l 1
 518.573 343.44 l 1
 518.573 377.573 l 1
 495.533 377.573 l 1
 472.493 377.573 l 1x7ffa7f40
 472.493 366.48 l 1
 472.493 355.387 l 1
 462.253 355.387 l 1
 452.014 355.387 l 1x3ffc7f40
 452.014 366.48 l 1
 452.014 377.573 l 1
 417.026 377.573 l 1
 382.04 377.573 l 1x3ffa7f40
 382.04 366.48 l 1
 382.04 355.387 l 1
 372.653 355.387 l 1
 363.267 355.387 l 1x3ffc7f40
 363.267 366.48 l 1
 363.267 377.573 l 1
 328.28 377.573 l 1
 293.293 377.573 l 1x3ffa7f40
 293.293 366.48 l 1
 293.293 355.387 l 1
 283.906 355.387 l 1
 274.52 355.387 l 1x3ffc7f40
 274.52 366.48 l 1
 274.52 377.573 l 1
 261.72 377.573 l 1
 248.92 377.573 l 1x3ffa7f40
 248.92 366.48 l 1
 248.92 355.387 l 1
 239.533 355.387 l 1
 230.146 355.387 l 1x3ffc7f40
 230.146 366.48 l 1
 230.146 377.573 l 1
 172.974 377.573 l 1
 115.8 377.573 l 1x3ffa7f40
 115.8 366.48 l 1
 115.8 355.387 l 1
 105.56 355.387 l 1
 95.3203 355.387 l 1x3ffc7f40
 95.3203 366.48 l 1
EndSplineSet
Validated: 524289
EndChar

StartChar: uni3047
Encoding: 12359 12359 23
Width: 589
VWidth: 0
Flags: HW
LayerCount: 2
Back
Fore
SplineSet
39 154 m 1
 39 410 l 1
 295 410 l 1
 551 410 l 1
 551 154 l 1
 551 -102 l 1
 295 -102 l 1
 39 -102 l 1
 39 154 l 1
95.3203 366.48 m 1
 95.3203 377.573 l 1
 83.373 377.573 l 1
 71.4268 377.573 l 1
 71.4268 331.493 l 1
 71.4268 285.413 l 1
 82.5195 285.413 l 1
 93.6133 285.413 l 1
 93.6133 276.026 l 1
 93.6133 266.64 l 1
 82.5195 266.64 l 1
 71.4268 266.64 l 1
 71.4268 253.84 l 1
 71.4268 241.04 l 1
 82.5195 241.04 l 1
 93.6133 241.04 l 1
 93.6133 231.653 l 1
 93.6133 222.267 l 1
 82.5195 222.267 l 1
 71.4268 222.267 l 1
 71.4268 209.467 l 1
 71.4268 196.667 l 1
 82.5195 196.667 l 1
 93.6133 196.667 l 1
 93.6133 187.28 l 1
 93.6133 177.894 l 1
 82.5195 177.894 l 1
 71.4268 177.894 l 1
 71.4268 165.094 l 1
 71.4268 152.293 l 1
 82.5195 152.293 l 1
 93.6133 152.293 l 1
 93.6133 142.906 l 1
 93.6133 133.52 l 1
 82.5195 133.52 l 1
 71.4268 133.52 l 1
 71.4268 98.5332 l 1
 71.4268 63.5469 l 1
 82.5195 63.5469 l 1
 93.6133 63.5469 l 1
 93.6133 54.1602 l 1
 93.6133 44.7734 l 1
 82.5195 44.7734 l 1
 71.4268 44.7734 l 1
 71.4268 31.9736 l 1
 71.4268 19.1738 l 1
 82.5195 19.1738 l 1
 93.6133 19.1738 l 1
 93.6133 8.93359 l 1
 93.6133 -1.30664 l 1
 82.5195 -1.30664 l 1
 71.4268 -1.30664 l 1
 71.4268 -13.2529 l 1
 71.4268 -25.2002 l 1
 82.5195 -25.2002 l 1
 93.6133 -25.2002 l 1
 93.6133 -35.4404 l 1
 93.6133 -45.6797 l 1
 82.5195 -45.6797 l 1
 71.4268 -45.6797 l 1
 71.4268 -57.627 l 1
 71.4268 -69.5732 l 1
 94.4668 -69.5732 l 1
 117.507 -69.5732 l 1
 117.507 -58.4805 l 1
 117.507 -47.3867 l 1
 127.747 -47.3867 l 1
 137.986 -47.3867 l 1
 137.986 -58.4805 l 1
 137.986 -69.5732 l 1
 150.957 -69.5732 l 1
 163.928 -69.5732 l 1
 163.331 -58.4805 l 1
 162.733 -47.3867 l 1
 172.547 -47.3867 l 1
 182.36 -47.3867 l 1
 182.36 -58.4805 l 1
 182.36 -69.5732 l 1
 195.16 -69.5732 l 1
 207.96 -69.5732 l 1
 207.96 -58.4805 l 1
 207.96 -47.3867 l 1
 217.347 -47.3867 l 1
 226.733 -47.3867 l 1
 226.733 -58.4805 l 1
 226.733 -69.5732 l 1
 261.72 -69.5732 l 1
 296.707 -69.5732 l 1
 296.707 -58.4805 l 1
 296.707 -47.3867 l 1
 306.094 -47.3867 l 1
 315.48 -47.3867 l 1
 315.48 -58.4805 l 1
 315.48 -69.5732 l 1
 328.28 -69.5732 l 1
 341.08 -69.5732 l 1
 341.08 -58.4805 l 1
 341.08 -47.3867 l 1
 350.467 -47.3867 l 1
 359.854 -47.3867 l 1
 359.854 -58.4805 l 1
 359.854 -69.5732 l 1
 394.84 -69.5732 l 1
 429.827 -69.5732 l 1
 429.827 -58.4805 l 1
 429.827 -47.3867 l 1
 440.066 -47.3867 l 1
 450.307 -47.3867 l 1
 450.307 -58.4805 l 1
 450.307 -69.5732 l 1
 484.44 -69.5732 l 1
 518.573 -69.5732 l 1
 518.573 43.0664 l 1
 518.573 155.707 l 1
 507.48 155.707 l 1
 496.387 155.707 l 1
 496.387 165.094 l 1
 496.387 174.48 l 1
 507.48 174.48 l 1
 518.573 174.48 l 1
 518.573 187.28 l 1
 518.573 200.08 l 1
 507.48 200.08 l 1
 496.387 200.08 l 1
 496.387 209.467 l 1
 496.387 218.854 l 1
 507.48 218.854 l 1
 518.573 218.854 l 1
 518.573 231.653 l 1
 518.573 244.453 l 1
 507.48 244.453 l 1
 496.387 244.453 l 1
 496.387 253.84 l 1
 496.387 263.227 l 1
 507.48 263.227 l 1
 518.573 263.227 l 1
 518.573 276.026 l 1
 518.573 288.827 l 1
 507.48 288.827 l 1
 496.387 288.827 l 1
 496.387 299.066 l 1
 496.387 309.307 l 1
 507.48 309.307 l 1
 518.573 309.307 l 1
 518.573 343.44 l 1
 518.573 377.573 l 1
 472.322 377.573 l 1
 426.072 377.573 l 1
 426.669 366.48 l 1
 427.267 355.387 l 1
 417.453 355.387 l 1
 407.64 355.387 l 1
 407.64 366.48 l 1
 407.64 377.573 l 1
 328.28 377.573 l 1
 248.92 377.573 l 1
 248.92 366.48 l 1
 248.92 355.387 l 1
 239.533 355.387 l 1
 230.146 355.387 l 1
 230.146 366.48 l 1
 230.146 377.573 l 1
 172.974 377.573 l 1
 115.8 377.573 l 1
 115.8 366.48 l 1
 115.8 355.387 l 1
 105.56 355.387 l 1
 95.3203 355.387 l 1
 95.3203 366.48 l 1
EndSplineSet
Validated: 524289
EndChar

StartChar: uni30DA
Encoding: 12506 12506 24
Width: 589
VWidth: 0
Flags: HW
LayerCount: 2
Back
Fore
SplineSet
39 154 m 1
 39 410 l 1
 295 410 l 1
 551 410 l 1
 551 154 l 1
 551 -102 l 1
 295 -102 l 1
 39 -102 l 1
 39 154 l 1
95.3203 366.48 m 1
 95.3203 377.573 l 1
 83.373 377.573 l 1
 71.4268 377.573 l 1
 71.4268 309.307 l 1
 71.4268 241.04 l 1
 82.5195 241.04 l 1
 93.6133 241.04 l 1
 93.6133 231.653 l 1
 93.6133 222.267 l 1
 82.5195 222.267 l 1
 71.4268 222.267 l 1
 71.4268 187.28 l 1
 71.4268 152.293 l 1
 82.5195 152.293 l 1
 93.6133 152.293 l 1
 93.6133 142.906 l 1
 93.6133 133.52 l 1
 82.5195 133.52 l 1
 71.4268 133.52 l 1
 71.4268 98.5332 l 1
 71.4268 63.5469 l 1
 82.5195 63.5469 l 1
 93.6133 63.5469 l 1
 93.6133 54.1602 l 1
 93.6133 44.7734 l 1
 82.5195 44.7734 l 1
 71.4268 44.7734 l 1
 71.4268 9.78711 l 1
 71.4268 -25.2002 l 1
 82.5195 -25.2002 l 1
 93.6133 -25.2002 l 1
 93.6133 -35.4404 l 1
 93.6133 -45.6797 l 1
 82.5195 -45.6797 l 1
 71.4268 -45.6797 l 1
 71.4268 -57.627 l 1
 71.4268 -69.5732 l 1
 94.4668 -69.5732 l 1
 117.507 -69.5732 l 1
 117.507 -58.4805 l 1
 117.507 -47.3867 l 1
 127.747 -47.3867 l 1
 137.986 -47.3867 l 1
 137.986 -58.4805 l 1
 137.986 -69.5732 l 1
 172.974 -69.5732 l 1
 207.96 -69.5732 l 1
 207.96 -58.4805 l 1
 207.96 -47.3867 l 1
 217.347 -47.3867 l 1
 226.733 -47.3867 l 1
 226.733 -58.4805 l 1
 226.733 -69.5732 l 1
 239.533 -69.5732 l 1
 252.333 -69.5732 l 1
 252.333 -58.4805 l 1
 252.333 -47.3867 l 1
 261.72 -47.3867 l 1
 271.106 -47.3867 l 1
 271.106 -58.4805 l 1
 271.106 -69.5732 l 1
 283.906 -69.5732 l 1
 296.707 -69.5732 l 1
 296.707 -58.4805 l 1
 296.707 -47.3867 l 1
 306.094 -47.3867 l 1
 315.48 -47.3867 l 1
 315.48 -58.4805 l 1
 315.48 -69.5732 l 1
 328.28 -69.5732 l 1
 341.08 -69.5732 l 1
 341.08 -58.4805 l 1
 341.08 -47.3867 l 1
 350.467 -47.3867 l 1
 359.854 -47.3867 l 1
 359.854 -58.4805 l 1
 359.854 -69.5732 l 1
 439.213 -69.5732 l 1
 518.573 -69.5732 l 1
 518.573 -23.4932 l 1
 518.573 22.5869 l 1
 507.48 22.5869 l 1
 496.387 22.5869 l 1
 496.387 31.9736 l 1
 496.387 41.3604 l 1
 507.48 41.3604 l 1
 518.573 41.3604 l 1
 518.573 76.3467 l 1
 518.573 111.333 l 1
 507.48 111.333 l 1
 496.387 111.333 l 1
 496.387 120.72 l 1
 496.387 130.106 l 1
 507.48 130.106 l 1
 518.573 130.106 l 1
 518.573 142.906 l 1
 518.573 155.707 l 1
 507.48 155.707 l 1
 496.387 155.707 l 1
 496.387 165.094 l 1
 496.387 174.48 l 1
 507.48 174.48 l 1
 518.573 174.48 l 1
 518.573 187.28 l 1
 518.573 200.08 l 1
 507.48 200.08 l 1
 496.387 200.08 l 1
 496.387 209.467 l 1
 496.387 218.854 l 1
 507.48 218.854 l 1
 518.573 218.854 l 1
 518.573 231.653 l 1
 518.573 244.453 l 1
 507.48 244.453 l 1
 496.387 244.453 l 1
 496.387 253.84 l 1
 496.387 263.227 l 1
 507.48 263.227 l 1
 518.573 263.227 l 1
 518.573 320.4 l 1
 518.573 377.573 l 1
 428.12 377.573 l 1
 337.667 377.573 l 1
 337.667 366.48 l 1
 337.667 355.387 l 1
 328.28 355.387 l 1
 318.894 355.387 l 1
 318.894 366.48 l 1
 318.894 377.573 l 1
 283.906 377.573 l 1
 248.92 377.573 l 1
 248.92 366.48 l 1
 248.92 355.387 l 1
 239.533 355.387 l 1
 230.146 355.387 l 1
 230.146 366.48 l 1
 230.146 377.573 l 1
 195.16 377.573 l 1
 160.174 377.573 l 1
 160.174 366.48 l 1
 160.174 355.387 l 1
 149.934 355.387 l 1
 139.693 355.387 l 1
 139.693 366.48 l 1
 139.693 377.573 l 1
 127.747 377.573 l 1
 115.8 377.573 l 1
 115.8 366.48 l 1
 115.8 355.387 l 1
 105.56 355.387 l 1
 95.3203 355.387 l 1
 95.3203 366.48 l 1
EndSplineSet
Validated: 524289
EndChar

StartChar: uni30D6
Encoding: 12502 12502 25
Width: 589
VWidth: 0
Flags: HW
LayerCount: 2
Back
Fore
SplineSet
39 154 m 1
 39 410 l 1
 295 410 l 1
 551 410 l 1
 551 154 l 1
 551 -102 l 1
 295 -102 l 1
 39 -102 l 1
 39 154 l 1
95.3203 366.48 m 1
 95.3203 377.573 l 1
 83.373 377.573 l 1
 71.4268 377.573 l 1
 71.4268 264.934 l 1
 71.4268 152.293 l 1
 82.5195 152.293 l 1
 93.6133 152.293 l 1
 93.6133 142.906 l 1
 93.6133 133.52 l 1
 82.5195 133.52 l 1
 71.4268 133.52 l 1
 71.4268 98.5332 l 1
 71.4268 63.5469 l 1
 82.5195 63.5469 l 1
 93.6133 63.5469 l 1
 93.6133 54.1602 l 1
 93.6133 44.7734 l 1
 82.5195 44.7734 l 1
 71.4268 44.7734 l 1
 71.4268 9.78711 l 1
 71.4268 -25.2002 l 1
 82.5195 -25.2002 l 1
 93.6133 -25.2002 l 1
 93.6133 -35.4404 l 1
 93.6133 -45.6797 l 1
 82.5195 -45.6797 l 1
 71.4268 -45.6797 l 1
 71.4268 -57.627 l 1
 71.4268 -69.5732 l 1
 94.4668 -69.5732 l 1
 117.507 -69.5732 l 1
 117.507 -58.4805 l 1
 117.507 -47.3867 l 1
 127.747 -47.3867 l 1
 137.986 -47.3867 l 1
 137.986 -58.4805 l 1
 137.986 -69.5732 l 1
 195.16 -69.5732 l 1
 252.333 -69.5732 l 1
 252.333 -58.4805 l 1
 252.333 -47.3867 l 1
 261.72 -47.3867 l 1
 271.106 -47.3867 l 1
 271.106 -58.4805 l 1
 271.106 -69.5732 l 1
 283.906 -69.5732 l 1
 296.707 -69.5732 l 1
 296.707 -58.4805 l 1
 296.707 -47.3867 l 1
 306.094 -47.3867 l 1
 315.48 -47.3867 l 1
 315.48 -58.4805 l 1
 315.48 -69.5732 l 1
 328.28 -69.5732 l 1
 341.08 -69.5732 l 1
 341.08 -58.4805 l 1
 341.08 -47.3867 l 1
 350.467 -47.3867 l 1
 359.854 -47.3867 l 1
 359.854 -58.4805 l 1
 359.854 -69.5732 l 1
 439.213 -69.5732 l 1
 518.573 -69.5732 l 1
 518.573 -23.4932 l 1
 518.573 22.5869 l 1
 507.48 22.5869 l 1
 496.387 22.5869 l 1
 496.387 31.9736 l 1
 496.387 41.3604 l 1
 507.48 41.3604 l 1
 518.573 41.3604 l 1
 518.573 54.1602 l 1
 518.573 66.96 l 1
 507.48 66.96 l 1
 496.387 66.96 l 1
 496.387 76.3467 l 1
 496.387 85.7334 l 1
 507.48 85.7334 l 1
 518.573 85.7334 l 1
 518.573 98.5332 l 1
 518.573 111.333 l 1
 507.48 111.333 l 1
 496.387 111.333 l 1
 496.387 120.72 l 1
 496.387 130.106 l 1
 507.48 130.106 l 1
 518.573 130.106 l 1
 518.573 142.906 l 1
 518.573 155.707 l 1
 507.48 155.707 l 1
 496.387 155.707 l 1
 496.387 165.094 l 1
 496.387 174.48 l 1
 507.48 174.48 l 1
 518.573 174.48 l 1
 518.573 187.28 l 1
 518.573 200.08 l 1
 507.48 200.08 l 1
 496.387 200.08 l 1
 496.387 209.467 l 1
 496.387 218.854 l 1
 507.48 218.854 l 1
 518.573 218.854 l 1
 518.573 231.653 l 1
 518.573 244.453 l 1
 507.48 244.453 l 1
 496.387 244.453 l 1
 496.387 253.84 l 1
 496.387 263.227 l 1
 507.48 263.227 l 1
 518.573 263.227 l 1
 518.573 320.4 l 1
 518.573 377.573 l 1
 450.307 377.573 l 1
 382.04 377.573 l 1
 382.04 366.48 l 1
 382.04 355.387 l 1
 372.653 355.387 l 1
 363.267 355.387 l 1
 363.267 366.48 l 1
 363.267 377.573 l 1
 350.467 377.573 l 1
 337.667 377.573 l 1
 337.667 366.48 l 1
 337.667 355.387 l 1
 328.28 355.387 l 1
 318.894 355.387 l 1
 318.894 366.48 l 1
 318.894 377.573 l 1
 283.906 377.573 l 1
 248.92 377.573 l 1
 248.92 366.48 l 1
 248.92 355.387 l 1
 239.533 355.387 l 1
 230.146 355.387 l 1
 230.146 366.48 l 1
 230.146 377.573 l 1
 195.16 377.573 l 1
 160.174 377.573 l 1
 160.174 366.48 l 1
 160.174 355.387 l 1
 149.934 355.387 l 1
 139.693 355.387 l 1
 139.693 366.48 l 1
 139.693 377.573 l 1
 127.747 377.573 l 1
 115.8 377.573 l 1
 115.8 366.48 l 1
 115.8 355.387 l 1
 105.56 355.387 l 1
 95.3203 355.387 l 1
 95.3203 366.48 l 1
EndSplineSet
Validated: 524289
EndChar

StartChar: uni30A7
Encoding: 12455 12455 26
Width: 589
VWidth: 0
Flags: HW
LayerCount: 2
Back
Fore
SplineSet
39 154 m 1
 39 410 l 1
 295 410 l 1
 551 410 l 1
 551 154 l 1
 551 -102 l 1
 295 -102 l 1
 39 -102 l 1
 39 154 l 1
95.3203 366.48 m 1
 95.3203 377.573 l 1
 83.373 377.573 l 1
 71.4268 377.573 l 1
 71.4268 354.533 l 1
 71.4268 331.493 l 1
 82.5195 331.493 l 1
 93.6133 331.493 l 1
 93.6133 321.253 l 1
 93.6133 311.014 l 1
 82.5195 311.014 l 1
 71.4268 311.014 l 1
 71.4268 165.094 l 1
 71.4268 19.1738 l 1
 82.5195 19.1738 l 1
 93.6133 19.1738 l 1
 93.6133 8.93359 l 1
 93.6133 -1.30664 l 1
 82.5195 -1.30664 l 1
 71.4268 -1.30664 l 1
 71.4268 -13.2529 l 1
 71.4268 -25.2002 l 1
 82.5195 -25.2002 l 1
 93.6133 -25.2002 l 1
 93.6133 -35.4404 l 1
 93.6133 -45.6797 l 1
 82.5195 -45.6797 l 1
 71.4268 -45.6797 l 1
 71.4268 -57.627 l 1
 71.4268 -69.5732 l 1
 161.88 -69.5732 l 1
 252.333 -69.5732 l 1
 252.333 -58.4805 l 1
 252.333 -47.3867 l 1
 261.72 -47.3867 l 1
 271.106 -47.3867 l 1
 271.106 -58.4805 l 1
 271.106 -69.5732 l 1
 306.094 -69.5732 l 1
 341.08 -69.5732 l 1
 341.08 -58.4805 l 1
 341.08 -47.3867 l 1
 350.467 -47.3867 l 1
 359.854 -47.3867 l 1
 359.854 -58.4805 l 1
 359.854 -69.5732 l 1
 372.653 -69.5732 l 1
 385.453 -69.5732 l 1
 385.453 -58.4805 l 1
 385.453 -47.3867 l 1
 395.267 -47.3867 l 1
 405.08 -47.3867 l 1
 404.482 -58.4805 l 1
 403.886 -69.5732 l 1
 416.856 -69.5732 l 1
 429.827 -69.5732 l 1
 429.827 -58.4805 l 1
 429.827 -47.3867 l 1
 440.066 -47.3867 l 1
 450.307 -47.3867 l 1
 450.307 -58.4805 l 1
 450.307 -69.5732 l 1
 484.44 -69.5732 l 1
 518.573 -69.5732 l 1
 518.573 -46.5332 l 1
 518.573 -23.4932 l 1
 507.48 -23.4932 l 1
 496.387 -23.4932 l 1
 496.387 -13.2529 l 1
 496.387 -3.01367 l 1
 507.48 -3.01367 l 1
 518.573 -3.01367 l 1
 518.573 9.78711 l 1
 518.573 22.5869 l 1
 507.48 22.5869 l 1
 496.387 22.5869 l 1
 496.387 31.9736 l 1
 496.387 41.3604 l 1
 507.48 41.3604 l 1
 518.573 41.3604 l 1
 518.573 54.1602 l 1
 518.573 66.96 l 1
 507.48 66.96 l 1
 496.387 66.96 l 1
 496.387 76.3467 l 1
 496.387 85.7334 l 1
 507.48 85.7334 l 1
 518.573 85.7334 l 1
 518.573 98.5332 l 1
 518.573 111.333 l 1
 507.48 111.333 l 1
 496.387 111.333 l 1
 496.387 120.72 l 1
 496.387 130.106 l 1
 507.48 130.106 l 1
 518.573 130.106 l 1
 518.573 165.094 l 1
 518.573 200.08 l 1
 507.48 200.08 l 1
 496.387 200.08 l 1
 496.387 209.467 l 1
 496.387 218.854 l 1
 507.48 218.854 l 1
 518.573 218.854 l 1
 518.573 253.84 l 1
 518.573 288.827 l 1
 507.48 288.827 l 1
 496.387 288.827 l 1
 496.387 299.066 l 1
 496.387 309.307 l 1
 507.48 309.307 l 1
 518.573 309.307 l 1
 518.573 343.44 l 1
 518.573 377.573 l 1
 495.533 377.573 l 1
 472.493 377.573 l 1
 472.493 366.48 l 1
 472.493 355.387 l 1
 462.253 355.387 l 1
 452.014 355.387 l 1
 452.014 366.48 l 1
 452.014 377.573 l 1
 417.026 377.573 l 1
 382.04 377.573 l 1
 382.04 366.48 l 1
 382.04 355.387 l 1
 372.653 355.387 l 1
 363.267 355.387 l 1
 363.267 366.48 l 1
 363.267 377.573 l 1
 350.467 377.573 l 1
 337.667 377.573 l 1
 337.667 366.48 l 1
 337.667 355.387 l 1
 328.28 355.387 l 1
 318.894 355.387 l 1
 318.894 366.48 l 1
 318.894 377.573 l 1
 306.094 377.573 l 1
 293.293 377.573 l 1
 293.293 366.48 l 1
 293.293 355.387 l 1
 283.906 355.387 l 1
 274.52 355.387 l 1
 274.52 366.48 l 1
 274.52 377.573 l 1
 261.72 377.573 l 1
 248.92 377.573 l 1
 248.92 366.48 l 1
 248.92 355.387 l 1
 239.533 355.387 l 1
 230.146 355.387 l 1
 230.146 366.48 l 1
 230.146 377.573 l 1
 217.347 377.573 l 1
 204.547 377.573 l 1
 204.547 366.48 l 1
 204.547 355.387 l 1
 194.733 355.387 l 1
 184.92 355.387 l 1
 185.518 366.48 l 1
 186.114 377.573 l 1
 150.957 377.573 l 1
 115.8 377.573 l 1
 115.8 366.48 l 1
 115.8 355.387 l 1
 105.56 355.387 l 1
 95.3203 355.387 l 1
 95.3203 366.48 l 1
EndSplineSet
Validated: 524289
EndChar

StartChar: uni3054
Encoding: 12372 12372 27
Width: 589
VWidth: 0
Flags: HW
LayerCount: 2
Back
Fore
SplineSet
39 154 m 1
 39 410 l 1
 295 410 l 1
 551 410 l 1
 551 154 l 1
 551 -102 l 1
 295 -102 l 1
 39 -102 l 1
 39 154 l 1
95.3203 366.48 m 1
 95.3203 377.573 l 1
 83.373 377.573 l 1
 71.4268 377.573 l 1
 71.4268 354.533 l 1
 71.4268 331.493 l 1
 82.5195 331.493 l 1
 93.6133 331.493 l 1
 93.6133 321.253 l 1
 93.6133 311.014 l 1
 82.5195 311.014 l 1
 71.4268 311.014 l 1
 71.4268 298.213 l 1
 71.4268 285.413 l 1
 82.5195 285.413 l 1
 93.6133 285.413 l 1
 93.6133 276.026 l 1
 93.6133 266.64 l 1
 82.5195 266.64 l 1
 71.4268 266.64 l 1
 71.4268 231.653 l 1
 71.4268 196.667 l 1
 82.5195 196.667 l 1
 93.6133 196.667 l 1
 93.6133 187.28 l 1
 93.6133 177.894 l 1
 82.5195 177.894 l 1
 71.4268 177.894 l 1
 71.4268 120.72 l 1
 71.4268 63.5469 l 1
 82.5195 63.5469 l 1
 93.6133 63.5469 l 1
 93.6133 54.1602 l 1
 93.6133 44.7734 l 1
 82.5195 44.7734 l 1
 71.4268 44.7734 l 1
 71.4268 31.9736 l 1
 71.4268 19.1738 l 1
 82.5195 19.1738 l 1
 93.6133 19.1738 l 1
 93.6133 8.93359 l 1
 93.6133 -1.30664 l 1
 82.5195 -1.30664 l 1
 71.4268 -1.30664 l 1
 71.4268 -13.2529 l 1
 71.4268 -25.2002 l 1
 82.5195 -25.2002 l 1
 93.6133 -25.2002 l 1
 93.6133 -35.4404 l 1
 93.6133 -45.6797 l 1
 82.5195 -45.6797 l 1
 71.4268 -45.6797 l 1
 71.4268 -57.627 l 1
 71.4268 -69.5732 l 1
 117.678 -69.5732 l 1
 163.928 -69.5732 l 1
 163.331 -58.4805 l 1
 162.733 -47.3867 l 1
 172.547 -47.3867 l 1
 182.36 -47.3867 l 1
 182.36 -58.4805 l 1
 182.36 -69.5732 l 1
 261.72 -69.5732 l 1
 341.08 -69.5732 l 1
 341.08 -58.4805 l 1
 341.08 -47.3867 l 1
 350.467 -47.3867 l 1
 359.854 -47.3867 l 1
 359.854 -58.4805 l 1
 359.854 -69.5732 l 1
 394.84 -69.5732 l 1
 429.827 -69.5732 l 1
 429.827 -58.4805 l 1
 429.827 -47.3867 l 1
 440.066 -47.3867 l 1
 450.307 -47.3867 l 1
 450.307 -58.4805 l 1
 450.307 -69.5732 l 1
 484.44 -69.5732 l 1
 518.573 -69.5732 l 1
 518.573 -46.5332 l 1
 518.573 -23.4932 l 1
 507.48 -23.4932 l 1
 496.387 -23.4932 l 1
 496.387 -13.2529 l 1
 496.387 -3.01367 l 1
 507.48 -3.01367 l 1
 518.573 -3.01367 l 1
 518.573 31.9736 l 1
 518.573 66.96 l 1
 507.48 66.96 l 1
 496.387 66.96 l 1
 496.387 76.3467 l 1
 496.387 85.7334 l 1
 507.48 85.7334 l 1
 518.573 85.7334 l 1
 518.573 142.906 l 1
 518.573 200.08 l 1
 507.48 200.08 l 1
 496.387 200.08 l 1
 496.387 209.467 l 1
 496.387 218.854 l 1
 507.48 218.854 l 1
 518.573 218.854 l 1
 518.573 231.653 l 1
 518.573 244.453 l 1
 507.48 244.453 l 1
 496.387 244.453 l 1
 496.387 253.84 l 1
 496.387 263.227 l 1
 507.48 263.227 l 1
 518.573 263.227 l 1
 518.573 276.026 l 1
 518.573 288.827 l 1
 507.48 288.827 l 1
 496.387 288.827 l 1
 496.387 299.066 l 1
 496.387 309.307 l 1
 507.48 309.307 l 1
 518.573 309.307 l 1
 518.573 343.44 l 1
 518.573 377.573 l 1
 495.533 377.573 l 1
 472.493 377.573 l 1
 472.493 366.48 l 1
 472.493 355.387 l 1
 462.253 355.387 l 1
 452.014 355.387 l 1
 452.014 366.48 l 1
 452.014 377.573 l 1
 439.043 377.573 l 1
 426.072 377.573 l 1
 426.669 366.48 l 1
 427.267 355.387 l 1
 417.453 355.387 l 1
 407.64 355.387 l 1
 407.64 366.48 l 1
 407.64 377.573 l 1
 394.84 377.573 l 1
 382.04 377.573 l 1
 382.04 366.48 l 1
 382.04 355.387 l 1
 372.653 355.387 l 1
 363.267 355.387 l 1
 363.267 366.48 l 1
 363.267 377.573 l 1
 328.28 377.573 l 1
 293.293 377.573 l 1
 293.293 366.48 l 1
 293.293 355.387 l 1
 283.906 355.387 l 1
 274.52 355.387 l 1
 274.52 366.48 l 1
 274.52 377.573 l 1
 261.72 377.573 l 1
 248.92 377.573 l 1
 248.92 366.48 l 1
 248.92 355.387 l 1
 239.533 355.387 l 1
 230.146 355.387 l 1
 230.146 366.48 l 1
 230.146 377.573 l 1
 172.974 377.573 l 1
 115.8 377.573 l 1
 115.8 366.48 l 1
 115.8 355.387 l 1
 105.56 355.387 l 1
 95.3203 355.387 l 1
 95.3203 366.48 l 1
EndSplineSet
Validated: 524289
EndChar

StartChar: uni304B
Encoding: 12363 12363 28
Width: 589
VWidth: 0
Flags: HW
LayerCount: 2
Back
Fore
SplineSet
39 154 m 1
 39 410 l 1
 295 410 l 1
 551 410 l 1
 551 154 l 1
 551 -102 l 1
 295 -102 l 1
 39 -102 l 1
 39 154 l 1
95.3203 366.48 m 1
 95.3203 377.573 l 1
 83.373 377.573 l 1
 71.4268 377.573 l 1
 71.4268 331.493 l 1
 71.4268 285.413 l 1
 82.5195 285.413 l 1
 93.6133 285.413 l 1
 93.6133 276.026 l 1
 93.6133 266.64 l 1
 82.5195 266.64 l 1
 71.4268 266.64 l 1
 71.4268 209.467 l 1
 71.4268 152.293 l 1
 82.5195 152.293 l 1
 93.6133 152.293 l 1
 93.6133 142.906 l 1
 93.6133 133.52 l 1
 82.5195 133.52 l 1
 71.4268 133.52 l 1
 71.4268 98.5332 l 1
 71.4268 63.5469 l 1
 82.5195 63.5469 l 1
 93.6133 63.5469 l 1
 93.6133 54.1602 l 1
 93.6133 44.7734 l 1
 82.5195 44.7734 l 1
 71.4268 44.7734 l 1
 71.4268 31.9736 l 1
 71.4268 19.1738 l 1
 82.5195 19.1738 l 1
 93.6133 19.1738 l 1
 93.6133 8.93359 l 1
 93.6133 -1.30664 l 1
 82.5195 -1.30664 l 1
 71.4268 -1.30664 l 1
 71.4268 -13.2529 l 1
 71.4268 -25.2002 l 1
 82.5195 -25.2002 l 1
 93.6133 -25.2002 l 1
 93.6133 -35.4404 l 1
 93.6133 -45.6797 l 1
 82.5195 -45.6797 l 1
 71.4268 -45.6797 l 1
 71.4268 -57.627 l 1
 71.4268 -69.5732 l 1
 94.4668 -69.5732 l 1
 117.507 -69.5732 l 1
 117.507 -58.4805 l 1
 117.507 -47.3867 l 1
 127.747 -47.3867 l 1
 137.986 -47.3867 l 1
 137.986 -58.4805 l 1
 137.986 -69.5732 l 1
 150.957 -69.5732 l 1
 163.928 -69.5732 l 1
 163.331 -58.4805 l 1
 162.733 -47.3867 l 1
 172.547 -47.3867 l 1
 182.36 -47.3867 l 1
 182.36 -58.4805 l 1
 182.36 -69.5732 l 1
 217.347 -69.5732 l 1
 252.333 -69.5732 l 1
 252.333 -58.4805 l 1
 252.333 -47.3867 l 1
 261.72 -47.3867 l 1
 271.106 -47.3867 l 1
 271.106 -58.4805 l 1
 271.106 -69.5732 l 1
 283.906 -69.5732 l 1
 296.707 -69.5732 l 1
 296.707 -58.4805 l 1
 296.707 -47.3867 l 1
 306.094 -47.3867 l 1
 315.48 -47.3867 l 1
 315.48 -58.4805 l 1
 315.48 -69.5732 l 1
 328.28 -69.5732 l 1
 341.08 -69.5732 l 1
 341.08 -58.4805 l 1
 341.08 -47.3867 l 1
 350.467 -47.3867 l 1
 359.854 -47.3867 l 1
 359.854 -58.4805 l 1
 359.854 -69.5732 l 1
 394.84 -69.5732 l 1
 429.827 -69.5732 l 1
 429.827 -58.4805 l 1
 429.827 -47.3867 l 1
 440.066 -47.3867 l 1
 450.307 -47.3867 l 1
 450.307 -58.4805 l 1
 450.307 -69.5732 l 1
 484.44 -69.5732 l 1
 518.573 -69.5732 l 1
 518.573 -1.30664 l 1
 518.573 66.96 l 1
 507.48 66.96 l 1
 496.387 66.96 l 1
 496.387 76.3467 l 1
 496.387 85.7334 l 1
 507.48 85.7334 l 1
 518.573 85.7334 l 1
 518.573 98.5332 l 1
 518.573 111.333 l 1
 507.48 111.333 l 1
 496.387 111.333 l 1
 496.387 120.72 l 1
 496.387 130.106 l 1
 507.48 130.106 l 1
 518.573 130.106 l 1
 518.573 142.906 l 1
 518.573 155.707 l 1
 507.48 155.707 l 1
 496.387 155.707 l 1
 496.387 165.094 l 1
 496.387 174.48 l 1
 507.48 174.48 l 1
 518.573 174.48 l 1
 518.573 187.28 l 1
 518.573 200.08 l 1
 507.48 200.08 l 1
 496.387 200.08 l 1
 496.387 209.467 l 1
 496.387 218.854 l 1
 507.48 218.854 l 1
 518.573 218.854 l 1
 518.573 231.653 l 1
 518.573 244.453 l 1
 507.48 244.453 l 1
 496.387 244.453 l 1
 496.387 253.84 l 1
 496.387 263.227 l 1
 507.48 263.227 l 1
 518.573 263.227 l 1
 518.573 276.026 l 1
 518.573 288.827 l 1
 507.48 288.827 l 1
 496.387 288.827 l 1
 496.387 299.066 l 1
 496.387 309.307 l 1
 507.48 309.307 l 1
 518.573 309.307 l 1
 518.573 343.44 l 1
 518.573 377.573 l 1
 472.322 377.573 l 1
 426.072 377.573 l 1
 426.669 366.48 l 1
 427.267 355.387 l 1
 417.453 355.387 l 1
 407.64 355.387 l 1
 407.64 366.48 l 1
 407.64 377.573 l 1
 394.84 377.573 l 1
 382.04 377.573 l 1
 382.04 366.48 l 1
 382.04 355.387 l 1
 372.653 355.387 l 1
 363.267 355.387 l 1
 363.267 366.48 l 1
 363.267 377.573 l 1
 350.467 377.573 l 1
 337.667 377.573 l 1
 337.667 366.48 l 1
 337.667 355.387 l 1
 328.28 355.387 l 1
 318.894 355.387 l 1
 318.894 366.48 l 1
 318.894 377.573 l 1
 283.906 377.573 l 1
 248.92 377.573 l 1
 248.92 366.48 l 1
 248.92 355.387 l 1
 239.533 355.387 l 1
 230.146 355.387 l 1
 230.146 366.48 l 1
 230.146 377.573 l 1
 172.974 377.573 l 1
 115.8 377.573 l 1
 115.8 366.48 l 1
 115.8 355.387 l 1
 105.56 355.387 l 1
 95.3203 355.387 l 1
 95.3203 366.48 l 1
EndSplineSet
Validated: 524289
EndChar

StartChar: uni3042
Encoding: 12354 12354 29
Width: 589
VWidth: 0
Flags: HW
LayerCount: 2
Back
Fore
SplineSet
39 154 m 1
 39 410 l 1
 295 410 l 1
 551 410 l 1
 551 154 l 1
 551 -102 l 1
 295 -102 l 1
 39 -102 l 1
 39 154 l 1
95.3203 366.48 m 1
 95.3203 377.573 l 1
 83.373 377.573 l 1
 71.4268 377.573 l 1
 71.4268 354.533 l 1
 71.4268 331.493 l 1
 82.5195 331.493 l 1
 93.6133 331.493 l 1
 93.6133 321.253 l 1
 93.6133 311.014 l 1
 82.5195 311.014 l 1
 71.4268 311.014 l 1
 71.4268 253.84 l 1
 71.4268 196.667 l 1
 82.5195 196.667 l 1
 93.6133 196.667 l 1
 93.6133 187.28 l 1
 93.6133 177.894 l 1
 82.5195 177.894 l 1
 71.4268 177.894 l 1
 71.4268 165.094 l 1
 71.4268 152.293 l 1
 82.5195 152.293 l 1
 93.6133 152.293 l 1
 93.6133 142.906 l 1
 93.6133 133.52 l 1
 82.5195 133.52 l 1
 71.4268 133.52 l 1
 71.4268 98.5332 l 1
 71.4268 63.5469 l 1
 82.5195 63.5469 l 1
 93.6133 63.5469 l 1
 93.6133 54.1602 l 1
 93.6133 44.7734 l 1
 82.5195 44.7734 l 1
 71.4268 44.7734 l 1
 71.4268 31.9736 l 1
 71.4268 19.1738 l 1
 82.5195 19.1738 l 1
 93.6133 19.1738 l 1
 93.6133 8.93359 l 1
 93.6133 -1.30664 l 1
 82.5195 -1.30664 l 1
 71.4268 -1.30664 l 1
 71.4268 -13.2529 l 1
 71.4268 -25.2002 l 1
 82.5195 -25.2002 l 1
 93.6133 -25.2002 l 1
 93.6133 -35.4404 l 1
 93.6133 -45.6797 l 1
 82.5195 -45.6797 l 1
 71.4268 -45.6797 l 1
 71.4268 -57.627 l 1
 71.4268 -69.5732 l 1
 184.066 -69.5732 l 1
 296.707 -69.5732 l 1
 296.707 -58.4805 l 1
 296.707 -47.3867 l 1
 306.094 -47.3867 l 1
 315.48 -47.3867 l 1
 315.48 -58.4805 l 1
 315.48 -69.5732 l 1
 328.28 -69.5732 l 1
 341.08 -69.5732 l 1
 341.08 -58.4805 l 1
 341.08 -47.3867 l 1
 350.467 -47.3867 l 1
 359.854 -47.3867 l 1
 359.854 -58.4805 l 1
 359.854 -69.5732 l 1
 394.84 -69.5732 l 1
 429.827 -69.5732 l 1
 429.827 -58.4805 l 1
 429.827 -47.3867 l 1
 440.066 -47.3867 l 1
 450.307 -47.3867 l 1
 450.307 -58.4805 l 1
 450.307 -69.5732 l 1
 484.44 -69.5732 l 1
 518.573 -69.5732 l 1
 518.573 -46.5332 l 1
 518.573 -23.4932 l 1
 507.48 -23.4932 l 1
 496.387 -23.4932 l 1
 496.387 -13.2529 l 1
 496.387 -3.01367 l 1
 507.48 -3.01367 l 1
 518.573 -3.01367 l 1
 518.573 9.78711 l 1
 518.573 22.5869 l 1
 507.48 22.5869 l 1
 496.387 22.5869 l 1
 496.387 31.9736 l 1
 496.387 41.3604 l 1
 507.48 41.3604 l 1
 518.573 41.3604 l 1
 518.573 54.1602 l 1
 518.573 66.96 l 1
 507.48 66.96 l 1
 496.387 66.96 l 1
 496.387 76.3467 l 1
 496.387 85.7334 l 1
 507.48 85.7334 l 1
 518.573 85.7334 l 1
 518.573 120.72 l 1
 518.573 155.707 l 1
 507.48 155.707 l 1
 496.387 155.707 l 1
 496.387 165.094 l 1
 496.387 174.48 l 1
 507.48 174.48 l 1
 518.573 174.48 l 1
 518.573 187.28 l 1
 518.573 200.08 l 1
 507.48 200.08 l 1
 496.387 200.08 l 1
 496.387 209.467 l 1
 496.387 218.854 l 1
 507.48 218.854 l 1
 518.573 218.854 l 1
 518.573 231.653 l 1
 518.573 244.453 l 1
 507.48 244.453 l 1
 496.387 244.453 l 1
 496.387 253.84 l 1
 496.387 263.227 l 1
 507.48 263.227 l 1
 518.573 263.227 l 1
 518.573 276.026 l 1
 518.573 288.827 l 1
 507.48 288.827 l 1
 496.387 288.827 l 1
 496.387 299.066 l 1
 496.387 309.307 l 1
 507.48 309.307 l 1
 518.573 309.307 l 1
 518.573 343.44 l 1
 518.573 377.573 l 1
 495.533 377.573 l 1
 472.493 377.573 l 1
 472.493 366.48 l 1
 472.493 355.387 l 1
 462.253 355.387 l 1
 452.014 355.387 l 1
 452.014 366.48 l 1
 452.014 377.573 l 1
 417.026 377.573 l 1
 382.04 377.573 l 1
 382.04 366.48 l 1
 382.04 355.387 l 1
 372.653 355.387 l 1
 363.267 355.387 l 1
 363.267 366.48 l 1
 363.267 377.573 l 1
 306.094 377.573 l 1
 248.92 377.573 l 1
 248.92 366.48 l 1
 248.92 355.387 l 1
 239.533 355.387 l 1
 230.146 355.387 l 1
 230.146 366.48 l 1
 230.146 377.573 l 1
 172.974 377.573 l 1
 115.8 377.573 l 1
 115.8 366.48 l 1
 115.8 355.387 l 1
 105.56 355.387 l 1
 95.3203 355.387 l 1
 95.3203 366.48 l 1
EndSplineSet
Validated: 524289
EndChar

StartChar: uni307E
Encoding: 12414 12414 30
Width: 589
VWidth: 0
Flags: HW
LayerCount: 2
Back
Fore
SplineSet
39 154 m 1
 39 410 l 1
 295 410 l 1
 551 410 l 1
 551 154 l 1
 551 -102 l 1
 295 -102 l 1
 39 -102 l 1
 39 154 l 1
95.3203 366.48 m 1
 95.3203 377.573 l 1
 83.373 377.573 l 1
 71.4268 377.573 l 1
 71.4268 354.533 l 1
 71.4268 331.493 l 1
 82.5195 331.493 l 1
 93.6133 331.493 l 1
 93.6133 321.253 l 1
 93.6133 311.014 l 1
 82.5195 311.014 l 1
 71.4268 311.014 l 1
 71.4268 276.026 l 1
 71.4268 241.04 l 1
 82.5195 241.04 l 1
 93.6133 241.04 l 1
 93.6133 231.653 l 1
 93.6133 222.267 l 1
 82.5195 222.267 l 1
 71.4268 222.267 l 1
 71.4268 165.094 l 1
 71.4268 107.92 l 1
 82.5195 107.92 l 1
 93.6133 107.92 l 1
 93.6133 98.5332 l 1
 93.6133 89.1465 l 1
 82.5195 89.1465 l 1
 71.4268 89.1465 l 1
 71.4268 76.3467 l 1
 71.4268 63.5469 l 1
 82.5195 63.5469 l 1
 93.6133 63.5469 l 1
 93.6133 54.1602 l 1
 93.6133 44.7734 l 1
 82.5195 44.7734 l 1
 71.4268 44.7734 l 1
 71.4268 31.9736 l 1
 71.4268 19.1738 l 1
 82.5195 19.1738 l 1
 93.6133 19.1738 l 1
 93.6133 8.93359 l 1
 93.6133 -1.30664 l 1
 82.5195 -1.30664 l 1
 71.4268 -1.30664 l 1
 71.4268 -13.2529 l 1
 71.4268 -25.2002 l 1
 82.5195 -25.2002 l 1
 93.6133 -25.2002 l 1
 93.6133 -35.4404 l 1
 93.6133 -45.6797 l 1
 82.5195 -45.6797 l 1
 71.4268 -45.6797 l 1
 71.4268 -57.627 l 1
 71.4268 -69.5732 l 1
 139.693 -69.5732 l 1
 207.96 -69.5732 l 1
 207.96 -58.4805 l 1
 207.96 -47.3867 l 1
 217.347 -47.3867 l 1
 226.733 -47.3867 l 1
 226.733 -58.4805 l 1
 226.733 -69.5732 l 1
 239.533 -69.5732 l 1
 252.333 -69.5732 l 1
 252.333 -58.4805 l 1
 252.333 -47.3867 l 1
 261.72 -47.3867 l 1
 271.106 -47.3867 l 1
 271.106 -58.4805 l 1
 271.106 -69.5732 l 1
 350.467 -69.5732 l 1
 429.827 -69.5732 l 1
 429.827 -58.4805 l 1
 429.827 -47.3867 l 1
 440.066 -47.3867 l 1
 450.307 -47.3867 l 1
 450.307 -58.4805 l 1
 450.307 -69.5732 l 1
 484.44 -69.5732 l 1
 518.573 -69.5732 l 1
 518.573 -46.5332 l 1
 518.573 -23.4932 l 1
 507.48 -23.4932 l 1
 496.387 -23.4932 l 1
 496.387 -13.2529 l 1
 496.387 -3.01367 l 1
 507.48 -3.01367 l 1
 518.573 -3.01367 l 1
 518.573 9.78711 l 1
 518.573 22.5869 l 1
 507.48 22.5869 l 1
 496.387 22.5869 l 1
 496.387 31.9736 l 1
 496.387 41.3604 l 1
 507.48 41.3604 l 1
 518.573 41.3604 l 1
 518.573 76.3467 l 1
 518.573 111.333 l 1
 507.48 111.333 l 1
 496.387 111.333 l 1
 496.387 120.72 l 1
 496.387 130.106 l 1
 507.48 130.106 l 1
 518.573 130.106 l 1
 518.573 187.28 l 1
 518.573 244.453 l 1
 507.48 244.453 l 1
 496.387 244.453 l 1
 496.387 253.84 l 1
 496.387 263.227 l 1
 507.48 263.227 l 1
 518.573 263.227 l 1
 518.573 276.026 l 1
 518.573 288.827 l 1
 507.48 288.827 l 1
 496.387 288.827 l 1
 496.387 299.066 l 1
 496.387 309.307 l 1
 507.48 309.307 l 1
 518.573 309.307 l 1
 518.573 343.44 l 1
 518.573 377.573 l 1
 495.533 377.573 l 1
 472.493 377.573 l 1
 472.493 366.48 l 1
 472.493 355.387 l 1
 462.253 355.387 l 1
 452.014 355.387 l 1
 452.014 366.48 l 1
 452.014 377.573 l 1
 394.84 377.573 l 1
 337.667 377.573 l 1
 337.667 366.48 l 1
 337.667 355.387 l 1
 328.28 355.387 l 1
 318.894 355.387 l 1
 318.894 366.48 l 1
 318.894 377.573 l 1
 306.094 377.573 l 1
 293.293 377.573 l 1
 293.293 366.48 l 1
 293.293 355.387 l 1
 283.906 355.387 l 1
 274.52 355.387 l 1
 274.52 366.48 l 1
 274.52 377.573 l 1
 195.16 377.573 l 1
 115.8 377.573 l 1
 115.8 366.48 l 1
 115.8 355.387 l 1
 105.56 355.387 l 1
 95.3203 355.387 l 1
 95.3203 366.48 l 1
EndSplineSet
Validated: 524289
EndChar

StartChar: uni30C9
Encoding: 12489 12489 31
Width: 589
VWidth: 0
Flags: HW
LayerCount: 2
Back
Fore
SplineSet
39 154 m 1
 39 410 l 1
 295 410 l 1
 551 410 l 1
 551 154 l 1
 551 -102 l 1
 295 -102 l 1
 39 -102 l 1
 39 154 l 1
95.3203 366.48 m 1
 95.3203 377.573 l 1
 83.373 377.573 l 1
 71.4268 377.573 l 1
 71.4268 354.533 l 1
 71.4268 331.493 l 1
 82.5195 331.493 l 1
 93.6133 331.493 l 1
 93.6133 321.253 l 1
 93.6133 311.014 l 1
 82.5195 311.014 l 1
 71.4268 311.014 l 1
 71.4268 298.213 l 1
 71.4268 285.413 l 1
 82.5195 285.413 l 1
 93.6133 285.413 l 1
 93.6133 276.026 l 1
 93.6133 266.64 l 1
 82.5195 266.64 l 1
 71.4268 266.64 l 1
 71.4268 187.28 l 1
 71.4268 107.92 l 1
 82.5195 107.92 l 1
 93.6133 107.92 l 1
 93.6133 98.5332 l 1
 93.6133 89.1465 l 1
 82.5195 89.1465 l 1
 71.4268 89.1465 l 1
 71.4268 54.1602 l 1
 71.4268 19.1738 l 1
 82.5195 19.1738 l 1
 93.6133 19.1738 l 1
 93.6133 8.93359 l 1
 93.6133 -1.30664 l 1
 82.5195 -1.30664 l 1
 71.4268 -1.30664 l 1
 71.4268 -13.2529 l 1
 71.4268 -25.2002 l 1
 82.5195 -25.2002 l 1
 93.6133 -25.2002 l 1
 93.6133 -35.4404 l 1
 93.6133 -45.6797 l 1
 82.5195 -45.6797 l 1
 71.4268 -45.6797 l 1
 71.4268 -57.627 l 1
 71.4268 -69.5732 l 1
 117.678 -69.5732 l 1
 163.928 -69.5732 l 1
 163.331 -58.4805 l 1
 162.733 -47.3867 l 1
 172.547 -47.3867 l 1
 182.36 -47.3867 l 1
 182.36 -58.4805 l 1
 182.36 -69.5732 l 1
 217.347 -69.5732 l 1
 252.333 -69.5732 l 1
 252.333 -58.4805 l 1
 252.333 -47.3867 l 1
 261.72 -47.3867 l 1
 271.106 -47.3867 l 1
 271.106 -58.4805 l 1
 271.106 -69.5732 l 1
 328.28 -69.5732 l 1
 385.453 -69.5732 l 1
 385.453 -58.4805 l 1
 385.453 -47.3867 l 1
 395.267 -47.3867 l 1
 405.08 -47.3867 l 1
 404.482 -58.4805 l 1
 403.886 -69.5732 l 1
 416.856 -69.5732 l 1
 429.827 -69.5732 l 1
 429.827 -58.4805 l 1
 429.827 -47.3867 l 1
 440.066 -47.3867 l 1
 450.307 -47.3867 l 1
 450.307 -58.4805 l 1
 450.307 -69.5732 l 1
 484.44 -69.5732 l 1
 518.573 -69.5732 l 1
 518.573 -46.5332 l 1
 518.573 -23.4932 l 1
 507.48 -23.4932 l 1
 496.387 -23.4932 l 1
 496.387 -13.2529 l 1
 496.387 -3.01367 l 1
 507.48 -3.01367 l 1
 518.573 -3.01367 l 1
 518.573 31.9736 l 1
 518.573 66.96 l 1
 507.48 66.96 l 1
 496.387 66.96 l 1
 496.387 76.3467 l 1
 496.387 85.7334 l 1
 507.48 85.7334 l 1
 518.573 85.7334 l 1
 518.573 98.5332 l 1
 518.573 111.333 l 1
 507.48 111.333 l 1
 496.387 111.333 l 1
 496.387 120.72 l 1
 496.387 130.106 l 1
 507.48 130.106 l 1
 518.573 130.106 l 1
 518.573 209.467 l 1
 518.573 288.827 l 1
 507.48 288.827 l 1
 496.387 288.827 l 1
 496.387 299.066 l 1
 496.387 309.307 l 1
 507.48 309.307 l 1
 518.573 309.307 l 1
 518.573 343.44 l 1
 518.573 377.573 l 1
 495.533 377.573 l 1
 472.493 377.573 l 1
 472.493 366.48 l 1
 472.493 355.387 l 1
 462.253 355.387 l 1
 452.014 355.387 l 1
 452.014 366.48 l 1
 452.014 377.573 l 1
 439.043 377.573 l 1
 426.072 377.573 l 1
 426.669 366.48 l 1
 427.267 355.387 l 1
 417.453 355.387 l 1
 407.64 355.387 l 1
 407.64 366.48 l 1
 407.64 377.573 l 1
 394.84 377.573 l 1
 382.04 377.573 l 1
 382.04 366.48 l 1
 382.04 355.387 l 1
 372.653 355.387 l 1
 363.267 355.387 l 1
 363.267 366.48 l 1
 363.267 377.573 l 1
 350.467 377.573 l 1
 337.667 377.573 l 1
 337.667 366.48 l 1
 337.667 355.387 l 1
 328.28 355.387 l 1
 318.894 355.387 l 1
 318.894 366.48 l 1
 318.894 377.573 l 1
 306.094 377.573 l 1
 293.293 377.573 l 1
 293.293 366.48 l 1
 293.293 355.387 l 1
 283.906 355.387 l 1
 274.52 355.387 l 1
 274.52 366.48 l 1
 274.52 377.573 l 1
 239.533 377.573 l 1
 204.547 377.573 l 1
 204.547 366.48 l 1
 204.547 355.387 l 1
 194.733 355.387 l 1
 184.92 355.387 l 1
 185.518 366.48 l 1
 186.114 377.573 l 1
 150.957 377.573 l 1
 115.8 377.573 l 1
 115.8 366.48 l 1
 115.8 355.387 l 1
 105.56 355.387 l 1
 95.3203 355.387 l 1
 95.3203 366.48 l 1
EndSplineSet
Validated: 524289
EndChar

StartChar: uni305D
Encoding: 12381 12381 32
Width: 589
VWidth: 0
Flags: W
HStem: -102 54.6133<117.507 137.986 207.96 226.733 252.333 271.106 341.08 359.854 429.827 450.307> -102 32.4268<71.4268 117.507 137.986 207.96 226.733 252.333 271.106 341.08 359.854 429.827 450.307 518.573> -45.6797 20.4795<71.4268 93.6133> -1.30664 20.4805<71.4268 93.6133> 22.5869 18.7734<496.387 518.573> 44.7734 18.7734<71.4268 93.6133> 111.333 18.7734<496.387 518.573> 200.08 18.7734<496.387 518.573> 222.267 18.7734<71.4268 93.6133> 244.453 18.7734<496.387 518.573> 288.827 20.4795<496.387 518.573> 355.387 54.6133<95.3203 115.8 230.146 248.92 274.52 293.293 318.894 337.667> 377.573 32.4268<71.4268 95.3203 115.8 230.146 248.92 274.52 293.293 318.894 337.667 518.573>
VStem: 39 54.6133<-45.6797 -25.2002 -1.30664 19.1738 44.7734 63.5469 222.267 241.04> 39 32.4268<-69.5732 -45.6797 -25.2002 -1.30664 19.1738 44.7734 63.5469 222.267 241.04 377.573> 95.3203 20.4795<355.387 377.573> 117.507 20.4795<-69.5732 -47.3867> 207.96 18.7734<-69.5732 -47.3867> 230.146 18.7734<355.387 377.573> 252.333 18.7734<-69.5732 -47.3867> 274.52 18.7734<355.387 377.573> 318.894 18.7734<355.387 377.573> 341.08 18.7734<-69.5732 -47.3867> 429.827 20.4795<-69.5732 -47.3867> 496.387 54.6133<22.5869 41.3604 111.333 130.106 200.08 218.854 244.453 263.227 288.827 309.307> 518.573 32.4268<-69.5732 22.5869 41.3604 111.333 130.106 200.08 218.854 244.453 263.227 288.827 309.307 377.573>
LayerCount: 2
Back
Fore
SplineSet
39 154 m 1x7febff40
 39 410 l 1
 295 410 l 1
 551 410 l 1
 551 154 l 1
 551 -102 l 1
 295 -102 l 1
 39 -102 l 1
 39 154 l 1x7febff40
95.3203 366.48 m 1
 95.3203 377.573 l 1
 83.373 377.573 l 1
 71.4268 377.573 l 1
 71.4268 309.307 l 1
 71.4268 241.04 l 1x3febff40
 82.5195 241.04 l 1
 93.6133 241.04 l 1
 93.6133 231.653 l 1
 93.6133 222.267 l 1x3fedff
 82.5195 222.267 l 1
 71.4268 222.267 l 1
 71.4268 142.906 l 1
 71.4268 63.5469 l 1x3febff
 82.5195 63.5469 l 1
 93.6133 63.5469 l 1
 93.6133 54.1602 l 1
 93.6133 44.7734 l 1x3fedff
 82.5195 44.7734 l 1
 71.4268 44.7734 l 1
 71.4268 31.9736 l 1
 71.4268 19.1738 l 1x3febff
 82.5195 19.1738 l 1
 93.6133 19.1738 l 1
 93.6133 8.93359 l 1
 93.6133 -1.30664 l 1x3fedff
 82.5195 -1.30664 l 1
 71.4268 -1.30664 l 1
 71.4268 -13.2529 l 1
 71.4268 -25.2002 l 1x3febff
 82.5195 -25.2002 l 1
 93.6133 -25.2002 l 1
 93.6133 -35.4404 l 1
 93.6133 -45.6797 l 1x3fedff
 82.5195 -45.6797 l 1
 71.4268 -45.6797 l 1
 71.4268 -57.627 l 1
 71.4268 -69.5732 l 1
 94.4668 -69.5732 l 1
 117.507 -69.5732 l 1x7febff
 117.507 -58.4805 l 1
 117.507 -47.3867 l 1
 127.747 -47.3867 l 1
 137.986 -47.3867 l 1xbfe3ff
 137.986 -58.4805 l 1
 137.986 -69.5732 l 1
 172.974 -69.5732 l 1
 207.96 -69.5732 l 1x7fe3ff
 207.96 -58.4805 l 1
 207.96 -47.3867 l 1
 217.347 -47.3867 l 1
 226.733 -47.3867 l 1xbfe3ff
 226.733 -58.4805 l 1
 226.733 -69.5732 l 1
 239.533 -69.5732 l 1
 252.333 -69.5732 l 1x7fe3ff
 252.333 -58.4805 l 1
 252.333 -47.3867 l 1
 261.72 -47.3867 l 1
 271.106 -47.3867 l 1xbfe3ff
 271.106 -58.4805 l 1
 271.106 -69.5732 l 1
 306.094 -69.5732 l 1
 341.08 -69.5732 l 1x7fe3ff
 341.08 -58.4805 l 1
 341.08 -47.3867 l 1
 350.467 -47.3867 l 1
 359.854 -47.3867 l 1xbfe3ff
 359.854 -58.4805 l 1
 359.854 -69.5732 l 1
 394.84 -69.5732 l 1
 429.827 -69.5732 l 1x7fe3ff
 429.827 -58.4805 l 1
 429.827 -47.3867 l 1
 440.066 -47.3867 l 1
 450.307 -47.3867 l 1xbfe3ff
 450.307 -58.4805 l 1
 450.307 -69.5732 l 1
 484.44 -69.5732 l 1
 518.573 -69.5732 l 1
 518.573 -23.4932 l 1
 518.573 22.5869 l 1x7fe3ff40
 507.48 22.5869 l 1
 496.387 22.5869 l 1
 496.387 31.9736 l 1
 496.387 41.3604 l 1x7fe1ff80
 507.48 41.3604 l 1
 518.573 41.3604 l 1
 518.573 76.3467 l 1
 518.573 111.333 l 1x7fe1ff40
 507.48 111.333 l 1
 496.387 111.333 l 1
 496.387 120.72 l 1
 496.387 130.106 l 1x7fe1ff80
 507.48 130.106 l 1
 518.573 130.106 l 1
 518.573 165.094 l 1
 518.573 200.08 l 1x7fe1ff40
 507.48 200.08 l 1
 496.387 200.08 l 1
 496.387 209.467 l 1
 496.387 218.854 l 1x7fe1ff80
 507.48 218.854 l 1
 518.573 218.854 l 1
 518.573 231.653 l 1
 518.573 244.453 l 1x7fe1ff40
 507.48 244.453 l 1
 496.387 244.453 l 1
 496.387 253.84 l 1
 496.387 263.227 l 1x7fe1ff80
 507.48 263.227 l 1
 518.573 263.227 l 1
 518.573 276.026 l 1
 518.573 288.827 l 1x7fe1ff40
 507.48 288.827 l 1
 496.387 288.827 l 1
 496.387 299.066 l 1
 496.387 309.307 l 1x7fe1ff80
 507.48 309.307 l 1
 518.573 309.307 l 1
 518.573 343.44 l 1
 518.573 377.573 l 1
 428.12 377.573 l 1
 337.667 377.573 l 1x7fe9ff40
 337.667 366.48 l 1
 337.667 355.387 l 1
 328.28 355.387 l 1
 318.894 355.387 l 1x3ff1ff40
 318.894 366.48 l 1
 318.894 377.573 l 1
 306.094 377.573 l 1
 293.293 377.573 l 1x3fe9ff40
 293.293 366.48 l 1
 293.293 355.387 l 1
 283.906 355.387 l 1
 274.52 355.387 l 1x3ff1ff40
 274.52 366.48 l 1
 274.52 377.573 l 1
 261.72 377.573 l 1
 248.92 377.573 l 1x3fe9ff40
 248.92 366.48 l 1
 248.92 355.387 l 1
 239.533 355.387 l 1
 230.146 355.387 l 1x3ff1ff40
 230.146 366.48 l 1
 230.146 377.573 l 1
 172.974 377.573 l 1
 115.8 377.573 l 1x3fe9ff40
 115.8 366.48 l 1
 115.8 355.387 l 1
 105.56 355.387 l 1
 95.3203 355.387 l 1x3ff1ff40
 95.3203 366.48 l 1
EndSplineSet
Validated: 524289
EndChar

StartChar: uni30C1
Encoding: 12481 12481 33
Width: 589
VWidth: 0
Flags: HW
LayerCount: 2
Back
Fore
SplineSet
39 154 m 1
 39 410 l 1
 295 410 l 1
 551 410 l 1
 551 154 l 1
 551 -102 l 1
 295 -102 l 1
 39 -102 l 1
 39 154 l 1
95.3203 366.48 m 1
 95.3203 377.573 l 1
 83.373 377.573 l 1
 71.4268 377.573 l 1
 71.4268 354.533 l 1
 71.4268 331.493 l 1
 82.5195 331.493 l 1
 93.6133 331.493 l 1
 93.6133 321.253 l 1
 93.6133 311.014 l 1
 82.5195 311.014 l 1
 71.4268 311.014 l 1
 71.4268 298.213 l 1
 71.4268 285.413 l 1
 82.5195 285.413 l 1
 93.6133 285.413 l 1
 93.6133 276.026 l 1
 93.6133 266.64 l 1
 82.5195 266.64 l 1
 71.4268 266.64 l 1
 71.4268 231.653 l 1
 71.4268 196.667 l 1
 82.5195 196.667 l 1
 93.6133 196.667 l 1
 93.6133 187.28 l 1
 93.6133 177.894 l 1
 82.5195 177.894 l 1
 71.4268 177.894 l 1
 71.4268 142.906 l 1
 71.4268 107.92 l 1
 82.5195 107.92 l 1
 93.6133 107.92 l 1
 93.6133 98.5332 l 1
 93.6133 89.1465 l 1
 82.5195 89.1465 l 1
 71.4268 89.1465 l 1
 71.4268 54.1602 l 1
 71.4268 19.1738 l 1
 82.5195 19.1738 l 1
 93.6133 19.1738 l 1
 93.6133 8.93359 l 1
 93.6133 -1.30664 l 1
 82.5195 -1.30664 l 1
 71.4268 -1.30664 l 1
 71.4268 -13.2529 l 1
 71.4268 -25.2002 l 1
 82.5195 -25.2002 l 1
 93.6133 -25.2002 l 1
 93.6133 -35.4404 l 1
 93.6133 -45.6797 l 1
 82.5195 -45.6797 l 1
 71.4268 -45.6797 l 1
 71.4268 -57.627 l 1
 71.4268 -69.5732 l 1
 117.678 -69.5732 l 1
 163.928 -69.5732 l 1
 163.331 -58.4805 l 1
 162.733 -47.3867 l 1
 172.547 -47.3867 l 1
 182.36 -47.3867 l 1
 182.36 -58.4805 l 1
 182.36 -69.5732 l 1
 283.906 -69.5732 l 1
 385.453 -69.5732 l 1
 385.453 -58.4805 l 1
 385.453 -47.3867 l 1
 395.267 -47.3867 l 1
 405.08 -47.3867 l 1
 404.482 -58.4805 l 1
 403.886 -69.5732 l 1
 416.856 -69.5732 l 1
 429.827 -69.5732 l 1
 429.827 -58.4805 l 1
 429.827 -47.3867 l 1
 440.066 -47.3867 l 1
 450.307 -47.3867 l 1
 450.307 -58.4805 l 1
 450.307 -69.5732 l 1
 484.44 -69.5732 l 1
 518.573 -69.5732 l 1
 518.573 -46.5332 l 1
 518.573 -23.4932 l 1
 507.48 -23.4932 l 1
 496.387 -23.4932 l 1
 496.387 -13.2529 l 1
 496.387 -3.01367 l 1
 507.48 -3.01367 l 1
 518.573 -3.01367 l 1
 518.573 31.9736 l 1
 518.573 66.96 l 1
 507.48 66.96 l 1
 496.387 66.96 l 1
 496.387 76.3467 l 1
 496.387 85.7334 l 1
 507.48 85.7334 l 1
 518.573 85.7334 l 1
 518.573 187.28 l 1
 518.573 288.827 l 1
 507.48 288.827 l 1
 496.387 288.827 l 1
 496.387 299.066 l 1
 496.387 309.307 l 1
 507.48 309.307 l 1
 518.573 309.307 l 1
 518.573 343.44 l 1
 518.573 377.573 l 1
 495.533 377.573 l 1
 472.493 377.573 l 1
 472.493 366.48 l 1
 472.493 355.387 l 1
 462.253 355.387 l 1
 452.014 355.387 l 1
 452.014 366.48 l 1
 452.014 377.573 l 1
 439.043 377.573 l 1
 426.072 377.573 l 1
 426.669 366.48 l 1
 427.267 355.387 l 1
 417.453 355.387 l 1
 407.64 355.387 l 1
 407.64 366.48 l 1
 407.64 377.573 l 1
 394.84 377.573 l 1
 382.04 377.573 l 1
 382.04 366.48 l 1
 382.04 355.387 l 1
 372.653 355.387 l 1
 363.267 355.387 l 1
 363.267 366.48 l 1
 363.267 377.573 l 1
 328.28 377.573 l 1
 293.293 377.573 l 1
 293.293 366.48 l 1
 293.293 355.387 l 1
 283.906 355.387 l 1
 274.52 355.387 l 1
 274.52 366.48 l 1
 274.52 377.573 l 1
 239.533 377.573 l 1
 204.547 377.573 l 1
 204.547 366.48 l 1
 204.547 355.387 l 1
 194.733 355.387 l 1
 184.92 355.387 l 1
 185.518 366.48 l 1
 186.114 377.573 l 1
 150.957 377.573 l 1
 115.8 377.573 l 1
 115.8 366.48 l 1
 115.8 355.387 l 1
 105.56 355.387 l 1
 95.3203 355.387 l 1
 95.3203 366.48 l 1
EndSplineSet
Validated: 524289
EndChar

StartChar: uni304C
Encoding: 12364 12364 34
Width: 589
VWidth: 0
Flags: HW
LayerCount: 2
Back
Fore
SplineSet
39 154 m 1
 39 410 l 1
 295 410 l 1
 551 410 l 1
 551 154 l 1
 551 -102 l 1
 295 -102 l 1
 39 -102 l 1
 39 154 l 1
95.3203 366.48 m 1
 95.3203 377.573 l 1
 83.373 377.573 l 1
 71.4268 377.573 l 1
 71.4268 354.533 l 1
 71.4268 331.493 l 1
 82.5195 331.493 l 1
 93.6133 331.493 l 1
 93.6133 321.253 l 1
 93.6133 311.014 l 1
 82.5195 311.014 l 1
 71.4268 311.014 l 1
 71.4268 298.213 l 1
 71.4268 285.413 l 1
 82.5195 285.413 l 1
 93.6133 285.413 l 1
 93.6133 276.026 l 1
 93.6133 266.64 l 1
 82.5195 266.64 l 1
 71.4268 266.64 l 1
 71.4268 209.467 l 1
 71.4268 152.293 l 1
 82.5195 152.293 l 1
 93.6133 152.293 l 1
 93.6133 142.906 l 1
 93.6133 133.52 l 1
 82.5195 133.52 l 1
 71.4268 133.52 l 1
 71.4268 98.5332 l 1
 71.4268 63.5469 l 1
 82.5195 63.5469 l 1
 93.6133 63.5469 l 1
 93.6133 54.1602 l 1
 93.6133 44.7734 l 1
 82.5195 44.7734 l 1
 71.4268 44.7734 l 1
 71.4268 31.9736 l 1
 71.4268 19.1738 l 1
 82.5195 19.1738 l 1
 93.6133 19.1738 l 1
 93.6133 8.93359 l 1
 93.6133 -1.30664 l 1
 82.5195 -1.30664 l 1
 71.4268 -1.30664 l 1
 71.4268 -13.2529 l 1
 71.4268 -25.2002 l 1
 82.5195 -25.2002 l 1
 93.6133 -25.2002 l 1
 93.6133 -35.4404 l 1
 93.6133 -45.6797 l 1
 82.5195 -45.6797 l 1
 71.4268 -45.6797 l 1
 71.4268 -57.627 l 1
 71.4268 -69.5732 l 1
 117.678 -69.5732 l 1
 163.928 -69.5732 l 1
 163.331 -58.4805 l 1
 162.733 -47.3867 l 1
 172.547 -47.3867 l 1
 182.36 -47.3867 l 1
 182.36 -58.4805 l 1
 182.36 -69.5732 l 1
 217.347 -69.5732 l 1
 252.333 -69.5732 l 1
 252.333 -58.4805 l 1
 252.333 -47.3867 l 1
 261.72 -47.3867 l 1
 271.106 -47.3867 l 1
 271.106 -58.4805 l 1
 271.106 -69.5732 l 1
 283.906 -69.5732 l 1
 296.707 -69.5732 l 1
 296.707 -58.4805 l 1
 296.707 -47.3867 l 1
 306.094 -47.3867 l 1
 315.48 -47.3867 l 1
 315.48 -58.4805 l 1
 315.48 -69.5732 l 1
 328.28 -69.5732 l 1
 341.08 -69.5732 l 1
 341.08 -58.4805 l 1
 341.08 -47.3867 l 1
 350.467 -47.3867 l 1
 359.854 -47.3867 l 1
 359.854 -58.4805 l 1
 359.854 -69.5732 l 1
 394.84 -69.5732 l 1
 429.827 -69.5732 l 1
 429.827 -58.4805 l 1
 429.827 -47.3867 l 1
 440.066 -47.3867 l 1
 450.307 -47.3867 l 1
 450.307 -58.4805 l 1
 450.307 -69.5732 l 1
 484.44 -69.5732 l 1
 518.573 -69.5732 l 1
 518.573 -46.5332 l 1
 518.573 -23.4932 l 1
 507.48 -23.4932 l 1
 496.387 -23.4932 l 1
 496.387 -13.2529 l 1
 496.387 -3.01367 l 1
 507.48 -3.01367 l 1
 518.573 -3.01367 l 1
 518.573 31.9736 l 1
 518.573 66.96 l 1
 507.48 66.96 l 1
 496.387 66.96 l 1
 496.387 76.3467 l 1
 496.387 85.7334 l 1
 507.48 85.7334 l 1
 518.573 85.7334 l 1
 518.573 98.5332 l 1
 518.573 111.333 l 1
 507.48 111.333 l 1
 496.387 111.333 l 1
 496.387 120.72 l 1
 496.387 130.106 l 1
 507.48 130.106 l 1
 518.573 130.106 l 1
 518.573 142.906 l 1
 518.573 155.707 l 1
 507.48 155.707 l 1
 496.387 155.707 l 1
 496.387 165.094 l 1
 496.387 174.48 l 1
 507.48 174.48 l 1
 518.573 174.48 l 1
 518.573 187.28 l 1
 518.573 200.08 l 1
 507.48 200.08 l 1
 496.387 200.08 l 1
 496.387 209.467 l 1
 496.387 218.854 l 1
 507.48 218.854 l 1
 518.573 218.854 l 1
 518.573 231.653 l 1
 518.573 244.453 l 1
 507.48 244.453 l 1
 496.387 244.453 l 1
 496.387 253.84 l 1
 496.387 263.227 l 1
 507.48 263.227 l 1
 518.573 263.227 l 1
 518.573 276.026 l 1
 518.573 288.827 l 1
 507.48 288.827 l 1
 496.387 288.827 l 1
 496.387 299.066 l 1
 496.387 309.307 l 1
 507.48 309.307 l 1
 518.573 309.307 l 1
 518.573 343.44 l 1
 518.573 377.573 l 1
 495.533 377.573 l 1
 472.493 377.573 l 1
 472.493 366.48 l 1
 472.493 355.387 l 1
 462.253 355.387 l 1
 452.014 355.387 l 1
 452.014 366.48 l 1
 452.014 377.573 l 1
 439.043 377.573 l 1
 426.072 377.573 l 1
 426.669 366.48 l 1
 427.267 355.387 l 1
 417.453 355.387 l 1
 407.64 355.387 l 1
 407.64 366.48 l 1
 407.64 377.573 l 1
 394.84 377.573 l 1
 382.04 377.573 l 1
 382.04 366.48 l 1
 382.04 355.387 l 1
 372.653 355.387 l 1
 363.267 355.387 l 1
 363.267 366.48 l 1
 363.267 377.573 l 1
 350.467 377.573 l 1
 337.667 377.573 l 1
 337.667 366.48 l 1
 337.667 355.387 l 1
 328.28 355.387 l 1
 318.894 355.387 l 1
 318.894 366.48 l 1
 318.894 377.573 l 1
 283.906 377.573 l 1
 248.92 377.573 l 1
 248.92 366.48 l 1
 248.92 355.387 l 1
 239.533 355.387 l 1
 230.146 355.387 l 1
 230.146 366.48 l 1
 230.146 377.573 l 1
 172.974 377.573 l 1
 115.8 377.573 l 1
 115.8 366.48 l 1
 115.8 355.387 l 1
 105.56 355.387 l 1
 95.3203 355.387 l 1
 95.3203 366.48 l 1
EndSplineSet
Validated: 524289
EndChar

StartChar: uni307A
Encoding: 12410 12410 35
Width: 589
VWidth: 0
Flags: HW
LayerCount: 2
Back
Fore
SplineSet
39 154 m 1
 39 410 l 1
 295 410 l 1
 551 410 l 1
 551 154 l 1
 551 -102 l 1
 295 -102 l 1
 39 -102 l 1
 39 154 l 1
95.3203 366.48 m 1
 95.3203 377.573 l 1
 83.373 377.573 l 1
 71.4268 377.573 l 1
 71.4268 354.533 l 1
 71.4268 331.493 l 1
 82.5195 331.493 l 1
 93.6133 331.493 l 1
 93.6133 321.253 l 1
 93.6133 311.014 l 1
 82.5195 311.014 l 1
 71.4268 311.014 l 1
 71.4268 209.467 l 1
 71.4268 107.92 l 1
 82.5195 107.92 l 1
 93.6133 107.92 l 1
 93.6133 98.5332 l 1
 93.6133 89.1465 l 1
 82.5195 89.1465 l 1
 71.4268 89.1465 l 1
 71.4268 76.3467 l 1
 71.4268 63.5469 l 1
 82.5195 63.5469 l 1
 93.6133 63.5469 l 1
 93.6133 54.1602 l 1
 93.6133 44.7734 l 1
 82.5195 44.7734 l 1
 71.4268 44.7734 l 1
 71.4268 31.9736 l 1
 71.4268 19.1738 l 1
 82.5195 19.1738 l 1
 93.6133 19.1738 l 1
 93.6133 8.93359 l 1
 93.6133 -1.30664 l 1
 82.5195 -1.30664 l 1
 71.4268 -1.30664 l 1
 71.4268 -13.2529 l 1
 71.4268 -25.2002 l 1
 82.5195 -25.2002 l 1
 93.6133 -25.2002 l 1
 93.6133 -35.4404 l 1
 93.6133 -45.6797 l 1
 82.5195 -45.6797 l 1
 71.4268 -45.6797 l 1
 71.4268 -57.627 l 1
 71.4268 -69.5732 l 1
 161.88 -69.5732 l 1
 252.333 -69.5732 l 1
 252.333 -58.4805 l 1
 252.333 -47.3867 l 1
 261.72 -47.3867 l 1
 271.106 -47.3867 l 1
 271.106 -58.4805 l 1
 271.106 -69.5732 l 1
 350.467 -69.5732 l 1
 429.827 -69.5732 l 1
 429.827 -58.4805 l 1
 429.827 -47.3867 l 1
 440.066 -47.3867 l 1
 450.307 -47.3867 l 1
 450.307 -58.4805 l 1
 450.307 -69.5732 l 1
 484.44 -69.5732 l 1
 518.573 -69.5732 l 1
 518.573 -46.5332 l 1
 518.573 -23.4932 l 1
 507.48 -23.4932 l 1
 496.387 -23.4932 l 1
 496.387 -13.2529 l 1
 496.387 -3.01367 l 1
 507.48 -3.01367 l 1
 518.573 -3.01367 l 1
 518.573 9.78711 l 1
 518.573 22.5869 l 1
 507.48 22.5869 l 1
 496.387 22.5869 l 1
 496.387 31.9736 l 1
 496.387 41.3604 l 1
 507.48 41.3604 l 1
 518.573 41.3604 l 1
 518.573 54.1602 l 1
 518.573 66.96 l 1
 507.48 66.96 l 1
 496.387 66.96 l 1
 496.387 76.3467 l 1
 496.387 85.7334 l 1
 507.48 85.7334 l 1
 518.573 85.7334 l 1
 518.573 98.5332 l 1
 518.573 111.333 l 1
 507.48 111.333 l 1
 496.387 111.333 l 1
 496.387 120.72 l 1
 496.387 130.106 l 1
 507.48 130.106 l 1
 518.573 130.106 l 1
 518.573 187.28 l 1
 518.573 244.453 l 1
 507.48 244.453 l 1
 496.387 244.453 l 1
 496.387 253.84 l 1
 496.387 263.227 l 1
 507.48 263.227 l 1
 518.573 263.227 l 1
 518.573 276.026 l 1
 518.573 288.827 l 1
 507.48 288.827 l 1
 496.387 288.827 l 1
 496.387 299.066 l 1
 496.387 309.307 l 1
 507.48 309.307 l 1
 518.573 309.307 l 1
 518.573 343.44 l 1
 518.573 377.573 l 1
 495.533 377.573 l 1
 472.493 377.573 l 1
 472.493 366.48 l 1
 472.493 355.387 l 1
 462.253 355.387 l 1
 452.014 355.387 l 1
 452.014 366.48 l 1
 452.014 377.573 l 1
 417.026 377.573 l 1
 382.04 377.573 l 1
 382.04 366.48 l 1
 382.04 355.387 l 1
 372.653 355.387 l 1
 363.267 355.387 l 1
 363.267 366.48 l 1
 363.267 377.573 l 1
 350.467 377.573 l 1
 337.667 377.573 l 1
 337.667 366.48 l 1
 337.667 355.387 l 1
 328.28 355.387 l 1
 318.894 355.387 l 1
 318.894 366.48 l 1
 318.894 377.573 l 1
 306.094 377.573 l 1
 293.293 377.573 l 1
 293.293 366.48 l 1
 293.293 355.387 l 1
 283.906 355.387 l 1
 274.52 355.387 l 1
 274.52 366.48 l 1
 274.52 377.573 l 1
 195.16 377.573 l 1
 115.8 377.573 l 1
 115.8 366.48 l 1
 115.8 355.387 l 1
 105.56 355.387 l 1
 95.3203 355.387 l 1
 95.3203 366.48 l 1
EndSplineSet
Validated: 524289
EndChar

StartChar: uni3048
Encoding: 12360 12360 36
Width: 589
VWidth: 0
Flags: HW
LayerCount: 2
Back
Fore
SplineSet
39 154 m 1
 39 410 l 1
 295 410 l 1
 551 410 l 1
 551 154 l 1
 551 -102 l 1
 295 -102 l 1
 39 -102 l 1
 39 154 l 1
95.3203 366.48 m 1
 95.3203 377.573 l 1
 83.373 377.573 l 1
 71.4268 377.573 l 1
 71.4268 354.533 l 1
 71.4268 331.493 l 1
 82.5195 331.493 l 1
 93.6133 331.493 l 1
 93.6133 321.253 l 1
 93.6133 311.014 l 1
 82.5195 311.014 l 1
 71.4268 311.014 l 1
 71.4268 298.213 l 1
 71.4268 285.413 l 1
 82.5195 285.413 l 1
 93.6133 285.413 l 1
 93.6133 276.026 l 1
 93.6133 266.64 l 1
 82.5195 266.64 l 1
 71.4268 266.64 l 1
 71.4268 253.84 l 1
 71.4268 241.04 l 1
 82.5195 241.04 l 1
 93.6133 241.04 l 1
 93.6133 231.653 l 1
 93.6133 222.267 l 1
 82.5195 222.267 l 1
 71.4268 222.267 l 1
 71.4268 209.467 l 1
 71.4268 196.667 l 1
 82.5195 196.667 l 1
 93.6133 196.667 l 1
 93.6133 187.28 l 1
 93.6133 177.894 l 1
 82.5195 177.894 l 1
 71.4268 177.894 l 1
 71.4268 165.094 l 1
 71.4268 152.293 l 1
 82.5195 152.293 l 1
 93.6133 152.293 l 1
 93.6133 142.906 l 1
 93.6133 133.52 l 1
 82.5195 133.52 l 1
 71.4268 133.52 l 1
 71.4268 98.5332 l 1
 71.4268 63.5469 l 1
 82.5195 63.5469 l 1
 93.6133 63.5469 l 1
 93.6133 54.1602 l 1
 93.6133 44.7734 l 1
 82.5195 44.7734 l 1
 71.4268 44.7734 l 1
 71.4268 31.9736 l 1
 71.4268 19.1738 l 1
 82.5195 19.1738 l 1
 93.6133 19.1738 l 1
 93.6133 8.93359 l 1
 93.6133 -1.30664 l 1
 82.5195 -1.30664 l 1
 71.4268 -1.30664 l 1
 71.4268 -13.2529 l 1
 71.4268 -25.2002 l 1
 82.5195 -25.2002 l 1
 93.6133 -25.2002 l 1
 93.6133 -35.4404 l 1
 93.6133 -45.6797 l 1
 82.5195 -45.6797 l 1
 71.4268 -45.6797 l 1
 71.4268 -57.627 l 1
 71.4268 -69.5732 l 1
 117.678 -69.5732 l 1
 163.928 -69.5732 l 1
 163.331 -58.4805 l 1
 162.733 -47.3867 l 1
 172.547 -47.3867 l 1
 182.36 -47.3867 l 1
 182.36 -58.4805 l 1
 182.36 -69.5732 l 1
 195.16 -69.5732 l 1
 207.96 -69.5732 l 1
 207.96 -58.4805 l 1
 207.96 -47.3867 l 1
 217.347 -47.3867 l 1
 226.733 -47.3867 l 1
 226.733 -58.4805 l 1
 226.733 -69.5732 l 1
 261.72 -69.5732 l 1
 296.707 -69.5732 l 1
 296.707 -58.4805 l 1
 296.707 -47.3867 l 1
 306.094 -47.3867 l 1
 315.48 -47.3867 l 1
 315.48 -58.4805 l 1
 315.48 -69.5732 l 1
 328.28 -69.5732 l 1
 341.08 -69.5732 l 1
 341.08 -58.4805 l 1
 341.08 -47.3867 l 1
 350.467 -47.3867 l 1
 359.854 -47.3867 l 1
 359.854 -58.4805 l 1
 359.854 -69.5732 l 1
 394.84 -69.5732 l 1
 429.827 -69.5732 l 1
 429.827 -58.4805 l 1
 429.827 -47.3867 l 1
 440.066 -47.3867 l 1
 450.307 -47.3867 l 1
 450.307 -58.4805 l 1
 450.307 -69.5732 l 1
 484.44 -69.5732 l 1
 518.573 -69.5732 l 1
 518.573 -46.5332 l 1
 518.573 -23.4932 l 1
 507.48 -23.4932 l 1
 496.387 -23.4932 l 1
 496.387 -13.2529 l 1
 496.387 -3.01367 l 1
 507.48 -3.01367 l 1
 518.573 -3.01367 l 1
 518.573 76.3467 l 1
 518.573 155.707 l 1
 507.48 155.707 l 1
 496.387 155.707 l 1
 496.387 165.094 l 1
 496.387 174.48 l 1
 507.48 174.48 l 1
 518.573 174.48 l 1
 518.573 187.28 l 1
 518.573 200.08 l 1
 507.48 200.08 l 1
 496.387 200.08 l 1
 496.387 209.467 l 1
 496.387 218.854 l 1
 507.48 218.854 l 1
 518.573 218.854 l 1
 518.573 231.653 l 1
 518.573 244.453 l 1
 507.48 244.453 l 1
 496.387 244.453 l 1
 496.387 253.84 l 1
 496.387 263.227 l 1
 507.48 263.227 l 1
 518.573 263.227 l 1
 518.573 276.026 l 1
 518.573 288.827 l 1
 507.48 288.827 l 1
 496.387 288.827 l 1
 496.387 299.066 l 1
 496.387 309.307 l 1
 507.48 309.307 l 1
 518.573 309.307 l 1
 518.573 343.44 l 1
 518.573 377.573 l 1
 495.533 377.573 l 1
 472.493 377.573 l 1
 472.493 366.48 l 1
 472.493 355.387 l 1
 462.253 355.387 l 1
 452.014 355.387 l 1
 452.014 366.48 l 1
 452.014 377.573 l 1
 439.043 377.573 l 1
 426.072 377.573 l 1
 426.669 366.48 l 1
 427.267 355.387 l 1
 417.453 355.387 l 1
 407.64 355.387 l 1
 407.64 366.48 l 1
 407.64 377.573 l 1
 328.28 377.573 l 1
 248.92 377.573 l 1
 248.92 366.48 l 1
 248.92 355.387 l 1
 239.533 355.387 l 1
 230.146 355.387 l 1
 230.146 366.48 l 1
 230.146 377.573 l 1
 172.974 377.573 l 1
 115.8 377.573 l 1
 115.8 366.48 l 1
 115.8 355.387 l 1
 105.56 355.387 l 1
 95.3203 355.387 l 1
 95.3203 366.48 l 1
EndSplineSet
Validated: 524289
EndChar

StartChar: uni30CD
Encoding: 12493 12493 37
Width: 589
VWidth: 0
Flags: HW
LayerCount: 2
Back
Fore
SplineSet
39 154 m 1
 39 410 l 1
 295 410 l 1
 551 410 l 1
 551 154 l 1
 551 -102 l 1
 295 -102 l 1
 39 -102 l 1
 39 154 l 1
95.3203 366.48 m 1
 95.3203 377.573 l 1
 83.373 377.573 l 1
 71.4268 377.573 l 1
 71.4268 354.533 l 1
 71.4268 331.493 l 1
 82.5195 331.493 l 1
 93.6133 331.493 l 1
 93.6133 321.253 l 1
 93.6133 311.014 l 1
 82.5195 311.014 l 1
 71.4268 311.014 l 1
 71.4268 298.213 l 1
 71.4268 285.413 l 1
 82.5195 285.413 l 1
 93.6133 285.413 l 1
 93.6133 276.026 l 1
 93.6133 266.64 l 1
 82.5195 266.64 l 1
 71.4268 266.64 l 1
 71.4268 253.84 l 1
 71.4268 241.04 l 1
 82.5195 241.04 l 1
 93.6133 241.04 l 1
 93.6133 231.653 l 1
 93.6133 222.267 l 1
 82.5195 222.267 l 1
 71.4268 222.267 l 1
 71.4268 165.094 l 1
 71.4268 107.92 l 1
 82.5195 107.92 l 1
 93.6133 107.92 l 1
 93.6133 98.5332 l 1
 93.6133 89.1465 l 1
 82.5195 89.1465 l 1
 71.4268 89.1465 l 1
 71.4268 54.1602 l 1
 71.4268 19.1738 l 1
 82.5195 19.1738 l 1
 93.6133 19.1738 l 1
 93.6133 8.93359 l 1
 93.6133 -1.30664 l 1
 82.5195 -1.30664 l 1
 71.4268 -1.30664 l 1
 71.4268 -13.2529 l 1
 71.4268 -25.2002 l 1
 82.5195 -25.2002 l 1
 93.6133 -25.2002 l 1
 93.6133 -35.4404 l 1
 93.6133 -45.6797 l 1
 82.5195 -45.6797 l 1
 71.4268 -45.6797 l 1
 71.4268 -57.627 l 1
 71.4268 -69.5732 l 1
 117.678 -69.5732 l 1
 163.928 -69.5732 l 1
 163.331 -58.4805 l 1
 162.733 -47.3867 l 1
 172.547 -47.3867 l 1
 182.36 -47.3867 l 1
 182.36 -58.4805 l 1
 182.36 -69.5732 l 1
 195.16 -69.5732 l 1
 207.96 -69.5732 l 1
 207.96 -58.4805 l 1
 207.96 -47.3867 l 1
 217.347 -47.3867 l 1
 226.733 -47.3867 l 1
 226.733 -58.4805 l 1
 226.733 -69.5732 l 1
 239.533 -69.5732 l 1
 252.333 -69.5732 l 1
 252.333 -58.4805 l 1
 252.333 -47.3867 l 1
 261.72 -47.3867 l 1
 271.106 -47.3867 l 1
 271.106 -58.4805 l 1
 271.106 -69.5732 l 1
 328.28 -69.5732 l 1
 385.453 -69.5732 l 1
 385.453 -58.4805 l 1
 385.453 -47.3867 l 1
 395.267 -47.3867 l 1
 405.08 -47.3867 l 1
 404.482 -58.4805 l 1
 403.886 -69.5732 l 1
 416.856 -69.5732 l 1
 429.827 -69.5732 l 1
 429.827 -58.4805 l 1
 429.827 -47.3867 l 1
 440.066 -47.3867 l 1
 450.307 -47.3867 l 1
 450.307 -58.4805 l 1
 450.307 -69.5732 l 1
 484.44 -69.5732 l 1
 518.573 -69.5732 l 1
 518.573 -46.5332 l 1
 518.573 -23.4932 l 1
 507.48 -23.4932 l 1
 496.387 -23.4932 l 1
 496.387 -13.2529 l 1
 496.387 -3.01367 l 1
 507.48 -3.01367 l 1
 518.573 -3.01367 l 1
 518.573 54.1602 l 1
 518.573 111.333 l 1
 507.48 111.333 l 1
 496.387 111.333 l 1
 496.387 120.72 l 1
 496.387 130.106 l 1
 507.48 130.106 l 1
 518.573 130.106 l 1
 518.573 209.467 l 1
 518.573 288.827 l 1
 507.48 288.827 l 1
 496.387 288.827 l 1
 496.387 299.066 l 1
 496.387 309.307 l 1
 507.48 309.307 l 1
 518.573 309.307 l 1
 518.573 343.44 l 1
 518.573 377.573 l 1
 495.533 377.573 l 1
 472.493 377.573 l 1
 472.493 366.48 l 1
 472.493 355.387 l 1
 462.253 355.387 l 1
 452.014 355.387 l 1
 452.014 366.48 l 1
 452.014 377.573 l 1
 439.043 377.573 l 1
 426.072 377.573 l 1
 426.669 366.48 l 1
 427.267 355.387 l 1
 417.453 355.387 l 1
 407.64 355.387 l 1
 407.64 366.48 l 1
 407.64 377.573 l 1
 372.653 377.573 l 1
 337.667 377.573 l 1
 337.667 366.48 l 1
 337.667 355.387 l 1
 328.28 355.387 l 1
 318.894 355.387 l 1
 318.894 366.48 l 1
 318.894 377.573 l 1
 306.094 377.573 l 1
 293.293 377.573 l 1
 293.293 366.48 l 1
 293.293 355.387 l 1
 283.906 355.387 l 1
 274.52 355.387 l 1
 274.52 366.48 l 1
 274.52 377.573 l 1
 239.533 377.573 l 1
 204.547 377.573 l 1
 204.547 366.48 l 1
 204.547 355.387 l 1
 194.733 355.387 l 1
 184.92 355.387 l 1
 185.518 366.48 l 1
 186.114 377.573 l 1
 150.957 377.573 l 1
 115.8 377.573 l 1
 115.8 366.48 l 1
 115.8 355.387 l 1
 105.56 355.387 l 1
 95.3203 355.387 l 1
 95.3203 366.48 l 1
EndSplineSet
Validated: 524289
EndChar

StartChar: uni30F3
Encoding: 12531 12531 38
Width: 589
VWidth: 0
Flags: HW
LayerCount: 2
Back
Fore
SplineSet
39 154 m 1
 39 410 l 1
 295 410 l 1
 551 410 l 1
 551 154 l 1
 551 -102 l 1
 295 -102 l 1
 39 -102 l 1
 39 154 l 1
95.3203 366.48 m 1
 95.3203 377.573 l 1
 83.373 377.573 l 1
 71.4268 377.573 l 1
 71.4268 354.533 l 1
 71.4268 331.493 l 1
 82.5195 331.493 l 1
 93.6133 331.493 l 1
 93.6133 321.253 l 1
 93.6133 311.014 l 1
 82.5195 311.014 l 1
 71.4268 311.014 l 1
 71.4268 276.026 l 1
 71.4268 241.04 l 1
 82.5195 241.04 l 1
 93.6133 241.04 l 1
 93.6133 231.653 l 1
 93.6133 222.267 l 1
 82.5195 222.267 l 1
 71.4268 222.267 l 1
 71.4268 209.467 l 1
 71.4268 196.667 l 1
 82.5195 196.667 l 1
 93.6133 196.667 l 1
 93.6133 187.28 l 1
 93.6133 177.894 l 1
 82.5195 177.894 l 1
 71.4268 177.894 l 1
 71.4268 165.094 l 1
 71.4268 152.293 l 1
 82.5195 152.293 l 1
 93.6133 152.293 l 1
 93.6133 142.906 l 1
 93.6133 133.52 l 1
 82.5195 133.52 l 1
 71.4268 133.52 l 1
 71.4268 120.72 l 1
 71.4268 107.92 l 1
 82.5195 107.92 l 1
 93.6133 107.92 l 1
 93.6133 98.5332 l 1
 93.6133 89.1465 l 1
 82.5195 89.1465 l 1
 71.4268 89.1465 l 1
 71.4268 76.3467 l 1
 71.4268 63.5469 l 1
 82.5195 63.5469 l 1
 93.6133 63.5469 l 1
 93.6133 54.1602 l 1
 93.6133 44.7734 l 1
 82.5195 44.7734 l 1
 71.4268 44.7734 l 1
 71.4268 9.78711 l 1
 71.4268 -25.2002 l 1
 82.5195 -25.2002 l 1
 93.6133 -25.2002 l 1
 93.6133 -35.4404 l 1
 93.6133 -45.6797 l 1
 82.5195 -45.6797 l 1
 71.4268 -45.6797 l 1
 71.4268 -57.627 l 1
 71.4268 -69.5732 l 1
 139.693 -69.5732 l 1
 207.96 -69.5732 l 1
 207.96 -58.4805 l 1
 207.96 -47.3867 l 1
 217.347 -47.3867 l 1
 226.733 -47.3867 l 1
 226.733 -58.4805 l 1
 226.733 -69.5732 l 1
 261.72 -69.5732 l 1
 296.707 -69.5732 l 1
 296.707 -58.4805 l 1
 296.707 -47.3867 l 1
 306.094 -47.3867 l 1
 315.48 -47.3867 l 1
 315.48 -58.4805 l 1
 315.48 -69.5732 l 1
 417.026 -69.5732 l 1
 518.573 -69.5732 l 1
 518.573 -46.5332 l 1
 518.573 -23.4932 l 1
 507.48 -23.4932 l 1
 496.387 -23.4932 l 1
 496.387 -13.2529 l 1
 496.387 -3.01367 l 1
 507.48 -3.01367 l 1
 518.573 -3.01367 l 1
 518.573 9.78711 l 1
 518.573 22.5869 l 1
 507.48 22.5869 l 1
 496.387 22.5869 l 1
 496.387 31.9736 l 1
 496.387 41.3604 l 1
 507.48 41.3604 l 1
 518.573 41.3604 l 1
 518.573 98.5332 l 1
 518.573 155.707 l 1
 507.48 155.707 l 1
 496.387 155.707 l 1
 496.387 165.094 l 1
 496.387 174.48 l 1
 507.48 174.48 l 1
 518.573 174.48 l 1
 518.573 209.467 l 1
 518.573 244.453 l 1
 507.48 244.453 l 1
 496.387 244.453 l 1
 496.387 253.84 l 1
 496.387 263.227 l 1
 507.48 263.227 l 1
 518.573 263.227 l 1
 518.573 320.4 l 1
 518.573 377.573 l 1
 495.533 377.573 l 1
 472.493 377.573 l 1
 472.493 366.48 l 1
 472.493 355.387 l 1
 462.253 355.387 l 1
 452.014 355.387 l 1
 452.014 366.48 l 1
 452.014 377.573 l 1
 306.094 377.573 l 1
 160.174 377.573 l 1
 160.174 366.48 l 1
 160.174 355.387 l 1
 149.934 355.387 l 1
 139.693 355.387 l 1
 139.693 366.48 l 1
 139.693 377.573 l 1
 127.747 377.573 l 1
 115.8 377.573 l 1
 115.8 366.48 l 1
 115.8 355.387 l 1
 105.56 355.387 l 1
 95.3203 355.387 l 1
 95.3203 366.48 l 1
EndSplineSet
Validated: 524289
EndChar

StartChar: uni306D
Encoding: 12397 12397 39
Width: 589
VWidth: 0
Flags: HW
LayerCount: 2
Back
Fore
SplineSet
39 154 m 1
 39 410 l 1
 295 410 l 1
 551 410 l 1
 551 154 l 1
 551 -102 l 1
 295 -102 l 1
 39 -102 l 1
 39 154 l 1
95.3203 366.48 m 1
 95.3203 377.573 l 1
 83.373 377.573 l 1
 71.4268 377.573 l 1
 71.4268 309.307 l 1
 71.4268 241.04 l 1
 82.5195 241.04 l 1
 93.6133 241.04 l 1
 93.6133 231.653 l 1
 93.6133 222.267 l 1
 82.5195 222.267 l 1
 71.4268 222.267 l 1
 71.4268 187.28 l 1
 71.4268 152.293 l 1
 82.5195 152.293 l 1
 93.6133 152.293 l 1
 93.6133 142.906 l 1
 93.6133 133.52 l 1
 82.5195 133.52 l 1
 71.4268 133.52 l 1
 71.4268 120.72 l 1
 71.4268 107.92 l 1
 82.5195 107.92 l 1
 93.6133 107.92 l 1
 93.6133 98.5332 l 1
 93.6133 89.1465 l 1
 82.5195 89.1465 l 1
 71.4268 89.1465 l 1
 71.4268 76.3467 l 1
 71.4268 63.5469 l 1
 82.5195 63.5469 l 1
 93.6133 63.5469 l 1
 93.6133 54.1602 l 1
 93.6133 44.7734 l 1
 82.5195 44.7734 l 1
 71.4268 44.7734 l 1
 71.4268 31.9736 l 1
 71.4268 19.1738 l 1
 82.5195 19.1738 l 1
 93.6133 19.1738 l 1
 93.6133 8.93359 l 1
 93.6133 -1.30664 l 1
 82.5195 -1.30664 l 1
 71.4268 -1.30664 l 1
 71.4268 -13.2529 l 1
 71.4268 -25.2002 l 1
 82.5195 -25.2002 l 1
 93.6133 -25.2002 l 1
 93.6133 -35.4404 l 1
 93.6133 -45.6797 l 1
 82.5195 -45.6797 l 1
 71.4268 -45.6797 l 1
 71.4268 -57.627 l 1
 71.4268 -69.5732 l 1
 94.4668 -69.5732 l 1
 117.507 -69.5732 l 1
 117.507 -58.4805 l 1
 117.507 -47.3867 l 1
 127.747 -47.3867 l 1
 137.986 -47.3867 l 1
 137.986 -58.4805 l 1
 137.986 -69.5732 l 1
 172.974 -69.5732 l 1
 207.96 -69.5732 l 1
 207.96 -58.4805 l 1
 207.96 -47.3867 l 1
 217.347 -47.3867 l 1
 226.733 -47.3867 l 1
 226.733 -58.4805 l 1
 226.733 -69.5732 l 1
 239.533 -69.5732 l 1
 252.333 -69.5732 l 1
 252.333 -58.4805 l 1
 252.333 -47.3867 l 1
 261.72 -47.3867 l 1
 271.106 -47.3867 l 1
 271.106 -58.4805 l 1
 271.106 -69.5732 l 1
 283.906 -69.5732 l 1
 296.707 -69.5732 l 1
 296.707 -58.4805 l 1
 296.707 -47.3867 l 1
 306.094 -47.3867 l 1
 315.48 -47.3867 l 1
 315.48 -58.4805 l 1
 315.48 -69.5732 l 1
 372.653 -69.5732 l 1
 429.827 -69.5732 l 1
 429.827 -58.4805 l 1
 429.827 -47.3867 l 1
 440.066 -47.3867 l 1
 450.307 -47.3867 l 1
 450.307 -58.4805 l 1
 450.307 -69.5732 l 1
 484.44 -69.5732 l 1
 518.573 -69.5732 l 1
 518.573 -23.4932 l 1
 518.573 22.5869 l 1
 507.48 22.5869 l 1
 496.387 22.5869 l 1
 496.387 31.9736 l 1
 496.387 41.3604 l 1
 507.48 41.3604 l 1
 518.573 41.3604 l 1
 518.573 76.3467 l 1
 518.573 111.333 l 1
 507.48 111.333 l 1
 496.387 111.333 l 1
 496.387 120.72 l 1
 496.387 130.106 l 1
 507.48 130.106 l 1
 518.573 130.106 l 1
 518.573 142.906 l 1
 518.573 155.707 l 1
 507.48 155.707 l 1
 496.387 155.707 l 1
 496.387 165.094 l 1
 496.387 174.48 l 1
 507.48 174.48 l 1
 518.573 174.48 l 1
 518.573 209.467 l 1
 518.573 244.453 l 1
 507.48 244.453 l 1
 496.387 244.453 l 1
 496.387 253.84 l 1
 496.387 263.227 l 1
 507.48 263.227 l 1
 518.573 263.227 l 1
 518.573 276.026 l 1
 518.573 288.827 l 1
 507.48 288.827 l 1
 496.387 288.827 l 1
 496.387 299.066 l 1
 496.387 309.307 l 1
 507.48 309.307 l 1
 518.573 309.307 l 1
 518.573 343.44 l 1
 518.573 377.573 l 1
 428.12 377.573 l 1
 337.667 377.573 l 1
 337.667 366.48 l 1
 337.667 355.387 l 1
 328.28 355.387 l 1
 318.894 355.387 l 1
 318.894 366.48 l 1
 318.894 377.573 l 1
 217.347 377.573 l 1
 115.8 377.573 l 1
 115.8 366.48 l 1
 115.8 355.387 l 1
 105.56 355.387 l 1
 95.3203 355.387 l 1
 95.3203 366.48 l 1
EndSplineSet
Validated: 524289
EndChar

StartChar: uni3051
Encoding: 12369 12369 40
Width: 589
VWidth: 0
Flags: HW
LayerCount: 2
Back
Fore
SplineSet
39 154 m 1
 39 410 l 1
 295 410 l 1
 551 410 l 1
 551 154 l 1
 551 -102 l 1
 295 -102 l 1
 39 -102 l 1
 39 154 l 1
95.3203 366.48 m 1
 95.3203 377.573 l 1
 83.373 377.573 l 1
 71.4268 377.573 l 1
 71.4268 287.12 l 1
 71.4268 196.667 l 1
 82.5195 196.667 l 1
 93.6133 196.667 l 1
 93.6133 187.28 l 1
 93.6133 177.894 l 1
 82.5195 177.894 l 1
 71.4268 177.894 l 1
 71.4268 120.72 l 1
 71.4268 63.5469 l 1
 82.5195 63.5469 l 1
 93.6133 63.5469 l 1
 93.6133 54.1602 l 1
 93.6133 44.7734 l 1
 82.5195 44.7734 l 1
 71.4268 44.7734 l 1
 71.4268 31.9736 l 1
 71.4268 19.1738 l 1
 82.5195 19.1738 l 1
 93.6133 19.1738 l 1
 93.6133 8.93359 l 1
 93.6133 -1.30664 l 1
 82.5195 -1.30664 l 1
 71.4268 -1.30664 l 1
 71.4268 -13.2529 l 1
 71.4268 -25.2002 l 1
 82.5195 -25.2002 l 1
 93.6133 -25.2002 l 1
 93.6133 -35.4404 l 1
 93.6133 -45.6797 l 1
 82.5195 -45.6797 l 1
 71.4268 -45.6797 l 1
 71.4268 -57.627 l 1
 71.4268 -69.5732 l 1
 94.4668 -69.5732 l 1
 117.507 -69.5732 l 1
 117.507 -58.4805 l 1
 117.507 -47.3867 l 1
 127.747 -47.3867 l 1
 137.986 -47.3867 l 1
 137.986 -58.4805 l 1
 137.986 -69.5732 l 1
 239.533 -69.5732 l 1
 341.08 -69.5732 l 1
 341.08 -58.4805 l 1
 341.08 -47.3867 l 1
 350.467 -47.3867 l 1
 359.854 -47.3867 l 1
 359.854 -58.4805 l 1
 359.854 -69.5732 l 1
 394.84 -69.5732 l 1
 429.827 -69.5732 l 1
 429.827 -58.4805 l 1
 429.827 -47.3867 l 1
 440.066 -47.3867 l 1
 450.307 -47.3867 l 1
 450.307 -58.4805 l 1
 450.307 -69.5732 l 1
 484.44 -69.5732 l 1
 518.573 -69.5732 l 1
 518.573 -23.4932 l 1
 518.573 22.5869 l 1
 507.48 22.5869 l 1
 496.387 22.5869 l 1
 496.387 31.9736 l 1
 496.387 41.3604 l 1
 507.48 41.3604 l 1
 518.573 41.3604 l 1
 518.573 54.1602 l 1
 518.573 66.96 l 1
 507.48 66.96 l 1
 496.387 66.96 l 1
 496.387 76.3467 l 1
 496.387 85.7334 l 1
 507.48 85.7334 l 1
 518.573 85.7334 l 1
 518.573 142.906 l 1
 518.573 200.08 l 1
 507.48 200.08 l 1
 496.387 200.08 l 1
 496.387 209.467 l 1
 496.387 218.854 l 1
 507.48 218.854 l 1
 518.573 218.854 l 1
 518.573 231.653 l 1
 518.573 244.453 l 1
 507.48 244.453 l 1
 496.387 244.453 l 1
 496.387 253.84 l 1
 496.387 263.227 l 1
 507.48 263.227 l 1
 518.573 263.227 l 1
 518.573 276.026 l 1
 518.573 288.827 l 1
 507.48 288.827 l 1
 496.387 288.827 l 1
 496.387 299.066 l 1
 496.387 309.307 l 1
 507.48 309.307 l 1
 518.573 309.307 l 1
 518.573 343.44 l 1
 518.573 377.573 l 1
 450.307 377.573 l 1
 382.04 377.573 l 1
 382.04 366.48 l 1
 382.04 355.387 l 1
 372.653 355.387 l 1
 363.267 355.387 l 1
 363.267 366.48 l 1
 363.267 377.573 l 1
 328.28 377.573 l 1
 293.293 377.573 l 1
 293.293 366.48 l 1
 293.293 355.387 l 1
 283.906 355.387 l 1
 274.52 355.387 l 1
 274.52 366.48 l 1
 274.52 377.573 l 1
 261.72 377.573 l 1
 248.92 377.573 l 1
 248.92 366.48 l 1
 248.92 355.387 l 1
 239.533 355.387 l 1
 230.146 355.387 l 1
 230.146 366.48 l 1
 230.146 377.573 l 1
 172.974 377.573 l 1
 115.8 377.573 l 1
 115.8 366.48 l 1
 115.8 355.387 l 1
 105.56 355.387 l 1
 95.3203 355.387 l 1
 95.3203 366.48 l 1
EndSplineSet
Validated: 524289
EndChar

StartChar: uni3044
Encoding: 12356 12356 41
Width: 589
VWidth: 0
Flags: HW
LayerCount: 2
Back
Fore
SplineSet
39 154 m 1
 39 410 l 1
 295 410 l 1
 551 410 l 1
 551 154 l 1
 551 -102 l 1
 295 -102 l 1
 39 -102 l 1
 39 154 l 1
95.3203 366.48 m 1
 95.3203 377.573 l 1
 83.373 377.573 l 1
 71.4268 377.573 l 1
 71.4268 354.533 l 1
 71.4268 331.493 l 1
 82.5195 331.493 l 1
 93.6133 331.493 l 1
 93.6133 321.253 l 1
 93.6133 311.014 l 1
 82.5195 311.014 l 1
 71.4268 311.014 l 1
 71.4268 298.213 l 1
 71.4268 285.413 l 1
 82.5195 285.413 l 1
 93.6133 285.413 l 1
 93.6133 276.026 l 1
 93.6133 266.64 l 1
 82.5195 266.64 l 1
 71.4268 266.64 l 1
 71.4268 231.653 l 1
 71.4268 196.667 l 1
 82.5195 196.667 l 1
 93.6133 196.667 l 1
 93.6133 187.28 l 1
 93.6133 177.894 l 1
 82.5195 177.894 l 1
 71.4268 177.894 l 1
 71.4268 165.094 l 1
 71.4268 152.293 l 1
 82.5195 152.293 l 1
 93.6133 152.293 l 1
 93.6133 142.906 l 1
 93.6133 133.52 l 1
 82.5195 133.52 l 1
 71.4268 133.52 l 1
 71.4268 98.5332 l 1
 71.4268 63.5469 l 1
 82.5195 63.5469 l 1
 93.6133 63.5469 l 1
 93.6133 54.1602 l 1
 93.6133 44.7734 l 1
 82.5195 44.7734 l 1
 71.4268 44.7734 l 1
 71.4268 31.9736 l 1
 71.4268 19.1738 l 1
 82.5195 19.1738 l 1
 93.6133 19.1738 l 1
 93.6133 8.93359 l 1
 93.6133 -1.30664 l 1
 82.5195 -1.30664 l 1
 71.4268 -1.30664 l 1
 71.4268 -13.2529 l 1
 71.4268 -25.2002 l 1
 82.5195 -25.2002 l 1
 93.6133 -25.2002 l 1
 93.6133 -35.4404 l 1
 93.6133 -45.6797 l 1
 82.5195 -45.6797 l 1
 71.4268 -45.6797 l 1
 71.4268 -57.627 l 1
 71.4268 -69.5732 l 1
 117.678 -69.5732 l 1
 163.928 -69.5732 l 1
 163.331 -58.4805 l 1
 162.733 -47.3867 l 1
 172.547 -47.3867 l 1
 182.36 -47.3867 l 1
 182.36 -58.4805 l 1
 182.36 -69.5732 l 1
 239.533 -69.5732 l 1
 296.707 -69.5732 l 1
 296.707 -58.4805 l 1
 296.707 -47.3867 l 1
 306.094 -47.3867 l 1
 315.48 -47.3867 l 1
 315.48 -58.4805 l 1
 315.48 -69.5732 l 1
 328.28 -69.5732 l 1
 341.08 -69.5732 l 1
 341.08 -58.4805 l 1
 341.08 -47.3867 l 1
 350.467 -47.3867 l 1
 359.854 -47.3867 l 1
 359.854 -58.4805 l 1
 359.854 -69.5732 l 1
 394.84 -69.5732 l 1
 429.827 -69.5732 l 1
 429.827 -58.4805 l 1
 429.827 -47.3867 l 1
 440.066 -47.3867 l 1
 450.307 -47.3867 l 1
 450.307 -58.4805 l 1
 450.307 -69.5732 l 1
 484.44 -69.5732 l 1
 518.573 -69.5732 l 1
 518.573 -46.5332 l 1
 518.573 -23.4932 l 1
 507.48 -23.4932 l 1
 496.387 -23.4932 l 1
 496.387 -13.2529 l 1
 496.387 -3.01367 l 1
 507.48 -3.01367 l 1
 518.573 -3.01367 l 1
 518.573 31.9736 l 1
 518.573 66.96 l 1
 507.48 66.96 l 1
 496.387 66.96 l 1
 496.387 76.3467 l 1
 496.387 85.7334 l 1
 507.48 85.7334 l 1
 518.573 85.7334 l 1
 518.573 120.72 l 1
 518.573 155.707 l 1
 507.48 155.707 l 1
 496.387 155.707 l 1
 496.387 165.094 l 1
 496.387 174.48 l 1
 507.48 174.48 l 1
 518.573 174.48 l 1
 518.573 187.28 l 1
 518.573 200.08 l 1
 507.48 200.08 l 1
 496.387 200.08 l 1
 496.387 209.467 l 1
 496.387 218.854 l 1
 507.48 218.854 l 1
 518.573 218.854 l 1
 518.573 231.653 l 1
 518.573 244.453 l 1
 507.48 244.453 l 1
 496.387 244.453 l 1
 496.387 253.84 l 1
 496.387 263.227 l 1
 507.48 263.227 l 1
 518.573 263.227 l 1
 518.573 276.026 l 1
 518.573 288.827 l 1
 507.48 288.827 l 1
 496.387 288.827 l 1
 496.387 299.066 l 1
 496.387 309.307 l 1
 507.48 309.307 l 1
 518.573 309.307 l 1
 518.573 343.44 l 1
 518.573 377.573 l 1
 495.533 377.573 l 1
 472.493 377.573 l 1
 472.493 366.48 l 1
 472.493 355.387 l 1
 462.253 355.387 l 1
 452.014 355.387 l 1
 452.014 366.48 l 1
 452.014 377.573 l 1
 439.043 377.573 l 1
 426.072 377.573 l 1
 426.669 366.48 l 1
 427.267 355.387 l 1
 417.453 355.387 l 1
 407.64 355.387 l 1
 407.64 366.48 l 1
 407.64 377.573 l 1
 394.84 377.573 l 1
 382.04 377.573 l 1
 382.04 366.48 l 1
 382.04 355.387 l 1
 372.653 355.387 l 1
 363.267 355.387 l 1
 363.267 366.48 l 1
 363.267 377.573 l 1
 306.094 377.573 l 1
 248.92 377.573 l 1
 248.92 366.48 l 1
 248.92 355.387 l 1
 239.533 355.387 l 1
 230.146 355.387 l 1
 230.146 366.48 l 1
 230.146 377.573 l 1
 172.974 377.573 l 1
 115.8 377.573 l 1
 115.8 366.48 l 1
 115.8 355.387 l 1
 105.56 355.387 l 1
 95.3203 355.387 l 1
 95.3203 366.48 l 1
EndSplineSet
Validated: 524289
EndChar

StartChar: uni308B
Encoding: 12427 12427 42
Width: 589
VWidth: 0
Flags: HW
LayerCount: 2
Back
Fore
SplineSet
39 154 m 1
 39 410 l 1
 295 410 l 1
 551 410 l 1
 551 154 l 1
 551 -102 l 1
 295 -102 l 1
 39 -102 l 1
 39 154 l 1
95.3203 366.48 m 1
 95.3203 377.573 l 1
 83.373 377.573 l 1
 71.4268 377.573 l 1
 71.4268 331.493 l 1
 71.4268 285.413 l 1
 82.5195 285.413 l 1
 93.6133 285.413 l 1
 93.6133 276.026 l 1
 93.6133 266.64 l 1
 82.5195 266.64 l 1
 71.4268 266.64 l 1
 71.4268 209.467 l 1
 71.4268 152.293 l 1
 82.5195 152.293 l 1
 93.6133 152.293 l 1
 93.6133 142.906 l 1
 93.6133 133.52 l 1
 82.5195 133.52 l 1
 71.4268 133.52 l 1
 71.4268 76.3467 l 1
 71.4268 19.1738 l 1
 82.5195 19.1738 l 1
 93.6133 19.1738 l 1
 93.6133 8.93359 l 1
 93.6133 -1.30664 l 1
 82.5195 -1.30664 l 1
 71.4268 -1.30664 l 1
 71.4268 -13.2529 l 1
 71.4268 -25.2002 l 1
 82.5195 -25.2002 l 1
 93.6133 -25.2002 l 1
 93.6133 -35.4404 l 1
 93.6133 -45.6797 l 1
 82.5195 -45.6797 l 1
 71.4268 -45.6797 l 1
 71.4268 -57.627 l 1
 71.4268 -69.5732 l 1
 94.4668 -69.5732 l 1
 117.507 -69.5732 l 1
 117.507 -58.4805 l 1
 117.507 -47.3867 l 1
 127.747 -47.3867 l 1
 137.986 -47.3867 l 1
 137.986 -58.4805 l 1
 137.986 -69.5732 l 1
 150.957 -69.5732 l 1
 163.928 -69.5732 l 1
 163.331 -58.4805 l 1
 162.733 -47.3867 l 1
 172.547 -47.3867 l 1
 182.36 -47.3867 l 1
 182.36 -58.4805 l 1
 182.36 -69.5732 l 1
 217.347 -69.5732 l 1
 252.333 -69.5732 l 1
 252.333 -58.4805 l 1
 252.333 -47.3867 l 1
 261.72 -47.3867 l 1
 271.106 -47.3867 l 1
 271.106 -58.4805 l 1
 271.106 -69.5732 l 1
 283.906 -69.5732 l 1
 296.707 -69.5732 l 1
 296.707 -58.4805 l 1
 296.707 -47.3867 l 1
 306.094 -47.3867 l 1
 315.48 -47.3867 l 1
 315.48 -58.4805 l 1
 315.48 -69.5732 l 1
 328.28 -69.5732 l 1
 341.08 -69.5732 l 1
 341.08 -58.4805 l 1
 341.08 -47.3867 l 1
 350.467 -47.3867 l 1
 359.854 -47.3867 l 1
 359.854 -58.4805 l 1
 359.854 -69.5732 l 1
 372.653 -69.5732 l 1
 385.453 -69.5732 l 1
 385.453 -58.4805 l 1
 385.453 -47.3867 l 1
 395.267 -47.3867 l 1
 405.08 -47.3867 l 1
 404.482 -58.4805 l 1
 403.886 -69.5732 l 1
 416.856 -69.5732 l 1
 429.827 -69.5732 l 1
 429.827 -58.4805 l 1
 429.827 -47.3867 l 1
 440.066 -47.3867 l 1
 450.307 -47.3867 l 1
 450.307 -58.4805 l 1
 450.307 -69.5732 l 1
 484.44 -69.5732 l 1
 518.573 -69.5732 l 1
 518.573 -1.30664 l 1
 518.573 66.96 l 1
 507.48 66.96 l 1
 496.387 66.96 l 1
 496.387 76.3467 l 1
 496.387 85.7334 l 1
 507.48 85.7334 l 1
 518.573 85.7334 l 1
 518.573 98.5332 l 1
 518.573 111.333 l 1
 507.48 111.333 l 1
 496.387 111.333 l 1
 496.387 120.72 l 1
 496.387 130.106 l 1
 507.48 130.106 l 1
 518.573 130.106 l 1
 518.573 142.906 l 1
 518.573 155.707 l 1
 507.48 155.707 l 1
 496.387 155.707 l 1
 496.387 165.094 l 1
 496.387 174.48 l 1
 507.48 174.48 l 1
 518.573 174.48 l 1
 518.573 187.28 l 1
 518.573 200.08 l 1
 507.48 200.08 l 1
 496.387 200.08 l 1
 496.387 209.467 l 1
 496.387 218.854 l 1
 507.48 218.854 l 1
 518.573 218.854 l 1
 518.573 253.84 l 1
 518.573 288.827 l 1
 507.48 288.827 l 1
 496.387 288.827 l 1
 496.387 299.066 l 1
 496.387 309.307 l 1
 507.48 309.307 l 1
 518.573 309.307 l 1
 518.573 343.44 l 1
 518.573 377.573 l 1
 472.322 377.573 l 1
 426.072 377.573 l 1
 426.669 366.48 l 1
 427.267 355.387 l 1
 417.453 355.387 l 1
 407.64 355.387 l 1
 407.64 366.48 l 1
 407.64 377.573 l 1
 394.84 377.573 l 1
 382.04 377.573 l 1
 382.04 366.48 l 1
 382.04 355.387 l 1
 372.653 355.387 l 1
 363.267 355.387 l 1
 363.267 366.48 l 1
 363.267 377.573 l 1
 350.467 377.573 l 1
 337.667 377.573 l 1
 337.667 366.48 l 1
 337.667 355.387 l 1
 328.28 355.387 l 1
 318.894 355.387 l 1
 318.894 366.48 l 1
 318.894 377.573 l 1
 283.906 377.573 l 1
 248.92 377.573 l 1
 248.92 366.48 l 1
 248.92 355.387 l 1
 239.533 355.387 l 1
 230.146 355.387 l 1
 230.146 366.48 l 1
 230.146 377.573 l 1
 217.347 377.573 l 1
 204.547 377.573 l 1
 204.547 366.48 l 1
 204.547 355.387 l 1
 194.733 355.387 l 1
 184.92 355.387 l 1
 185.518 366.48 l 1
 186.114 377.573 l 1
 150.957 377.573 l 1
 115.8 377.573 l 1
 115.8 366.48 l 1
 115.8 355.387 l 1
 105.56 355.387 l 1
 95.3203 355.387 l 1
 95.3203 366.48 l 1
EndSplineSet
Validated: 524289
EndChar

StartChar: uni30F5
Encoding: 12533 12533 43
Width: 589
VWidth: 0
Flags: HW
LayerCount: 2
Back
Fore
SplineSet
39 154 m 1
 39 410 l 1
 295 410 l 1
 551 410 l 1
 551 154 l 1
 551 -102 l 1
 295 -102 l 1
 39 -102 l 1
 39 154 l 1
95.3203 366.48 m 1
 95.3203 377.573 l 1
 83.373 377.573 l 1
 71.4268 377.573 l 1
 71.4268 354.533 l 1
 71.4268 331.493 l 1
 82.5195 331.493 l 1
 93.6133 331.493 l 1
 93.6133 321.253 l 1
 93.6133 311.014 l 1
 82.5195 311.014 l 1
 71.4268 311.014 l 1
 71.4268 298.213 l 1
 71.4268 285.413 l 1
 82.5195 285.413 l 1
 93.6133 285.413 l 1
 93.6133 276.026 l 1
 93.6133 266.64 l 1
 82.5195 266.64 l 1
 71.4268 266.64 l 1
 71.4268 253.84 l 1
 71.4268 241.04 l 1
 82.5195 241.04 l 1
 93.6133 241.04 l 1
 93.6133 231.653 l 1
 93.6133 222.267 l 1
 82.5195 222.267 l 1
 71.4268 222.267 l 1
 71.4268 209.467 l 1
 71.4268 196.667 l 1
 82.5195 196.667 l 1
 93.6133 196.667 l 1
 93.6133 187.28 l 1
 93.6133 177.894 l 1
 82.5195 177.894 l 1
 71.4268 177.894 l 1
 71.4268 165.094 l 1
 71.4268 152.293 l 1
 82.5195 152.293 l 1
 93.6133 152.293 l 1
 93.6133 142.906 l 1
 93.6133 133.52 l 1
 82.5195 133.52 l 1
 71.4268 133.52 l 1
 71.4268 120.72 l 1
 71.4268 107.92 l 1
 82.5195 107.92 l 1
 93.6133 107.92 l 1
 93.6133 98.5332 l 1
 93.6133 89.1465 l 1
 82.5195 89.1465 l 1
 71.4268 89.1465 l 1
 71.4268 76.3467 l 1
 71.4268 63.5469 l 1
 82.5195 63.5469 l 1
 93.6133 63.5469 l 1
 93.6133 54.1602 l 1
 93.6133 44.7734 l 1
 82.5195 44.7734 l 1
 71.4268 44.7734 l 1
 71.4268 9.78711 l 1
 71.4268 -25.2002 l 1
 82.5195 -25.2002 l 1
 93.6133 -25.2002 l 1
 93.6133 -35.4404 l 1
 93.6133 -45.6797 l 1
 82.5195 -45.6797 l 1
 71.4268 -45.6797 l 1
 71.4268 -57.627 l 1
 71.4268 -69.5732 l 1
 117.678 -69.5732 l 1
 163.928 -69.5732 l 1
 163.331 -58.4805 l 1
 162.733 -47.3867 l 1
 172.547 -47.3867 l 1
 182.36 -47.3867 l 1
 182.36 -58.4805 l 1
 182.36 -69.5732 l 1
 195.16 -69.5732 l 1
 207.96 -69.5732 l 1
 207.96 -58.4805 l 1
 207.96 -47.3867 l 1
 217.347 -47.3867 l 1
 226.733 -47.3867 l 1
 226.733 -58.4805 l 1
 226.733 -69.5732 l 1
 261.72 -69.5732 l 1
 296.707 -69.5732 l 1
 296.707 -58.4805 l 1
 296.707 -47.3867 l 1
 306.094 -47.3867 l 1
 315.48 -47.3867 l 1
 315.48 -58.4805 l 1
 315.48 -69.5732 l 1
 417.026 -69.5732 l 1
 518.573 -69.5732 l 1
 518.573 -46.5332 l 1
 518.573 -23.4932 l 1
 507.48 -23.4932 l 1
 496.387 -23.4932 l 1
 496.387 -13.2529 l 1
 496.387 -3.01367 l 1
 507.48 -3.01367 l 1
 518.573 -3.01367 l 1
 518.573 76.3467 l 1
 518.573 155.707 l 1
 507.48 155.707 l 1
 496.387 155.707 l 1
 496.387 165.094 l 1
 496.387 174.48 l 1
 507.48 174.48 l 1
 518.573 174.48 l 1
 518.573 209.467 l 1
 518.573 244.453 l 1
 507.48 244.453 l 1
 496.387 244.453 l 1
 496.387 253.84 l 1
 496.387 263.227 l 1
 507.48 263.227 l 1
 518.573 263.227 l 1
 518.573 320.4 l 1
 518.573 377.573 l 1
 495.533 377.573 l 1
 472.493 377.573 l 1
 472.493 366.48 l 1
 472.493 355.387 l 1
 462.253 355.387 l 1
 452.014 355.387 l 1
 452.014 366.48 l 1
 452.014 377.573 l 1
 439.043 377.573 l 1
 426.072 377.573 l 1
 426.669 366.48 l 1
 427.267 355.387 l 1
 417.453 355.387 l 1
 407.64 355.387 l 1
 407.64 366.48 l 1
 407.64 377.573 l 1
 283.906 377.573 l 1
 160.174 377.573 l 1
 160.174 366.48 l 1
 160.174 355.387 l 1
 149.934 355.387 l 1
 139.693 355.387 l 1
 139.693 366.48 l 1
 139.693 377.573 l 1
 127.747 377.573 l 1
 115.8 377.573 l 1
 115.8 366.48 l 1
 115.8 355.387 l 1
 105.56 355.387 l 1
 95.3203 355.387 l 1
 95.3203 366.48 l 1
EndSplineSet
Validated: 524289
EndChar

StartChar: uni30C6
Encoding: 12486 12486 44
Width: 589
VWidth: 0
Flags: HW
LayerCount: 2
Back
Fore
SplineSet
39 154 m 1
 39 410 l 1
 295 410 l 1
 551 410 l 1
 551 154 l 1
 551 -102 l 1
 295 -102 l 1
 39 -102 l 1
 39 154 l 1
95.3203 366.48 m 1
 95.3203 377.573 l 1
 83.373 377.573 l 1
 71.4268 377.573 l 1
 71.4268 242.747 l 1
 71.4268 107.92 l 1
 82.5195 107.92 l 1
 93.6133 107.92 l 1
 93.6133 98.5332 l 1
 93.6133 89.1465 l 1
 82.5195 89.1465 l 1
 71.4268 89.1465 l 1
 71.4268 54.1602 l 1
 71.4268 19.1738 l 1
 82.5195 19.1738 l 1
 93.6133 19.1738 l 1
 93.6133 8.93359 l 1
 93.6133 -1.30664 l 1
 82.5195 -1.30664 l 1
 71.4268 -1.30664 l 1
 71.4268 -13.2529 l 1
 71.4268 -25.2002 l 1
 82.5195 -25.2002 l 1
 93.6133 -25.2002 l 1
 93.6133 -35.4404 l 1
 93.6133 -45.6797 l 1
 82.5195 -45.6797 l 1
 71.4268 -45.6797 l 1
 71.4268 -57.627 l 1
 71.4268 -69.5732 l 1
 94.4668 -69.5732 l 1
 117.507 -69.5732 l 1
 117.507 -58.4805 l 1
 117.507 -47.3867 l 1
 127.747 -47.3867 l 1
 137.986 -47.3867 l 1
 137.986 -58.4805 l 1
 137.986 -69.5732 l 1
 195.16 -69.5732 l 1
 252.333 -69.5732 l 1
 252.333 -58.4805 l 1
 252.333 -47.3867 l 1
 261.72 -47.3867 l 1
 271.106 -47.3867 l 1
 271.106 -58.4805 l 1
 271.106 -69.5732 l 1
 328.28 -69.5732 l 1
 385.453 -69.5732 l 1
 385.453 -58.4805 l 1
 385.453 -47.3867 l 1
 395.267 -47.3867 l 1
 405.08 -47.3867 l 1
 404.482 -58.4805 l 1
 403.886 -69.5732 l 1
 416.856 -69.5732 l 1
 429.827 -69.5732 l 1
 429.827 -58.4805 l 1
 429.827 -47.3867 l 1
 440.066 -47.3867 l 1
 450.307 -47.3867 l 1
 450.307 -58.4805 l 1
 450.307 -69.5732 l 1
 484.44 -69.5732 l 1
 518.573 -69.5732 l 1
 518.573 -23.4932 l 1
 518.573 22.5869 l 1
 507.48 22.5869 l 1
 496.387 22.5869 l 1
 496.387 31.9736 l 1
 496.387 41.3604 l 1
 507.48 41.3604 l 1
 518.573 41.3604 l 1
 518.573 54.1602 l 1
 518.573 66.96 l 1
 507.48 66.96 l 1
 496.387 66.96 l 1
 496.387 76.3467 l 1
 496.387 85.7334 l 1
 507.48 85.7334 l 1
 518.573 85.7334 l 1
 518.573 98.5332 l 1
 518.573 111.333 l 1
 507.48 111.333 l 1
 496.387 111.333 l 1
 496.387 120.72 l 1
 496.387 130.106 l 1
 507.48 130.106 l 1
 518.573 130.106 l 1
 518.573 209.467 l 1
 518.573 288.827 l 1
 507.48 288.827 l 1
 496.387 288.827 l 1
 496.387 299.066 l 1
 496.387 309.307 l 1
 507.48 309.307 l 1
 518.573 309.307 l 1
 518.573 343.44 l 1
 518.573 377.573 l 1
 450.307 377.573 l 1
 382.04 377.573 l 1
 382.04 366.48 l 1
 382.04 355.387 l 1
 372.653 355.387 l 1
 363.267 355.387 l 1
 363.267 366.48 l 1
 363.267 377.573 l 1
 350.467 377.573 l 1
 337.667 377.573 l 1
 337.667 366.48 l 1
 337.667 355.387 l 1
 328.28 355.387 l 1
 318.894 355.387 l 1
 318.894 366.48 l 1
 318.894 377.573 l 1
 306.094 377.573 l 1
 293.293 377.573 l 1
 293.293 366.48 l 1
 293.293 355.387 l 1
 283.906 355.387 l 1
 274.52 355.387 l 1
 274.52 366.48 l 1
 274.52 377.573 l 1
 239.533 377.573 l 1
 204.547 377.573 l 1
 204.547 366.48 l 1
 204.547 355.387 l 1
 194.733 355.387 l 1
 184.92 355.387 l 1
 185.518 366.48 l 1
 186.114 377.573 l 1
 150.957 377.573 l 1
 115.8 377.573 l 1
 115.8 366.48 l 1
 115.8 355.387 l 1
 105.56 355.387 l 1
 95.3203 355.387 l 1
 95.3203 366.48 l 1
EndSplineSet
Validated: 524289
EndChar

StartChar: uni3075
Encoding: 12405 12405 45
Width: 589
VWidth: 0
Flags: HW
LayerCount: 2
Back
Fore
SplineSet
39 154 m 1
 39 410 l 1
 295 410 l 1
 551 410 l 1
 551 154 l 1
 551 -102 l 1
 295 -102 l 1
 39 -102 l 1
 39 154 l 1
95.3203 366.48 m 1
 95.3203 377.573 l 1
 83.373 377.573 l 1
 71.4268 377.573 l 1
 71.4268 309.307 l 1
 71.4268 241.04 l 1
 82.5195 241.04 l 1
 93.6133 241.04 l 1
 93.6133 231.653 l 1
 93.6133 222.267 l 1
 82.5195 222.267 l 1
 71.4268 222.267 l 1
 71.4268 209.467 l 1
 71.4268 196.667 l 1
 82.5195 196.667 l 1
 93.6133 196.667 l 1
 93.6133 187.28 l 1
 93.6133 177.894 l 1
 82.5195 177.894 l 1
 71.4268 177.894 l 1
 71.4268 142.906 l 1
 71.4268 107.92 l 1
 82.5195 107.92 l 1
 93.6133 107.92 l 1
 93.6133 98.5332 l 1
 93.6133 89.1465 l 1
 82.5195 89.1465 l 1
 71.4268 89.1465 l 1
 71.4268 76.3467 l 1
 71.4268 63.5469 l 1
 82.5195 63.5469 l 1
 93.6133 63.5469 l 1
 93.6133 54.1602 l 1
 93.6133 44.7734 l 1
 82.5195 44.7734 l 1
 71.4268 44.7734 l 1
 71.4268 31.9736 l 1
 71.4268 19.1738 l 1
 82.5195 19.1738 l 1
 93.6133 19.1738 l 1
 93.6133 8.93359 l 1
 93.6133 -1.30664 l 1
 82.5195 -1.30664 l 1
 71.4268 -1.30664 l 1
 71.4268 -13.2529 l 1
 71.4268 -25.2002 l 1
 82.5195 -25.2002 l 1
 93.6133 -25.2002 l 1
 93.6133 -35.4404 l 1
 93.6133 -45.6797 l 1
 82.5195 -45.6797 l 1
 71.4268 -45.6797 l 1
 71.4268 -57.627 l 1
 71.4268 -69.5732 l 1
 94.4668 -69.5732 l 1
 117.507 -69.5732 l 1
 117.507 -58.4805 l 1
 117.507 -47.3867 l 1
 127.747 -47.3867 l 1
 137.986 -47.3867 l 1
 137.986 -58.4805 l 1
 137.986 -69.5732 l 1
 172.974 -69.5732 l 1
 207.96 -69.5732 l 1
 207.96 -58.4805 l 1
 207.96 -47.3867 l 1
 217.347 -47.3867 l 1
 226.733 -47.3867 l 1
 226.733 -58.4805 l 1
 226.733 -69.5732 l 1
 328.28 -69.5732 l 1
 429.827 -69.5732 l 1
 429.827 -58.4805 l 1
 429.827 -47.3867 l 1
 440.066 -47.3867 l 1
 450.307 -47.3867 l 1
 450.307 -58.4805 l 1
 450.307 -69.5732 l 1
 484.44 -69.5732 l 1
 518.573 -69.5732 l 1
 518.573 -23.4932 l 1
 518.573 22.5869 l 1
 507.48 22.5869 l 1
 496.387 22.5869 l 1
 496.387 31.9736 l 1
 496.387 41.3604 l 1
 507.48 41.3604 l 1
 518.573 41.3604 l 1
 518.573 142.906 l 1
 518.573 244.453 l 1
 507.48 244.453 l 1
 496.387 244.453 l 1
 496.387 253.84 l 1
 496.387 263.227 l 1
 507.48 263.227 l 1
 518.573 263.227 l 1
 518.573 276.026 l 1
 518.573 288.827 l 1
 507.48 288.827 l 1
 496.387 288.827 l 1
 496.387 299.066 l 1
 496.387 309.307 l 1
 507.48 309.307 l 1
 518.573 309.307 l 1
 518.573 343.44 l 1
 518.573 377.573 l 1
 405.934 377.573 l 1
 293.293 377.573 l 1
 293.293 366.48 l 1
 293.293 355.387 l 1
 283.906 355.387 l 1
 274.52 355.387 l 1
 274.52 366.48 l 1
 274.52 377.573 l 1
 195.16 377.573 l 1
 115.8 377.573 l 1
 115.8 366.48 l 1
 115.8 355.387 l 1
 105.56 355.387 l 1
 95.3203 355.387 l 1
 95.3203 366.48 l 1
EndSplineSet
Validated: 524289
EndChar

StartChar: uni30B4
Encoding: 12468 12468 46
Width: 589
VWidth: 0
Flags: HW
LayerCount: 2
Back
Fore
SplineSet
39 154 m 1
 39 410 l 1
 295 410 l 1
 551 410 l 1
 551 154 l 1
 551 -102 l 1
 295 -102 l 1
 39 -102 l 1
 39 154 l 1
95.3203 366.48 m 1
 95.3203 377.573 l 1
 83.373 377.573 l 1
 71.4268 377.573 l 1
 71.4268 331.493 l 1
 71.4268 285.413 l 1
 82.5195 285.413 l 1
 93.6133 285.413 l 1
 93.6133 276.026 l 1
 93.6133 266.64 l 1
 82.5195 266.64 l 1
 71.4268 266.64 l 1
 71.4268 253.84 l 1
 71.4268 241.04 l 1
 82.5195 241.04 l 1
 93.6133 241.04 l 1
 93.6133 231.653 l 1
 93.6133 222.267 l 1
 82.5195 222.267 l 1
 71.4268 222.267 l 1
 71.4268 209.467 l 1
 71.4268 196.667 l 1
 82.5195 196.667 l 1
 93.6133 196.667 l 1
 93.6133 187.28 l 1
 93.6133 177.894 l 1
 82.5195 177.894 l 1
 71.4268 177.894 l 1
 71.4268 165.094 l 1
 71.4268 152.293 l 1
 82.5195 152.293 l 1
 93.6133 152.293 l 1
 93.6133 142.906 l 1
 93.6133 133.52 l 1
 82.5195 133.52 l 1
 71.4268 133.52 l 1
 71.4268 120.72 l 1
 71.4268 107.92 l 1
 82.5195 107.92 l 1
 93.6133 107.92 l 1
 93.6133 98.5332 l 1
 93.6133 89.1465 l 1
 82.5195 89.1465 l 1
 71.4268 89.1465 l 1
 71.4268 54.1602 l 1
 71.4268 19.1738 l 1
 82.5195 19.1738 l 1
 93.6133 19.1738 l 1
 93.6133 8.93359 l 1
 93.6133 -1.30664 l 1
 82.5195 -1.30664 l 1
 71.4268 -1.30664 l 1
 71.4268 -13.2529 l 1
 71.4268 -25.2002 l 1
 82.5195 -25.2002 l 1
 93.6133 -25.2002 l 1
 93.6133 -35.4404 l 1
 93.6133 -45.6797 l 1
 82.5195 -45.6797 l 1
 71.4268 -45.6797 l 1
 71.4268 -57.627 l 1
 71.4268 -69.5732 l 1
 94.4668 -69.5732 l 1
 117.507 -69.5732 l 1
 117.507 -58.4805 l 1
 117.507 -47.3867 l 1
 127.747 -47.3867 l 1
 137.986 -47.3867 l 1
 137.986 -58.4805 l 1
 137.986 -69.5732 l 1
 150.957 -69.5732 l 1
 163.928 -69.5732 l 1
 163.331 -58.4805 l 1
 162.733 -47.3867 l 1
 172.547 -47.3867 l 1
 182.36 -47.3867 l 1
 182.36 -58.4805 l 1
 182.36 -69.5732 l 1
 195.16 -69.5732 l 1
 207.96 -69.5732 l 1
 207.96 -58.4805 l 1
 207.96 -47.3867 l 1
 217.347 -47.3867 l 1
 226.733 -47.3867 l 1
 226.733 -58.4805 l 1
 226.733 -69.5732 l 1
 261.72 -69.5732 l 1
 296.707 -69.5732 l 1
 296.707 -58.4805 l 1
 296.707 -47.3867 l 1
 306.094 -47.3867 l 1
 315.48 -47.3867 l 1
 315.48 -58.4805 l 1
 315.48 -69.5732 l 1
 350.467 -69.5732 l 1
 385.453 -69.5732 l 1
 385.453 -58.4805 l 1
 385.453 -47.3867 l 1
 395.267 -47.3867 l 1
 405.08 -47.3867 l 1
 404.482 -58.4805 l 1
 403.886 -69.5732 l 1
 416.856 -69.5732 l 1
 429.827 -69.5732 l 1
 429.827 -58.4805 l 1
 429.827 -47.3867 l 1
 440.066 -47.3867 l 1
 450.307 -47.3867 l 1
 450.307 -58.4805 l 1
 450.307 -69.5732 l 1
 484.44 -69.5732 l 1
 518.573 -69.5732 l 1
 518.573 43.0664 l 1
 518.573 155.707 l 1
 507.48 155.707 l 1
 496.387 155.707 l 1
 496.387 165.094 l 1
 496.387 174.48 l 1
 507.48 174.48 l 1
 518.573 174.48 l 1
 518.573 231.653 l 1
 518.573 288.827 l 1
 507.48 288.827 l 1
 496.387 288.827 l 1
 496.387 299.066 l 1
 496.387 309.307 l 1
 507.48 309.307 l 1
 518.573 309.307 l 1
 518.573 343.44 l 1
 518.573 377.573 l 1
 472.322 377.573 l 1
 426.072 377.573 l 1
 426.669 366.48 l 1
 427.267 355.387 l 1
 417.453 355.387 l 1
 407.64 355.387 l 1
 407.64 366.48 l 1
 407.64 377.573 l 1
 306.094 377.573 l 1
 204.547 377.573 l 1
 204.547 366.48 l 1
 204.547 355.387 l 1
 194.733 355.387 l 1
 184.92 355.387 l 1
 185.518 366.48 l 1
 186.114 377.573 l 1
 150.957 377.573 l 1
 115.8 377.573 l 1
 115.8 366.48 l 1
 115.8 355.387 l 1
 105.56 355.387 l 1
 95.3203 355.387 l 1
 95.3203 366.48 l 1
EndSplineSet
Validated: 524289
EndChar

StartChar: uni305E
Encoding: 12382 12382 47
Width: 589
VWidth: 0
Flags: HW
LayerCount: 2
Back
Fore
SplineSet
39 154 m 1
 39 410 l 1
 295 410 l 1
 551 410 l 1
 551 154 l 1
 551 -102 l 1
 295 -102 l 1
 39 -102 l 1
 39 154 l 1
95.3203 366.48 m 1
 95.3203 377.573 l 1
 83.373 377.573 l 1
 71.4268 377.573 l 1
 71.4268 354.533 l 1
 71.4268 331.493 l 1
 82.5195 331.493 l 1
 93.6133 331.493 l 1
 93.6133 321.253 l 1
 93.6133 311.014 l 1
 82.5195 311.014 l 1
 71.4268 311.014 l 1
 71.4268 276.026 l 1
 71.4268 241.04 l 1
 82.5195 241.04 l 1
 93.6133 241.04 l 1
 93.6133 231.653 l 1
 93.6133 222.267 l 1
 82.5195 222.267 l 1
 71.4268 222.267 l 1
 71.4268 142.906 l 1
 71.4268 63.5469 l 1
 82.5195 63.5469 l 1
 93.6133 63.5469 l 1
 93.6133 54.1602 l 1
 93.6133 44.7734 l 1
 82.5195 44.7734 l 1
 71.4268 44.7734 l 1
 71.4268 31.9736 l 1
 71.4268 19.1738 l 1
 82.5195 19.1738 l 1
 93.6133 19.1738 l 1
 93.6133 8.93359 l 1
 93.6133 -1.30664 l 1
 82.5195 -1.30664 l 1
 71.4268 -1.30664 l 1
 71.4268 -13.2529 l 1
 71.4268 -25.2002 l 1
 82.5195 -25.2002 l 1
 93.6133 -25.2002 l 1
 93.6133 -35.4404 l 1
 93.6133 -45.6797 l 1
 82.5195 -45.6797 l 1
 71.4268 -45.6797 l 1
 71.4268 -57.627 l 1
 71.4268 -69.5732 l 1
 139.693 -69.5732 l 1
 207.96 -69.5732 l 1
 207.96 -58.4805 l 1
 207.96 -47.3867 l 1
 217.347 -47.3867 l 1
 226.733 -47.3867 l 1
 226.733 -58.4805 l 1
 226.733 -69.5732 l 1
 239.533 -69.5732 l 1
 252.333 -69.5732 l 1
 252.333 -58.4805 l 1
 252.333 -47.3867 l 1
 261.72 -47.3867 l 1
 271.106 -47.3867 l 1
 271.106 -58.4805 l 1
 271.106 -69.5732 l 1
 306.094 -69.5732 l 1
 341.08 -69.5732 l 1
 341.08 -58.4805 l 1
 341.08 -47.3867 l 1
 350.467 -47.3867 l 1
 359.854 -47.3867 l 1
 359.854 -58.4805 l 1
 359.854 -69.5732 l 1
 394.84 -69.5732 l 1
 429.827 -69.5732 l 1
 429.827 -58.4805 l 1
 429.827 -47.3867 l 1
 440.066 -47.3867 l 1
 450.307 -47.3867 l 1
 450.307 -58.4805 l 1
 450.307 -69.5732 l 1
 484.44 -69.5732 l 1
 518.573 -69.5732 l 1
 518.573 -46.5332 l 1
 518.573 -23.4932 l 1
 507.48 -23.4932 l 1
 496.387 -23.4932 l 1
 496.387 -13.2529 l 1
 496.387 -3.01367 l 1
 507.48 -3.01367 l 1
 518.573 -3.01367 l 1
 518.573 9.78711 l 1
 518.573 22.5869 l 1
 507.48 22.5869 l 1
 496.387 22.5869 l 1
 496.387 31.9736 l 1
 496.387 41.3604 l 1
 507.48 41.3604 l 1
 518.573 41.3604 l 1
 518.573 76.3467 l 1
 518.573 111.333 l 1
 507.48 111.333 l 1
 496.387 111.333 l 1
 496.387 120.72 l 1
 496.387 130.106 l 1
 507.48 130.106 l 1
 518.573 130.106 l 1
 518.573 165.094 l 1
 518.573 200.08 l 1
 507.48 200.08 l 1
 496.387 200.08 l 1
 496.387 209.467 l 1
 496.387 218.854 l 1
 507.48 218.854 l 1
 518.573 218.854 l 1
 518.573 231.653 l 1
 518.573 244.453 l 1
 507.48 244.453 l 1
 496.387 244.453 l 1
 496.387 253.84 l 1
 496.387 263.227 l 1
 507.48 263.227 l 1
 518.573 263.227 l 1
 518.573 276.026 l 1
 518.573 288.827 l 1
 507.48 288.827 l 1
 496.387 288.827 l 1
 496.387 299.066 l 1
 496.387 309.307 l 1
 507.48 309.307 l 1
 518.573 309.307 l 1
 518.573 343.44 l 1
 518.573 377.573 l 1
 495.533 377.573 l 1
 472.493 377.573 l 1
 472.493 366.48 l 1
 472.493 355.387 l 1
 462.253 355.387 l 1
 452.014 355.387 l 1
 452.014 366.48 l 1
 452.014 377.573 l 1
 394.84 377.573 l 1
 337.667 377.573 l 1
 337.667 366.48 l 1
 337.667 355.387 l 1
 328.28 355.387 l 1
 318.894 355.387 l 1
 318.894 366.48 l 1
 318.894 377.573 l 1
 306.094 377.573 l 1
 293.293 377.573 l 1
 293.293 366.48 l 1
 293.293 355.387 l 1
 283.906 355.387 l 1
 274.52 355.387 l 1
 274.52 366.48 l 1
 274.52 377.573 l 1
 261.72 377.573 l 1
 248.92 377.573 l 1
 248.92 366.48 l 1
 248.92 355.387 l 1
 239.533 355.387 l 1
 230.146 355.387 l 1
 230.146 366.48 l 1
 230.146 377.573 l 1
 172.974 377.573 l 1
 115.8 377.573 l 1
 115.8 366.48 l 1
 115.8 355.387 l 1
 105.56 355.387 l 1
 95.3203 355.387 l 1
 95.3203 366.48 l 1
EndSplineSet
Validated: 524289
EndChar

StartChar: uni30C8
Encoding: 12488 12488 48
Width: 589
VWidth: 0
Flags: HW
LayerCount: 2
Back
Fore
SplineSet
39 154 m 1
 39 410 l 1
 295 410 l 1
 551 410 l 1
 551 154 l 1
 551 -102 l 1
 295 -102 l 1
 39 -102 l 1
 39 154 l 1
95.3203 366.48 m 1
 95.3203 377.573 l 1
 83.373 377.573 l 1
 71.4268 377.573 l 1
 71.4268 331.493 l 1
 71.4268 285.413 l 1
 82.5195 285.413 l 1
 93.6133 285.413 l 1
 93.6133 276.026 l 1
 93.6133 266.64 l 1
 82.5195 266.64 l 1
 71.4268 266.64 l 1
 71.4268 187.28 l 1
 71.4268 107.92 l 1
 82.5195 107.92 l 1
 93.6133 107.92 l 1
 93.6133 98.5332 l 1
 93.6133 89.1465 l 1
 82.5195 89.1465 l 1
 71.4268 89.1465 l 1
 71.4268 54.1602 l 1
 71.4268 19.1738 l 1
 82.5195 19.1738 l 1
 93.6133 19.1738 l 1
 93.6133 8.93359 l 1
 93.6133 -1.30664 l 1
 82.5195 -1.30664 l 1
 71.4268 -1.30664 l 1
 71.4268 -13.2529 l 1
 71.4268 -25.2002 l 1
 82.5195 -25.2002 l 1
 93.6133 -25.2002 l 1
 93.6133 -35.4404 l 1
 93.6133 -45.6797 l 1
 82.5195 -45.6797 l 1
 71.4268 -45.6797 l 1
 71.4268 -57.627 l 1
 71.4268 -69.5732 l 1
 94.4668 -69.5732 l 1
 117.507 -69.5732 l 1
 117.507 -58.4805 l 1
 117.507 -47.3867 l 1
 127.747 -47.3867 l 1
 137.986 -47.3867 l 1
 137.986 -58.4805 l 1
 137.986 -69.5732 l 1
 150.957 -69.5732 l 1
 163.928 -69.5732 l 1
 163.331 -58.4805 l 1
 162.733 -47.3867 l 1
 172.547 -47.3867 l 1
 182.36 -47.3867 l 1
 182.36 -58.4805 l 1
 182.36 -69.5732 l 1
 217.347 -69.5732 l 1
 252.333 -69.5732 l 1
 252.333 -58.4805 l 1
 252.333 -47.3867 l 1
 261.72 -47.3867 l 1
 271.106 -47.3867 l 1
 271.106 -58.4805 l 1
 271.106 -69.5732 l 1
 328.28 -69.5732 l 1
 385.453 -69.5732 l 1
 385.453 -58.4805 l 1
 385.453 -47.3867 l 1
 395.267 -47.3867 l 1
 405.08 -47.3867 l 1
 404.482 -58.4805 l 1
 403.886 -69.5732 l 1
 416.856 -69.5732 l 1
 429.827 -69.5732 l 1
 429.827 -58.4805 l 1
 429.827 -47.3867 l 1
 440.066 -47.3867 l 1
 450.307 -47.3867 l 1
 450.307 -58.4805 l 1
 450.307 -69.5732 l 1
 484.44 -69.5732 l 1
 518.573 -69.5732 l 1
 518.573 -1.30664 l 1
 518.573 66.96 l 1
 507.48 66.96 l 1
 496.387 66.96 l 1
 496.387 76.3467 l 1
 496.387 85.7334 l 1
 507.48 85.7334 l 1
 518.573 85.7334 l 1
 518.573 98.5332 l 1
 518.573 111.333 l 1
 507.48 111.333 l 1
 496.387 111.333 l 1
 496.387 120.72 l 1
 496.387 130.106 l 1
 507.48 130.106 l 1
 518.573 130.106 l 1
 518.573 209.467 l 1
 518.573 288.827 l 1
 507.48 288.827 l 1
 496.387 288.827 l 1
 496.387 299.066 l 1
 496.387 309.307 l 1
 507.48 309.307 l 1
 518.573 309.307 l 1
 518.573 343.44 l 1
 518.573 377.573 l 1
 472.322 377.573 l 1
 426.072 377.573 l 1
 426.669 366.48 l 1
 427.267 355.387 l 1
 417.453 355.387 l 1
 407.64 355.387 l 1
 407.64 366.48 l 1
 407.64 377.573 l 1
 394.84 377.573 l 1
 382.04 377.573 l 1
 382.04 366.48 l 1
 382.04 355.387 l 1
 372.653 355.387 l 1
 363.267 355.387 l 1
 363.267 366.48 l 1
 363.267 377.573 l 1
 350.467 377.573 l 1
 337.667 377.573 l 1
 337.667 366.48 l 1
 337.667 355.387 l 1
 328.28 355.387 l 1
 318.894 355.387 l 1
 318.894 366.48 l 1
 318.894 377.573 l 1
 306.094 377.573 l 1
 293.293 377.573 l 1
 293.293 366.48 l 1
 293.293 355.387 l 1
 283.906 355.387 l 1
 274.52 355.387 l 1
 274.52 366.48 l 1
 274.52 377.573 l 1
 239.533 377.573 l 1
 204.547 377.573 l 1
 204.547 366.48 l 1
 204.547 355.387 l 1
 194.733 355.387 l 1
 184.92 355.387 l 1
 185.518 366.48 l 1
 186.114 377.573 l 1
 150.957 377.573 l 1
 115.8 377.573 l 1
 115.8 366.48 l 1
 115.8 355.387 l 1
 105.56 355.387 l 1
 95.3203 355.387 l 1
 95.3203 366.48 l 1
EndSplineSet
Validated: 524289
EndChar

StartChar: uni3092
Encoding: 12434 12434 49
Width: 589
VWidth: 0
Flags: HW
LayerCount: 2
Back
Fore
SplineSet
39 154 m 1
 39 410 l 1
 295 410 l 1
 551 410 l 1
 551 154 l 1
 551 -102 l 1
 295 -102 l 1
 39 -102 l 1
 39 154 l 1
95.3203 366.48 m 1
 95.3203 377.573 l 1
 83.373 377.573 l 1
 71.4268 377.573 l 1
 71.4268 354.533 l 1
 71.4268 331.493 l 1
 82.5195 331.493 l 1
 93.6133 331.493 l 1
 93.6133 321.253 l 1
 93.6133 311.014 l 1
 82.5195 311.014 l 1
 71.4268 311.014 l 1
 71.4268 253.84 l 1
 71.4268 196.667 l 1
 82.5195 196.667 l 1
 93.6133 196.667 l 1
 93.6133 187.28 l 1
 93.6133 177.894 l 1
 82.5195 177.894 l 1
 71.4268 177.894 l 1
 71.4268 98.5332 l 1
 71.4268 19.1738 l 1
 82.5195 19.1738 l 1
 93.6133 19.1738 l 1
 93.6133 8.93359 l 1
 93.6133 -1.30664 l 1
 82.5195 -1.30664 l 1
 71.4268 -1.30664 l 1
 71.4268 -13.2529 l 1
 71.4268 -25.2002 l 1
 82.5195 -25.2002 l 1
 93.6133 -25.2002 l 1
 93.6133 -35.4404 l 1
 93.6133 -45.6797 l 1
 82.5195 -45.6797 l 1
 71.4268 -45.6797 l 1
 71.4268 -57.627 l 1
 71.4268 -69.5732 l 1
 206.253 -69.5732 l 1
 341.08 -69.5732 l 1
 341.08 -58.4805 l 1
 341.08 -47.3867 l 1
 350.467 -47.3867 l 1
 359.854 -47.3867 l 1
 359.854 -58.4805 l 1
 359.854 -69.5732 l 1
 372.653 -69.5732 l 1
 385.453 -69.5732 l 1
 385.453 -58.4805 l 1
 385.453 -47.3867 l 1
 395.267 -47.3867 l 1
 405.08 -47.3867 l 1
 404.482 -58.4805 l 1
 403.886 -69.5732 l 1
 416.856 -69.5732 l 1
 429.827 -69.5732 l 1
 429.827 -58.4805 l 1
 429.827 -47.3867 l 1
 440.066 -47.3867 l 1
 450.307 -47.3867 l 1
 450.307 -58.4805 l 1
 450.307 -69.5732 l 1
 484.44 -69.5732 l 1
 518.573 -69.5732 l 1
 518.573 -46.5332 l 1
 518.573 -23.4932 l 1
 507.48 -23.4932 l 1
 496.387 -23.4932 l 1
 496.387 -13.2529 l 1
 496.387 -3.01367 l 1
 507.48 -3.01367 l 1
 518.573 -3.01367 l 1
 518.573 9.78711 l 1
 518.573 22.5869 l 1
 507.48 22.5869 l 1
 496.387 22.5869 l 1
 496.387 31.9736 l 1
 496.387 41.3604 l 1
 507.48 41.3604 l 1
 518.573 41.3604 l 1
 518.573 54.1602 l 1
 518.573 66.96 l 1
 507.48 66.96 l 1
 496.387 66.96 l 1
 496.387 76.3467 l 1
 496.387 85.7334 l 1
 507.48 85.7334 l 1
 518.573 85.7334 l 1
 518.573 142.906 l 1
 518.573 200.08 l 1
 507.48 200.08 l 1
 496.387 200.08 l 1
 496.387 209.467 l 1
 496.387 218.854 l 1
 507.48 218.854 l 1
 518.573 218.854 l 1
 518.573 253.84 l 1
 518.573 288.827 l 1
 507.48 288.827 l 1
 496.387 288.827 l 1
 496.387 299.066 l 1
 496.387 309.307 l 1
 507.48 309.307 l 1
 518.573 309.307 l 1
 518.573 343.44 l 1
 518.573 377.573 l 1
 495.533 377.573 l 1
 472.493 377.573 l 1
 472.493 366.48 l 1
 472.493 355.387 l 1
 462.253 355.387 l 1
 452.014 355.387 l 1
 452.014 366.48 l 1
 452.014 377.573 l 1
 417.026 377.573 l 1
 382.04 377.573 l 1
 382.04 366.48 l 1
 382.04 355.387 l 1
 372.653 355.387 l 1
 363.267 355.387 l 1
 363.267 366.48 l 1
 363.267 377.573 l 1
 328.28 377.573 l 1
 293.293 377.573 l 1
 293.293 366.48 l 1
 293.293 355.387 l 1
 283.906 355.387 l 1
 274.52 355.387 l 1
 274.52 366.48 l 1
 274.52 377.573 l 1
 261.72 377.573 l 1
 248.92 377.573 l 1
 248.92 366.48 l 1
 248.92 355.387 l 1
 239.533 355.387 l 1
 230.146 355.387 l 1
 230.146 366.48 l 1
 230.146 377.573 l 1
 217.347 377.573 l 1
 204.547 377.573 l 1
 204.547 366.48 l 1
 204.547 355.387 l 1
 194.733 355.387 l 1
 184.92 355.387 l 1
 185.518 366.48 l 1
 186.114 377.573 l 1
 150.957 377.573 l 1
 115.8 377.573 l 1
 115.8 366.48 l 1
 115.8 355.387 l 1
 105.56 355.387 l 1
 95.3203 355.387 l 1
 95.3203 366.48 l 1
EndSplineSet
Validated: 524289
EndChar

StartChar: uni30E5
Encoding: 12517 12517 50
Width: 589
VWidth: 0
Flags: HW
LayerCount: 2
Back
Fore
SplineSet
39 154 m 1
 39 410 l 1
 295 410 l 1
 551 410 l 1
 551 154 l 1
 551 -102 l 1
 295 -102 l 1
 39 -102 l 1
 39 154 l 1
95.3203 366.48 m 1
 95.3203 377.573 l 1
 83.373 377.573 l 1
 71.4268 377.573 l 1
 71.4268 354.533 l 1
 71.4268 331.493 l 1
 82.5195 331.493 l 1
 93.6133 331.493 l 1
 93.6133 321.253 l 1
 93.6133 311.014 l 1
 82.5195 311.014 l 1
 71.4268 311.014 l 1
 71.4268 298.213 l 1
 71.4268 285.413 l 1
 82.5195 285.413 l 1
 93.6133 285.413 l 1
 93.6133 276.026 l 1
 93.6133 266.64 l 1
 82.5195 266.64 l 1
 71.4268 266.64 l 1
 71.4268 253.84 l 1
 71.4268 241.04 l 1
 82.5195 241.04 l 1
 93.6133 241.04 l 1
 93.6133 231.653 l 1
 93.6133 222.267 l 1
 82.5195 222.267 l 1
 71.4268 222.267 l 1
 71.4268 209.467 l 1
 71.4268 196.667 l 1
 82.5195 196.667 l 1
 93.6133 196.667 l 1
 93.6133 187.28 l 1
 93.6133 177.894 l 1
 82.5195 177.894 l 1
 71.4268 177.894 l 1
 71.4268 120.72 l 1
 71.4268 63.5469 l 1
 82.5195 63.5469 l 1
 93.6133 63.5469 l 1
 93.6133 54.1602 l 1
 93.6133 44.7734 l 1
 82.5195 44.7734 l 1
 71.4268 44.7734 l 1
 71.4268 9.78711 l 1
 71.4268 -25.2002 l 1
 82.5195 -25.2002 l 1
 93.6133 -25.2002 l 1
 93.6133 -35.4404 l 1
 93.6133 -45.6797 l 1
 82.5195 -45.6797 l 1
 71.4268 -45.6797 l 1
 71.4268 -57.627 l 1
 71.4268 -69.5732 l 1
 117.678 -69.5732 l 1
 163.928 -69.5732 l 1
 163.331 -58.4805 l 1
 162.733 -47.3867 l 1
 172.547 -47.3867 l 1
 182.36 -47.3867 l 1
 182.36 -58.4805 l 1
 182.36 -69.5732 l 1
 195.16 -69.5732 l 1
 207.96 -69.5732 l 1
 207.96 -58.4805 l 1
 207.96 -47.3867 l 1
 217.347 -47.3867 l 1
 226.733 -47.3867 l 1
 226.733 -58.4805 l 1
 226.733 -69.5732 l 1
 283.906 -69.5732 l 1
 341.08 -69.5732 l 1
 341.08 -58.4805 l 1
 341.08 -47.3867 l 1
 350.467 -47.3867 l 1
 359.854 -47.3867 l 1
 359.854 -58.4805 l 1
 359.854 -69.5732 l 1
 439.213 -69.5732 l 1
 518.573 -69.5732 l 1
 518.573 -46.5332 l 1
 518.573 -23.4932 l 1
 507.48 -23.4932 l 1
 496.387 -23.4932 l 1
 496.387 -13.2529 l 1
 496.387 -3.01367 l 1
 507.48 -3.01367 l 1
 518.573 -3.01367 l 1
 518.573 98.5332 l 1
 518.573 200.08 l 1
 507.48 200.08 l 1
 496.387 200.08 l 1
 496.387 209.467 l 1
 496.387 218.854 l 1
 507.48 218.854 l 1
 518.573 218.854 l 1
 518.573 231.653 l 1
 518.573 244.453 l 1
 507.48 244.453 l 1
 496.387 244.453 l 1
 496.387 253.84 l 1
 496.387 263.227 l 1
 507.48 263.227 l 1
 518.573 263.227 l 1
 518.573 320.4 l 1
 518.573 377.573 l 1
 495.533 377.573 l 1
 472.493 377.573 l 1
 472.493 366.48 l 1
 472.493 355.387 l 1
 462.253 355.387 l 1
 452.014 355.387 l 1
 452.014 366.48 l 1
 452.014 377.573 l 1
 439.043 377.573 l 1
 426.072 377.573 l 1
 426.669 366.48 l 1
 427.267 355.387 l 1
 417.453 355.387 l 1
 407.64 355.387 l 1
 407.64 366.48 l 1
 407.64 377.573 l 1
 350.467 377.573 l 1
 293.293 377.573 l 1
 293.293 366.48 l 1
 293.293 355.387 l 1
 283.906 355.387 l 1
 274.52 355.387 l 1
 274.52 366.48 l 1
 274.52 377.573 l 1
 261.72 377.573 l 1
 248.92 377.573 l 1
 248.92 366.48 l 1
 248.92 355.387 l 1
 239.533 355.387 l 1
 230.146 355.387 l 1
 230.146 366.48 l 1
 230.146 377.573 l 1
 195.16 377.573 l 1
 160.174 377.573 l 1
 160.174 366.48 l 1
 160.174 355.387 l 1
 149.934 355.387 l 1
 139.693 355.387 l 1
 139.693 366.48 l 1
 139.693 377.573 l 1
 127.747 377.573 l 1
 115.8 377.573 l 1
 115.8 366.48 l 1
 115.8 355.387 l 1
 105.56 355.387 l 1
 95.3203 355.387 l 1
 95.3203 366.48 l 1
EndSplineSet
Validated: 524289
EndChar

StartChar: uni30D7
Encoding: 12503 12503 51
Width: 589
VWidth: 0
Flags: HW
LayerCount: 2
Back
Fore
SplineSet
39 154 m 1
 39 410 l 1
 295 410 l 1
 551 410 l 1
 551 154 l 1
 551 -102 l 1
 295 -102 l 1
 39 -102 l 1
 39 154 l 1
95.3203 366.48 m 1
 95.3203 377.573 l 1
 83.373 377.573 l 1
 71.4268 377.573 l 1
 71.4268 354.533 l 1
 71.4268 331.493 l 1
 82.5195 331.493 l 1
 93.6133 331.493 l 1
 93.6133 321.253 l 1
 93.6133 311.014 l 1
 82.5195 311.014 l 1
 71.4268 311.014 l 1
 71.4268 231.653 l 1
 71.4268 152.293 l 1
 82.5195 152.293 l 1
 93.6133 152.293 l 1
 93.6133 142.906 l 1
 93.6133 133.52 l 1
 82.5195 133.52 l 1
 71.4268 133.52 l 1
 71.4268 98.5332 l 1
 71.4268 63.5469 l 1
 82.5195 63.5469 l 1
 93.6133 63.5469 l 1
 93.6133 54.1602 l 1
 93.6133 44.7734 l 1
 82.5195 44.7734 l 1
 71.4268 44.7734 l 1
 71.4268 9.78711 l 1
 71.4268 -25.2002 l 1
 82.5195 -25.2002 l 1
 93.6133 -25.2002 l 1
 93.6133 -35.4404 l 1
 93.6133 -45.6797 l 1
 82.5195 -45.6797 l 1
 71.4268 -45.6797 l 1
 71.4268 -57.627 l 1
 71.4268 -69.5732 l 1
 161.88 -69.5732 l 1
 252.333 -69.5732 l 1
 252.333 -58.4805 l 1
 252.333 -47.3867 l 1
 261.72 -47.3867 l 1
 271.106 -47.3867 l 1
 271.106 -58.4805 l 1
 271.106 -69.5732 l 1
 283.906 -69.5732 l 1
 296.707 -69.5732 l 1
 296.707 -58.4805 l 1
 296.707 -47.3867 l 1
 306.094 -47.3867 l 1
 315.48 -47.3867 l 1
 315.48 -58.4805 l 1
 315.48 -69.5732 l 1
 328.28 -69.5732 l 1
 341.08 -69.5732 l 1
 341.08 -58.4805 l 1
 341.08 -47.3867 l 1
 350.467 -47.3867 l 1
 359.854 -47.3867 l 1
 359.854 -58.4805 l 1
 359.854 -69.5732 l 1
 439.213 -69.5732 l 1
 518.573 -69.5732 l 1
 518.573 -46.5332 l 1
 518.573 -23.4932 l 1
 507.48 -23.4932 l 1
 496.387 -23.4932 l 1
 496.387 -13.2529 l 1
 496.387 -3.01367 l 1
 507.48 -3.01367 l 1
 518.573 -3.01367 l 1
 518.573 9.78711 l 1
 518.573 22.5869 l 1
 507.48 22.5869 l 1
 496.387 22.5869 l 1
 496.387 31.9736 l 1
 496.387 41.3604 l 1
 507.48 41.3604 l 1
 518.573 41.3604 l 1
 518.573 54.1602 l 1
 518.573 66.96 l 1
 507.48 66.96 l 1
 496.387 66.96 l 1
 496.387 76.3467 l 1
 496.387 85.7334 l 1
 507.48 85.7334 l 1
 518.573 85.7334 l 1
 518.573 98.5332 l 1
 518.573 111.333 l 1
 507.48 111.333 l 1
 496.387 111.333 l 1
 496.387 120.72 l 1
 496.387 130.106 l 1
 507.48 130.106 l 1
 518.573 130.106 l 1
 518.573 142.906 l 1
 518.573 155.707 l 1
 507.48 155.707 l 1
 496.387 155.707 l 1
 496.387 165.094 l 1
 496.387 174.48 l 1
 507.48 174.48 l 1
 518.573 174.48 l 1
 518.573 187.28 l 1
 518.573 200.08 l 1
 507.48 200.08 l 1
 496.387 200.08 l 1
 496.387 209.467 l 1
 496.387 218.854 l 1
 507.48 218.854 l 1
 518.573 218.854 l 1
 518.573 231.653 l 1
 518.573 244.453 l 1
 507.48 244.453 l 1
 496.387 244.453 l 1
 496.387 253.84 l 1
 496.387 263.227 l 1
 507.48 263.227 l 1
 518.573 263.227 l 1
 518.573 320.4 l 1
 518.573 377.573 l 1
 495.533 377.573 l 1
 472.493 377.573 l 1
 472.493 366.48 l 1
 472.493 355.387 l 1
 462.253 355.387 l 1
 452.014 355.387 l 1
 452.014 366.48 l 1
 452.014 377.573 l 1
 417.026 377.573 l 1
 382.04 377.573 l 1
 382.04 366.48 l 1
 382.04 355.387 l 1
 372.653 355.387 l 1
 363.267 355.387 l 1
 363.267 366.48 l 1
 363.267 377.573 l 1
 350.467 377.573 l 1
 337.667 377.573 l 1
 337.667 366.48 l 1
 337.667 355.387 l 1
 328.28 355.387 l 1
 318.894 355.387 l 1
 318.894 366.48 l 1
 318.894 377.573 l 1
 283.906 377.573 l 1
 248.92 377.573 l 1
 248.92 366.48 l 1
 248.92 355.387 l 1
 239.533 355.387 l 1
 230.146 355.387 l 1
 230.146 366.48 l 1
 230.146 377.573 l 1
 195.16 377.573 l 1
 160.174 377.573 l 1
 160.174 366.48 l 1
 160.174 355.387 l 1
 149.934 355.387 l 1
 139.693 355.387 l 1
 139.693 366.48 l 1
 139.693 377.573 l 1
 127.747 377.573 l 1
 115.8 377.573 l 1
 115.8 366.48 l 1
 115.8 355.387 l 1
 105.56 355.387 l 1
 95.3203 355.387 l 1
 95.3203 366.48 l 1
EndSplineSet
Validated: 524289
EndChar

StartChar: uni3056
Encoding: 12374 12374 52
Width: 589
VWidth: 0
Flags: HW
HStem: -102 54.6133<207.96 226.733 341.08 359.854 429.827 450.307> -102 32.4268<71.4268 207.96 226.733 341.08 359.854 429.827 450.307 518.573> -45.6797 20.4795<71.4268 93.6133> -23.4932 20.4795<496.387 518.573> -1.30664 20.4805<71.4268 93.6133> 22.5869 18.7734<496.387 518.573> 44.7734 18.7734<71.4268 93.6133> 177.894 18.7734<71.4268 93.6133> 200.08 18.7734<496.387 518.573> 222.267 18.7734<71.4268 93.6133> 244.453 18.7734<496.387 518.573> 288.827 20.4795<496.387 518.573> 311.014 20.4795<71.4268 93.6133> 355.387 54.6133<95.3203 115.8 230.146 248.92 274.52 293.293 452.014 472.493> 377.573 32.4268<71.4268 95.3203 115.8 230.146 248.92 274.52 293.293 452.014 472.493 518.573>
VStem: 39 54.6133<-45.6797 -25.2002 -1.30664 19.1738 44.7734 63.5469 177.894 196.667 222.267 241.04 311.014 331.493> 39 32.4268<-69.5732 -45.6797 -25.2002 -1.30664 19.1738 44.7734 63.5469 177.894 196.667 222.267 241.04 311.014 331.493 377.573> 95.3203 20.4795<355.387 377.573> 207.96 18.7734<-69.5732 -47.3867> 230.146 18.7734<355.387 377.573> 274.52 18.7734<355.387 377.573> 341.08 18.7734<-69.5732 -47.3867> 429.827 20.4795<-69.5732 -47.3867> 452.014 20.4795<355.387 377.573> 496.387 54.6133<-23.4932 -3.01367 22.5869 41.3604 200.08 218.854 244.453 263.227 288.827 309.307> 518.573 32.4268<-69.5732 -23.4932 -3.01367 22.5869 41.3604 200.08 218.854 244.453 263.227 288.827 309.307 377.573>
LayerCount: 2
Back
Fore
SplineSet
39 154 m 1x7ffaff40
 39 410 l 1
 295 410 l 1
 551 410 l 1
 551 154 l 1
 551 -102 l 1
 295 -102 l 1
 39 -102 l 1
 39 154 l 1x7ffaff40
95.3203 366.48 m 1
 95.3203 377.573 l 1
 83.373 377.573 l 1
 71.4268 377.573 l 1
 71.4268 354.533 l 1
 71.4268 331.493 l 1x3ffaff40
 82.5195 331.493 l 1
 93.6133 331.493 l 1
 93.6133 321.253 l 1
 93.6133 311.014 l 1x3ffb7f
 82.5195 311.014 l 1
 71.4268 311.014 l 1
 71.4268 276.026 l 1
 71.4268 241.04 l 1x3ffaff
 82.5195 241.04 l 1
 93.6133 241.04 l 1
 93.6133 231.653 l 1
 93.6133 222.267 l 1x3ffb7f
 82.5195 222.267 l 1
 71.4268 222.267 l 1
 71.4268 209.467 l 1
 71.4268 196.667 l 1x3ffaff
 82.5195 196.667 l 1
 93.6133 196.667 l 1
 93.6133 187.28 l 1
 93.6133 177.894 l 1x3ffb7f
 82.5195 177.894 l 1
 71.4268 177.894 l 1
 71.4268 120.72 l 1
 71.4268 63.5469 l 1x3ffaff
 82.5195 63.5469 l 1
 93.6133 63.5469 l 1
 93.6133 54.1602 l 1
 93.6133 44.7734 l 1x3ffb7f
 82.5195 44.7734 l 1
 71.4268 44.7734 l 1
 71.4268 31.9736 l 1
 71.4268 19.1738 l 1x3ffaff
 82.5195 19.1738 l 1
 93.6133 19.1738 l 1
 93.6133 8.93359 l 1
 93.6133 -1.30664 l 1x3ffb7f
 82.5195 -1.30664 l 1
 71.4268 -1.30664 l 1
 71.4268 -13.2529 l 1
 71.4268 -25.2002 l 1x3ffaff
 82.5195 -25.2002 l 1
 93.6133 -25.2002 l 1
 93.6133 -35.4404 l 1
 93.6133 -45.6797 l 1x3ffb7f
 82.5195 -45.6797 l 1
 71.4268 -45.6797 l 1
 71.4268 -57.627 l 1
 71.4268 -69.5732 l 1
 139.693 -69.5732 l 1
 207.96 -69.5732 l 1x7ffaff
 207.96 -58.4805 l 1
 207.96 -47.3867 l 1
 217.347 -47.3867 l 1
 226.733 -47.3867 l 1xbff8ff
 226.733 -58.4805 l 1
 226.733 -69.5732 l 1
 283.906 -69.5732 l 1
 341.08 -69.5732 l 1x7ff8ff
 341.08 -58.4805 l 1
 341.08 -47.3867 l 1
 350.467 -47.3867 l 1
 359.854 -47.3867 l 1xbff8ff
 359.854 -58.4805 l 1
 359.854 -69.5732 l 1
 394.84 -69.5732 l 1
 429.827 -69.5732 l 1x7ff8ff
 429.827 -58.4805 l 1
 429.827 -47.3867 l 1
 440.066 -47.3867 l 1
 450.307 -47.3867 l 1xbff8ff
 450.307 -58.4805 l 1
 450.307 -69.5732 l 1
 484.44 -69.5732 l 1
 518.573 -69.5732 l 1
 518.573 -46.5332 l 1
 518.573 -23.4932 l 1x7ff8ff40
 507.48 -23.4932 l 1
 496.387 -23.4932 l 1
 496.387 -13.2529 l 1
 496.387 -3.01367 l 1x7ff87f80
 507.48 -3.01367 l 1
 518.573 -3.01367 l 1
 518.573 9.78711 l 1
 518.573 22.5869 l 1x7ff87f40
 507.48 22.5869 l 1
 496.387 22.5869 l 1
 496.387 31.9736 l 1
 496.387 41.3604 l 1x7ff87f80
 507.48 41.3604 l 1
 518.573 41.3604 l 1
 518.573 120.72 l 1
 518.573 200.08 l 1x7ff87f40
 507.48 200.08 l 1
 496.387 200.08 l 1
 496.387 209.467 l 1
 496.387 218.854 l 1x7ff87f80
 507.48 218.854 l 1
 518.573 218.854 l 1
 518.573 231.653 l 1
 518.573 244.453 l 1x7ff87f40
 507.48 244.453 l 1
 496.387 244.453 l 1
 496.387 253.84 l 1
 496.387 263.227 l 1x7ff87f80
 507.48 263.227 l 1
 518.573 263.227 l 1
 518.573 276.026 l 1
 518.573 288.827 l 1x7ff87f40
 507.48 288.827 l 1
 496.387 288.827 l 1
 496.387 299.066 l 1
 496.387 309.307 l 1x7ff87f80
 507.48 309.307 l 1
 518.573 309.307 l 1
 518.573 343.44 l 1
 518.573 377.573 l 1
 495.533 377.573 l 1
 472.493 377.573 l 1x7ffa7f40
 472.493 366.48 l 1
 472.493 355.387 l 1
 462.253 355.387 l 1
 452.014 355.387 l 1x3ffc7f40
 452.014 366.48 l 1
 452.014 377.573 l 1
 372.653 377.573 l 1
 293.293 377.573 l 1x3ffa7f40
 293.293 366.48 l 1
 293.293 355.387 l 1
 283.906 355.387 l 1
 274.52 355.387 l 1x3ffc7f40
 274.52 366.48 l 1
 274.52 377.573 l 1
 261.72 377.573 l 1
 248.92 377.573 l 1x3ffa7f40
 248.92 366.48 l 1
 248.92 355.387 l 1
 239.533 355.387 l 1
 230.146 355.387 l 1x3ffc7f40
 230.146 366.48 l 1
 230.146 377.573 l 1
 172.974 377.573 l 1
 115.8 377.573 l 1x3ffa7f40
 115.8 366.48 l 1
 115.8 355.387 l 1
 105.56 355.387 l 1
 95.3203 355.387 l 1x3ffc7f40
 95.3203 366.48 l 1
EndSplineSet
Validated: 524289
EndChar

